<svg width="255" height="206" viewBox="0 0 255 206" fill="none" xmlns="http://www.w3.org/2000/svg">
<path d="M48.6581 67.4262C52.0092 63.5404 55.5626 60.1472 59.3105 57.2799C76.6928 43.9817 98.2584 41.9965 123.224 54.6532C123.927 53.5505 124.685 52.5343 125.506 51.6241C126.554 38.8696 131.304 11.0693 141.916 1.90425C146.097 -1.79392 158.665 20.7301 164.427 32.4544C170.863 32.1798 185.644 32.8186 193.276 37.5697C203.155 29.031 224.401 12.8782 230.351 16.5763C237.787 21.199 235.375 61.3966 227.939 74.2598C229.65 86.3746 230.729 112.376 221.36 119.465C216.163 123.397 208.127 128.236 197.791 131.893C203.351 144.438 216.684 171.176 225.527 177.768C229.949 176.964 239.234 177.206 241.003 184.602C243.214 193.847 236.527 196.46 228.944 196.46C221.36 196.46 214.385 198.194 212.218 193.106C210.051 188.019 210.252 188.622 208.242 187.617C206.232 186.612 172.466 154.253 169.25 153.449C165.528 154.768 157.431 157.292 154.823 156.834C158.292 164.951 166.035 181.587 169.25 183.195C173.27 185.205 175.594 182.24 180.261 189.752C184.927 197.264 179.099 202.49 172.667 203.093C166.236 203.696 160.112 205.366 155.637 201.918C151.162 198.47 121.013 165.106 119.606 154.856C117.33 154.458 114.457 153.86 111.257 153.066C109.54 157.105 98.5029 155.66 97.699 159.88C97.0558 163.257 100.379 169.729 102.121 172.543C105.166 171.337 111.8 170.108 113.97 174.838C116.684 180.751 113.778 183.999 111.257 185.929C108.736 187.859 92.8754 187.416 88.8556 184.841C84.8359 182.265 70.9677 153.047 74.7703 151.369C77.8123 150.026 78.3403 142.415 78.224 138.777C77.4303 138.104 76.698 137.411 76.0367 136.699C73.476 143.555 63.2093 157.469 42.6282 158.273C41.2883 163.029 39.0104 172.985 40.6183 174.754C42.6282 176.964 46.7109 178.447 45.4735 184.841C44.2362 191.235 36.9568 192.792 30.0446 190.305C23.1325 187.818 21.5874 189.96 18.9432 181.05C16.299 172.141 21.1227 154.052 21.1227 145.811C21.1227 137.571 30.569 141.114 32.2775 127.082C33.8612 114.075 30.3501 92.7459 44.8778 72.2499C46.0222 70.6354 47.2785 69.026 48.6581 67.4262Z" fill="#EFEFEF"/>
<path d="M123.224 54.6532C117.97 62.8958 115.739 75.9755 112.167 85.7946C108.118 96.9273 108.552 94.5596 116.217 108.548C122.348 119.739 140.728 131.488 149.152 135.963C168.268 139.205 184.836 136.478 197.791 131.893M123.224 54.6532C123.927 53.5505 124.685 52.5343 125.506 51.6242C126.554 38.8696 131.304 11.0693 141.916 1.90425C146.097 -1.79392 158.665 20.7301 164.427 32.4544C170.863 32.1798 185.644 32.8186 193.276 37.5697C203.155 29.031 224.401 12.8782 230.351 16.5763C237.787 21.199 235.375 61.3966 227.939 74.2598C229.65 86.3746 230.729 112.376 221.36 119.465C216.163 123.397 208.127 128.236 197.791 131.893M123.224 54.6532C98.2584 41.9965 76.6928 43.9817 59.3105 57.2799C55.5626 60.1472 52.0092 63.5404 48.6581 67.4262C47.2785 69.026 46.0222 70.6354 44.8778 72.2499C30.3501 92.7459 33.8612 114.075 32.2775 127.082C30.569 141.114 21.1227 137.571 21.1227 145.811C21.1227 154.052 16.299 172.141 18.9432 181.05C21.5874 189.96 23.1325 187.818 30.0446 190.305C36.9568 192.792 44.2362 191.235 45.4735 184.841C46.7109 178.447 42.6282 176.964 40.6183 174.754C39.0104 172.985 41.2883 163.029 42.6282 158.273C63.2093 157.469 73.476 143.555 76.0367 136.699C76.698 137.411 77.4303 138.104 78.224 138.777M78.224 138.777C78.3403 142.415 77.8123 150.026 74.7703 151.369C70.9677 153.047 84.8359 182.265 88.8556 184.841C92.8754 187.416 108.736 187.859 111.257 185.929C113.778 183.999 116.684 180.751 113.97 174.838C111.8 170.108 105.166 171.337 102.121 172.543C100.379 169.729 97.0558 163.257 97.699 159.88C98.5029 155.66 109.54 157.105 111.257 153.066M78.224 138.777C86.2575 145.59 100.581 150.417 111.257 153.066M111.257 153.066C114.457 153.86 117.33 154.458 119.606 154.856C121.013 165.106 151.162 198.47 155.637 201.918C160.112 205.366 166.236 203.696 172.667 203.093C179.099 202.49 184.927 197.264 180.261 189.752C175.594 182.24 173.27 185.205 169.25 183.195C166.035 181.587 158.292 164.951 154.823 156.834C157.431 157.292 165.528 154.768 169.25 153.449C172.466 154.253 206.232 186.612 208.242 187.617C210.252 188.622 210.051 188.019 212.218 193.106C214.385 198.194 221.36 196.46 228.944 196.46C236.527 196.46 243.214 193.847 241.003 184.602C239.234 177.206 229.949 176.964 225.527 177.768C216.684 171.176 203.351 144.438 197.791 131.893" stroke="black" stroke-width="3"/>
<path d="M237.483 193.626C238.087 193.908 238.692 194.189 239.296 194.47C239.392 194.24 239.481 194.002 239.562 193.765C241.055 189.756 240.313 183.971 235.988 182.137C235.768 182.03 235.555 181.938 235.326 181.847C235.224 182.076 235.123 182.304 235.021 182.533C235.225 182.635 235.411 182.737 235.602 182.852C239.256 184.86 239.333 189.644 237.756 193.063C237.67 193.257 237.577 193.448 237.483 193.626Z" fill="black"/>
<path d="M227.791 195.624C228.157 196.181 228.523 196.739 228.889 197.296C229.105 197.142 229.315 196.972 229.509 196.799C231.259 195.261 232.335 192.817 231.917 190.501C231.523 188.197 230.069 186.411 228.523 184.993C228.353 184.838 228.176 184.683 227.991 184.527C227.822 184.711 227.652 184.895 227.483 185.079C227.646 185.243 227.802 185.407 227.95 185.569C230.914 188.385 231.538 193.166 228.277 195.303C228.12 195.419 227.953 195.53 227.791 195.624Z" fill="black"/>
<path d="M175.189 201.569C175.651 202.049 176.113 202.529 176.576 203.009C176.779 202.8 176.975 202.576 177.158 202.35C178.776 200.339 179.782 197.637 179.193 195.014C178.608 192.384 176.627 190.518 174.583 189.241C174.359 189.101 174.126 188.963 173.884 188.826C173.753 189.039 173.622 189.252 173.491 189.465C173.713 189.613 173.924 189.763 174.126 189.912C175.986 191.279 177.558 193.133 177.841 195.264C178.148 197.379 177.164 199.524 175.695 201.08C175.532 201.251 175.36 201.418 175.189 201.569Z" fill="black"/>
<path d="M164.919 203.238C165.26 203.811 165.601 204.384 165.942 204.957C166.176 204.806 166.406 204.641 166.623 204.47C168.552 202.959 170.068 200.622 169.968 198.049C169.869 195.475 168.324 193.425 166.661 191.871C166.478 191.702 166.287 191.532 166.088 191.361C165.918 191.544 165.748 191.728 165.578 191.912C165.756 192.09 165.925 192.268 166.084 192.443C167.555 194.049 168.704 196.037 168.593 198.045C168.507 200.038 167.161 201.8 165.486 202.902C165.301 203.023 165.108 203.138 164.919 203.238Z" fill="black"/>
<path d="M113.589 182.113C114.25 182.031 114.912 181.948 115.573 181.865C115.539 181.672 115.495 181.477 115.446 181.291C114.683 177.971 111.349 175.195 108.042 175.721C107.863 175.738 107.69 175.759 107.51 175.787C107.534 176.036 107.559 176.285 107.583 176.534C107.75 176.528 107.909 176.528 108.07 176.533C111.076 176.491 113.226 178.999 113.549 181.685C113.568 181.829 113.582 181.976 113.589 182.113Z" fill="black"/>
<path d="M105.143 186.931C105.807 186.986 106.472 187.042 107.136 187.097C107.146 186.859 107.142 186.615 107.129 186.386C106.961 182.211 103.658 178.561 99.8129 177.921C99.6044 177.877 99.3975 177.838 99.1822 177.803C99.1307 178.048 99.0792 178.293 99.0277 178.537C99.2259 178.59 99.4149 178.645 99.6036 178.707C103.109 179.698 105.381 183.069 105.192 186.407C105.183 186.584 105.167 186.766 105.143 186.931Z" fill="black"/>
<path d="M39.0127 190.233C39.4127 190.767 39.8127 191.3 40.2127 191.833C40.4217 191.663 40.6053 191.483 40.7756 191.292C43.7605 187.682 42.3027 182.995 40.2851 179.914C40.1722 179.738 40.0546 179.56 39.932 179.381C39.7191 179.512 39.5062 179.643 39.2933 179.774C39.394 179.957 39.4895 180.138 39.5798 180.317C41.2834 183.484 41.7534 187.74 39.3832 189.945C39.2604 190.057 39.1346 190.155 39.0127 190.233Z" fill="black"/>
<path d="M193.988 38.2639C193.575 37.7406 193.162 37.2174 192.748 36.6941C192.655 36.7812 192.558 36.8725 192.464 36.9624C190.817 38.6037 189.164 40.2981 188.296 42.5994C188.254 42.7293 188.216 42.8629 188.186 42.9964C188.425 43.0699 188.664 43.1434 188.903 43.2169C188.945 43.1147 188.994 43.0112 189.047 42.91C190.09 41.0972 191.921 39.707 193.689 38.4638C193.788 38.3961 193.89 38.3275 193.988 38.2639Z" fill="black"/>
<path d="M164.659 33.4536C164.638 32.7873 164.616 32.1209 164.595 31.4546C164.407 31.4711 164.207 31.49 164.022 31.5096C160.614 31.8935 157.264 32.4801 154.006 33.5191C153.827 33.5778 153.645 33.6394 153.468 33.702C153.538 33.942 153.608 34.182 153.678 34.422C153.855 34.3811 154.037 34.3411 154.216 34.304C157.466 33.6532 160.818 33.4463 164.117 33.4448C164.295 33.4464 164.485 33.4488 164.659 33.4536Z" fill="black"/>
<path d="M201.408 119.884C202.08 120.088 202.753 120.313 203.427 120.55C209.426 122.717 215.132 125.419 220.718 128.364C226.285 131.322 231.694 134.593 236.872 138.318C237.449 138.735 238.018 139.151 238.59 139.581C238.108 139.053 237.621 138.539 237.119 138.03C232.62 133.46 227.341 129.616 221.656 126.598C215.954 123.589 209.857 121.318 203.523 120.183C202.813 120.06 202.107 119.957 201.408 119.884Z" fill="black"/>
<path d="M203.418 113.251C203.418 113.251 203.418 113.251 203.418 113.251C204.255 113.198 205.13 113.063 205.993 112.971C213.74 112.097 221.487 111.783 229.176 112.226C236.862 112.683 244.502 113.915 251.839 116.542C252.653 116.835 253.459 117.142 254.267 117.472C254.267 117.472 254.267 117.472 254.267 117.472C253.519 117.023 252.763 116.599 251.992 116.195C245.032 112.544 237.158 110.688 229.293 110.229C221.415 109.773 213.502 110.654 205.924 112.598C205.08 112.808 204.23 113.067 203.418 113.251Z" fill="black"/>
<path d="M113.375 99.9862C113.375 99.9862 113.375 99.9862 113.375 99.9862C112.897 99.7826 112.375 99.5917 111.879 99.4239C107.294 97.9207 102.345 97.4795 97.5146 98.0058C92.6847 98.5386 87.9104 100.142 83.9215 102.862C83.4763 103.165 83.0485 103.477 82.624 103.805C82.624 103.805 82.624 103.805 82.624 103.805C83.1163 103.591 83.603 103.392 84.0987 103.199C88.54 101.471 93.1114 100.512 97.736 99.9936C102.357 99.4941 107.059 99.367 111.799 99.7955C112.314 99.8446 112.861 99.911 113.375 99.9862Z" fill="black"/>
<path d="M114.38 92.7504C113.921 92.3493 113.46 91.9005 112.99 91.4847C108.78 87.6982 103.598 84.9485 98.1414 83.2976C92.6738 81.6376 86.9194 81.0529 81.2883 81.3608C80.6696 81.3951 80.0428 81.4398 79.4082 81.4951C80.0405 81.5731 80.6618 81.655 81.2725 81.7405C86.8349 82.5129 92.2832 83.6113 97.5607 85.2115C102.834 86.8144 107.952 88.9111 112.765 91.7909C113.302 92.1068 113.842 92.4568 114.38 92.7504Z" fill="black"/>
<path d="M57.7465 58.1451C35.3911 55.7684 14.4426 71.3036 7.25327 84.711C-0.183058 98.5789 -0.986834 114.256 8.25823 126.717C17.5532 139.246 35.7939 145.409 52.8778 146.213C71.0369 147.068 98.0638 136.882 87.4477 126.717C78.0013 117.673 57.0986 131.742 36.643 125.372C19.2847 119.967 16.9011 104.609 20.9204 96.9713C29.1765 81.2831 33.0966 81.2321 42.6271 76.2695C47.3664 68.5699 52.676 63.4061 57.7465 58.1451Z" fill="#EFEFEF" stroke="black" stroke-width="3"/>
<path d="M188.759 75.2884C167.24 59.1858 149.68 94.8309 160.395 105.778C170.054 111.242 179.053 114.66 190.554 103.403C198.996 92.7507 195.177 81.6963 188.759 75.2884Z" fill="white"/>
<path d="M160.395 105.778C159.056 104.224 158.301 102.297 157.967 100.342C155.733 84.0644 173.989 64.5583 187.564 76.8849L187.35 76.6995C188.069 77.4234 188.741 78.1966 189.357 79.0099C194.744 85.7385 194.855 95.5054 189.31 102.417L189.444 102.269C183.67 108.904 174.496 112.128 165.981 108.227C164.09 107.516 162.235 106.666 160.395 105.778C162.104 106.898 163.844 107.975 165.672 108.921C173.617 114.059 185.239 111.39 191.665 104.538L191.798 104.389C198.613 97.1611 199.026 84.3835 192.545 76.5938C191.818 75.6336 191.023 74.7258 190.168 73.8773L189.953 73.6919C182.872 67.424 170.186 68.3782 164.363 75.7145C158.301 82.4522 155.023 91.8333 157.227 100.516C157.816 102.52 158.863 104.413 160.395 105.778ZM160.395 105.778" fill="black"/>
<path d="M128.248 60.7927C115.586 65.7166 117.595 94.9605 128.247 98.377C134.345 98.8548 139.503 92.7494 139.504 78.4793C139.102 63.0037 135.484 57.979 128.248 60.7927Z" fill="white"/>
<path d="M128.247 98.377C128.247 98.377 128.247 98.377 128.247 98.377C126.775 97.7649 125.605 96.678 124.698 95.4443C118.46 85.0871 119.289 67.65 128.968 62.6461C129.944 62.2743 130.899 62.0445 131.729 62.0497C134.107 61.8757 135.675 64.7632 136.499 68.0658C137.337 71.3555 137.686 74.9496 137.928 78.5202L137.928 78.4793C138.055 85.0453 137.969 92.7406 132.611 97.022C131.377 97.8934 129.837 98.3754 128.247 98.377C128.247 98.377 128.247 98.377 128.247 98.377C129.811 98.6422 131.505 98.4213 132.995 97.6779C139.655 93.8032 140.688 85.3384 141.079 78.4793L141.079 78.4384C141.111 74.7393 140.99 70.9924 140.185 67.1915C139.757 65.2936 139.187 63.3414 137.934 61.4654C136.774 59.58 134.178 57.9494 131.749 58.0498C130.169 58.0497 128.794 58.4447 127.527 58.9393C119.887 62.2779 118.202 70.5659 118.018 77.0883C118.014 83.8153 119.468 90.9206 124.123 95.9412C125.274 97.0958 126.692 98.0233 128.247 98.377ZM128.247 98.377" fill="black"/>
<ellipse cx="130.052" cy="88.5233" rx="2.35089" ry="7.0352" transform="rotate(8.33381 130.052 88.5233)" fill="black"/>
<path d="M165.517 97.2749C165.009 101.323 163.527 104.471 162.205 104.305C160.884 104.139 160.224 100.723 160.732 96.6749C161.239 92.6266 162.722 89.479 164.043 89.6447C165.365 89.8104 166.024 93.2265 165.517 97.2749Z" fill="black"/>
<path d="M137.694 113.653C136.229 114.858 135.411 115.212 133.876 115.06C132.871 121.29 137.359 129.031 142.719 127.923C146.363 127.17 150.553 123.946 151.362 119.683C140.925 118.956 140.043 108.372 139.503 107.422C139.522 107.418 139.515 107.266 139.513 107.137C139.531 107.018 139.551 106.976 139.527 106.962C141.343 106.533 147.355 104.968 146.337 103.201C145.131 100.387 134.68 98.4717 135.081 102.196C135.295 104.177 137.8 105.982 139.527 106.962C139.513 106.966 139.512 107.045 139.513 107.137C139.499 107.233 139.484 107.411 139.503 107.422C138.844 108.772 140.826 111.079 137.694 113.653Z" fill="black"/>
<path d="M129.454 107.824C130.33 108.425 131.062 113.854 133.876 115.06M133.876 115.06C135.411 115.212 136.229 114.858 137.694 113.653C140.826 111.079 138.844 108.772 139.503 107.422M133.876 115.06C132.871 121.29 137.359 129.031 142.719 127.923C146.363 127.17 150.553 123.946 151.362 119.683M139.527 106.962C139.493 106.97 139.535 107.415 139.503 107.422M139.527 106.962C137.8 105.982 135.295 104.177 135.081 102.196C134.68 98.4717 145.131 100.387 146.337 103.201C147.355 104.968 141.343 106.533 139.527 106.962ZM139.527 106.962C139.551 106.976 139.531 107.018 139.513 107.137C139.499 107.233 139.484 107.411 139.503 107.422M139.503 107.422C140.043 108.372 140.925 118.956 151.362 119.683M151.362 119.683C156.489 119.783 157.793 118.075 160.004 114.859" stroke="black" stroke-width="2" stroke-linecap="round"/>
<path d="M149.225 121.149C148.797 124.127 143.907 126.468 141.516 127.266C138.993 127 140.853 125.937 140.259 123.145C139.664 120.354 142.255 119.157 143.848 119.954C145.44 120.751 149.76 117.427 149.225 121.149Z" fill="white" stroke="black"/>
<path d="M125.518 51.1491C125.73 51.2813 125.942 51.4135 126.155 51.5457C126.799 50.592 127.507 49.6558 128.234 48.7604C131.798 44.5256 136.162 39.9641 141.381 39.3759L142.658 39.2956L142.123 38.106C141.188 36.2176 139.539 34.538 137.16 34.311L137.249 36.2152C139.881 35.8456 143.389 35.9068 144.637 37.5407C144.706 37.6416 144.763 37.7468 144.81 37.86L146.733 37.5227C147.045 27.1229 146.794 16.6353 144.489 6.40629C144.206 5.25602 143.881 4.11578 143.478 2.9956C143.24 3.0721 143.002 3.1486 142.764 3.2251C143.077 4.3374 143.319 5.46945 143.523 6.6111C145.139 16.7559 145.056 27.1763 144.735 37.4358L146.659 37.0986C146.559 36.8559 146.434 36.6257 146.288 36.4118C143.483 33.3301 139.967 34.0083 136.934 34.3217L137.023 36.2258C138.408 36.2801 139.8 37.5042 140.502 38.8624L141.244 37.5925C134.813 38.622 130.877 43.632 127.447 48.1631C126.765 49.1245 126.108 50.125 125.518 51.1491Z" fill="black"/>
<path d="M220.659 69.326C220.42 69.3995 220.181 69.473 219.942 69.5466C219.46 68.128 218.863 66.7384 218.198 65.3936C215.602 60.2634 211.931 55.2076 206.725 53.1284L205.884 52.8056L206.289 51.9753C206.548 51.5205 206.767 51.4151 206.969 51.258C207.165 51.1217 207.366 51.0067 207.55 50.909C207.93 50.7084 208.302 50.545 208.676 50.3926C209.421 50.0904 210.171 49.8367 210.924 49.6072C212.443 49.1593 213.931 48.7594 215.616 48.601L215.535 50.4672C210.922 49.7812 205.95 48.6639 201.933 49.5616C201.551 49.6854 201.321 49.89 201.315 49.9456L199.412 49.4117C203.407 35.9995 213.263 26.1322 224.271 18.738C225.593 17.9417 226.961 17.223 228.389 16.6356C228.49 16.8642 228.592 17.0928 228.693 17.3214C227.342 17.9657 226.05 18.7325 224.801 19.5711C214.459 27.1555 204.891 37.7513 201.394 49.6653L199.49 49.1314C199.918 48.2219 200.694 47.8859 201.277 47.6724C206.585 46.5278 211.162 47.8967 215.821 48.6098L215.74 50.4761C213.098 50.7168 209.337 51.7679 207.781 52.7294L207.346 51.5763C213.188 54.1471 216.671 59.602 219.093 64.9773C219.707 66.3896 220.243 67.8408 220.659 69.326Z" fill="black"/>
<path d="M168.498 152.151C168.999 153.016 169.5 153.881 170.001 154.747C170.259 154.58 170.523 154.406 170.786 154.23C175.342 150.992 180.133 147.892 183.106 142.729C183.245 142.424 183.368 142.098 183.449 141.762C183.089 141.657 182.73 141.552 182.37 141.447C182.283 141.687 182.162 141.935 182.022 142.172C179.026 146.374 173.946 149.135 169.292 151.737C169.024 151.879 168.757 152.019 168.498 152.151Z" fill="black"/>
<path d="M153.632 157.726C154.531 157.286 155.429 156.847 156.327 156.407C156.212 156.207 156.094 155.998 155.977 155.787C153.963 152.014 151.897 148.009 151.174 143.894C151.145 143.666 151.126 143.44 151.12 143.224C150.745 143.207 150.371 143.19 149.996 143.173C149.968 143.435 149.957 143.701 149.957 143.966C150.185 148.622 151.768 152.822 153.348 157.026C153.443 157.262 153.538 157.497 153.632 157.726Z" fill="black"/>
<path d="M31.134 190.064C31.5608 190.576 31.9876 191.088 32.4144 191.601C32.5988 191.433 32.7679 191.254 32.9206 191.072C35.7491 187.648 34.3646 182.955 32.06 180.228C31.9353 180.07 31.8054 179.911 31.6701 179.751C31.4715 179.903 31.2729 180.055 31.0743 180.207C31.1876 180.372 31.295 180.536 31.3968 180.698C33.3541 183.57 33.7799 187.604 31.4917 189.763C31.3756 189.875 31.2527 189.979 31.134 190.064Z" fill="black"/>
</svg>
