<svg width="344" height="244" viewBox="0 0 344 244" fill="none" xmlns="http://www.w3.org/2000/svg">
<path d="M247.524 219.357C243.124 209.757 251.29 186.017 256.123 176.017C267.072 163.542 269.321 147.854 268.487 138.987C308.477 133.365 317.521 102.174 312.499 95.3569C308.08 89.3569 306.008 71.1903 305.524 62.8569C307.124 39.2569 300.524 15.6903 297.024 6.85693C287.824 8.45693 272.858 28.5236 266.524 38.3569C259.724 35.9569 244.024 37.3569 237.024 38.3569C237.024 24.3569 219.358 8.5236 210.524 2.35693C196.924 9.95693 192.524 49.8569 192.024 68.8569C187.169 87.8724 190.726 103.477 196.024 113.357C188.358 110.024 165.724 106.057 136.524 116.857C100.024 130.357 95.0243 151.857 92.5243 158.357C90.0243 164.857 76.0243 173.265 67.5243 178.357C59.0243 183.448 41.5243 186.357 32.0243 182.857C22.5243 179.357 10.5243 168.357 5.57024 173.265C0.616167 178.174 -3.47573 186.857 24.3865 200.402C46.6763 211.238 75.7658 198.22 87.5243 190.357C90.5243 213.357 99.0243 206.357 102.024 216.357C105.024 226.357 98.0243 228.857 103.524 233.857C109.024 238.857 132.024 236.357 147.631 237.001C160.117 237.517 163.096 233.453 163.024 231.357C167.824 232.957 173.159 231.453 175.226 230.501C178.187 223.817 170.992 216.286 167.024 213.357V213.322C179.46 211.467 191.219 206.522 197.024 203.357H197.03C198.987 211.539 201.666 220.35 205.024 226.857C213.024 242.357 211.024 239.857 222.524 241.357C231.724 242.557 236.024 238.857 237.024 236.857C242.358 238.357 254.7 240.057 257.5 232.857C260.3 225.657 256.5 217.857 247.524 219.357Z" fill="#EFEFEF"/>
<path d="M268.487 138.987C269.321 147.854 267.072 163.542 256.123 176.017C251.29 186.017 243.124 209.757 247.524 219.357C256.5 217.857 260.3 225.657 257.5 232.857C254.7 240.057 242.358 238.357 237.024 236.857C236.024 238.857 231.724 242.557 222.524 241.357C211.024 239.857 213.024 242.357 205.024 226.857C201.666 220.35 198.987 211.539 197.03 203.357H197.024C191.219 206.522 179.46 211.467 167.024 213.322V213.357C170.992 216.286 178.187 223.817 175.226 230.501C173.159 231.453 167.824 232.957 163.024 231.357C163.096 233.453 160.117 237.517 147.631 237.001C132.024 236.357 109.024 238.857 103.524 233.857C98.0243 228.857 105.024 226.357 102.024 216.357C99.0243 206.357 90.5243 213.357 87.5243 190.357C75.7658 198.22 46.6763 211.238 24.3865 200.402C-3.47573 186.857 0.616167 178.174 5.57024 173.265C10.5243 168.357 22.5243 179.357 32.0243 182.857C41.5243 186.357 59.0243 183.448 67.5243 178.357C76.0243 173.265 90.0243 164.857 92.5243 158.357C95.0243 151.857 100.024 130.357 136.524 116.857C165.724 106.057 188.358 110.024 196.024 113.357C190.726 103.477 187.169 87.8724 192.024 68.8569C192.524 49.8569 196.924 9.95693 210.524 2.35693C219.358 8.5236 237.024 24.3569 237.024 38.3569C244.024 37.3569 259.724 35.9569 266.524 38.3569C272.858 28.5236 287.824 8.45693 297.024 6.85693C300.524 15.6903 307.124 39.2569 305.524 62.8569C306.008 71.1903 308.08 89.3569 312.499 95.3569C317.521 102.174 308.477 133.365 268.487 138.987ZM268.487 138.987C267.518 139.124 266.53 139.245 265.524 139.35" stroke="black" stroke-width="4" stroke-linecap="round"/>
<path d="M199.981 56.1395C200.327 56.2845 200.673 56.4296 201.019 56.5746C201.321 56.1767 201.645 55.7696 201.963 55.3927C203.258 53.8511 204.589 52.4408 205.937 51.0373C210.648 46.0932 217.327 43.2254 224.43 42.9553C224.936 42.9317 225.436 42.9187 225.956 42.9178C225.985 42.544 226.015 42.1701 226.044 41.7963C225.514 41.7127 224.997 41.6441 224.471 41.5892C217.112 40.7114 209.062 43.3523 203.777 48.9553C202.258 50.534 201.069 52.431 200.38 54.5363C200.214 55.0523 200.07 55.6044 199.981 56.1395Z" fill="black"/>
<path d="M273.435 107.901C274.626 109.289 276.034 109.693 277.343 109.613C275.843 116.613 273 125.357 268.5 123.857C265.441 122.837 262.744 115.101 262.244 110.435C271.132 110.229 270.5 101.857 271 100.857C270.987 100.852 270.993 100.733 271 100.613C270.991 100.492 270.981 100.369 271 100.357C269.478 99.7904 266.578 97.6682 267.519 95.8094C268.737 93.4033 275.587 94.1428 275.244 96.8787C274.977 99.0139 272.508 99.3905 271 100.357C271.014 100.362 271.007 100.488 271 100.613C271.001 100.624 271.002 100.635 271.003 100.646C271.011 100.751 271.016 100.846 271 100.857C271.5 102.357 270.89 104.937 273.435 107.901Z" fill="black"/>
<path d="M280.616 107.845C279.846 108.448 278.83 109.523 277.343 109.613M277.343 109.613C276.034 109.693 274.626 109.289 273.435 107.901C270.89 104.937 271.5 102.357 271 100.857M277.343 109.613C275.843 116.613 273 125.357 268.5 123.857C265.441 122.837 262.744 115.101 262.244 110.435M271 100.357C271.028 100.367 270.973 100.848 271 100.857M271 100.357C272.508 99.3905 274.977 99.0139 275.244 96.8787C275.587 94.1428 268.737 93.4033 267.519 95.8094C266.578 97.6682 269.478 99.7904 271 100.357ZM271 100.357C270.979 100.37 270.993 100.515 271.003 100.646C271.011 100.751 271.016 100.846 271 100.857M271 100.857C270.5 101.857 271.132 110.229 262.244 110.435M262.244 110.435C257.889 110.258 257.145 110.023 255 107.154" stroke="black" stroke-width="3" stroke-linecap="round"/>
<path d="M265.733 141.339C266.268 141.351 266.758 141.147 267.091 140.733C267.425 140.322 267.576 139.736 267.514 139.142C267.451 138.547 267.182 138.005 266.77 137.672C266.358 137.337 265.836 137.239 265.316 137.361C265.316 137.361 265.316 137.361 265.316 137.361C265.156 137.399 264.995 137.436 264.835 137.473C261.947 138.136 259.001 138.654 256.022 139.043C255.856 139.065 255.691 139.086 255.524 139.107C255.349 139.129 255.18 139.228 255.056 139.368C254.932 139.509 254.862 139.68 254.862 139.857C254.862 140.034 254.932 140.205 255.056 140.346C255.18 140.486 255.349 140.585 255.524 140.607C255.693 140.628 255.861 140.648 256.029 140.668C259.06 141.029 262.124 141.259 265.217 141.329C265.389 141.333 265.561 141.336 265.733 141.339Z" fill="black"/>
<path d="M195.085 203.822C195.174 204.346 195.466 204.799 195.919 205.077C196.37 205.354 196.945 205.434 197.495 205.302C198.046 205.17 198.522 204.84 198.799 204.388C199.077 203.936 199.133 203.399 198.975 202.892C198.975 202.892 198.975 202.892 198.975 202.892C198.882 202.593 198.791 202.298 198.7 201.999C197.066 196.634 195.624 191.183 194.456 185.675C194.392 185.37 194.329 185.061 194.268 184.759C194.231 184.576 194.119 184.411 193.962 184.299C193.805 184.186 193.617 184.137 193.433 184.161C193.248 184.186 193.079 184.282 192.957 184.431C192.835 184.58 192.769 184.769 192.781 184.955C192.781 184.955 192.781 184.955 192.781 184.955C192.801 185.267 192.824 185.587 192.847 185.902C193.283 191.586 193.998 197.237 194.927 202.881C194.979 203.196 195.031 203.507 195.085 203.822Z" fill="black"/>
<path d="M308.5 102.357C309.064 102.176 309.662 101.998 310.235 101.84C315.49 100.428 320.802 99.6186 326.111 99.4086C331.412 99.2258 336.756 99.7053 341.827 101.652C342.392 101.87 342.945 102.102 343.5 102.357C343.013 101.987 342.517 101.642 341.998 101.312C337.331 98.339 331.572 97.2009 326.04 97.4099C320.482 97.6263 315.023 99.04 310.098 101.486C309.562 101.757 309.009 102.054 308.5 102.357Z" fill="black"/>
<path d="M211.5 113.357C210.843 113.281 210.145 113.23 209.474 113.197C203.345 112.939 197.131 113.946 191.356 116.219C185.612 118.488 180.232 122.249 176.863 127.43C176.488 128.005 176.144 128.585 175.822 129.187C176.255 128.66 176.698 128.158 177.162 127.665C181.33 123.249 186.58 120.277 192.095 118.078C197.632 115.902 203.468 114.398 209.489 113.576C210.15 113.49 210.841 113.415 211.5 113.357Z" fill="black"/>
<path d="M153.267 236.003C154.089 236.572 154.911 237.142 155.733 237.711C155.896 237.448 156.04 237.174 156.16 236.907C158.52 231.808 154.774 226.671 150.947 224.738C150.736 224.616 150.518 224.496 150.293 224.377C150.098 224.697 149.902 225.017 149.707 225.337C149.903 225.475 150.092 225.614 150.273 225.753C153.712 228.151 155.592 232.542 153.579 235.571C153.482 235.726 153.374 235.876 153.267 236.003Z" fill="black"/>
<path d="M168.267 230.503C169.089 231.072 169.911 231.642 170.733 232.211C170.896 231.948 171.04 231.674 171.16 231.407C173.52 226.308 169.774 221.171 165.947 219.238C165.736 219.116 165.518 218.996 165.293 218.877C165.098 219.197 164.902 219.517 164.707 219.837C164.903 219.975 165.092 220.114 165.273 220.253C168.712 222.651 170.592 227.042 168.579 230.071C168.482 230.226 168.374 230.376 168.267 230.503Z" fill="black"/>
<path d="M224.267 240.503C225.089 241.072 225.911 241.642 226.733 242.211C226.928 241.902 227.074 241.595 227.195 241.301C228.962 236.132 227.534 230.869 224.466 227.109C224.294 226.9 224.119 226.701 223.935 226.501C223.645 226.738 223.355 226.976 223.065 227.213C223.212 227.418 223.349 227.62 223.483 227.83C225.901 231.521 226.31 236.584 224.563 240.069C224.466 240.239 224.361 240.395 224.267 240.503Z" fill="black"/>
<path d="M233.767 239.003C234.589 239.572 235.411 240.142 236.233 240.711C236.428 240.402 236.574 240.095 236.695 239.801C238.462 234.632 237.034 229.369 233.966 225.609C233.794 225.4 233.619 225.201 233.435 225.001C233.145 225.238 232.855 225.476 232.565 225.713C232.712 225.918 232.849 226.12 232.983 226.33C235.401 230.021 235.81 235.084 234.063 238.569C233.966 238.739 233.861 238.895 233.767 239.003Z" fill="black"/>
<path d="M243.734 237.776C244.452 238.471 245.17 239.167 245.888 239.863C246.13 239.59 246.325 239.312 246.492 239.041C249.079 234.231 248.531 228.804 246.118 224.594C245.982 224.36 245.843 224.135 245.694 223.907C245.369 224.094 245.044 224.281 244.719 224.468C244.831 224.694 244.933 224.916 245.031 225.145C246.813 229.181 246.39 234.243 244.096 237.396C243.974 237.547 243.844 237.685 243.734 237.776Z" fill="black"/>
<path d="M251.896 236.945C252.614 237.641 253.332 238.337 254.05 239.033C254.293 238.759 254.487 238.481 254.655 238.21C257.242 233.4 256.693 227.974 254.281 223.763C254.145 223.529 254.005 223.304 253.857 223.077C253.531 223.264 253.206 223.45 252.881 223.637C252.993 223.863 253.095 224.085 253.194 224.314C254.975 228.351 254.552 233.413 252.259 236.565C252.136 236.717 252.006 236.854 251.896 236.945Z" fill="black"/>
<path d="M161.006 232.197C162.335 232.304 163.665 232.41 164.994 232.516C165.018 231.947 164.986 231.402 164.916 230.866C163.125 220.945 153.031 217.784 145.415 217.202C144.977 217.166 144.531 217.135 144.075 217.111C144.025 217.608 143.975 218.106 143.925 218.603C144.363 218.668 144.79 218.738 145.206 218.813C152.644 219.959 160.76 224.41 161.057 231.22C161.068 231.565 161.051 231.897 161.006 232.197Z" fill="black"/>
<path d="M256.124 176.017C249.579 183.474 239.941 189.915 226.024 193.357" stroke="black" stroke-width="4" stroke-linecap="round"/>
<path d="M166.112 213.357C160.214 214.237 154.164 214.421 148.524 213.392" stroke="black" stroke-width="4" stroke-linecap="round"/>
<path d="M213.244 130.053C213.423 130.115 213.625 130.102 213.801 130.022C213.978 129.941 214.116 129.8 214.187 129.624C214.258 129.448 214.257 129.251 214.185 129.07C214.113 128.89 213.977 128.741 213.805 128.661C213.805 128.661 213.805 128.661 213.805 128.661C213.431 128.488 213.053 128.301 212.684 128.106C206.036 124.507 200.837 118.604 197.474 112.022C197.285 111.652 197.106 111.287 196.929 110.912C196.701 110.432 196.295 110.072 195.787 109.919C195.279 109.766 194.711 109.831 194.221 110.094C193.73 110.357 193.362 110.794 193.209 111.302C193.055 111.81 193.13 112.347 193.403 112.802C193.637 113.193 193.87 113.571 194.114 113.953C198.481 120.767 204.616 126.459 211.998 129.579C212.409 129.747 212.828 129.907 213.244 130.053Z" fill="black"/>
<path d="M295.588 102.5C324.088 101.071 313.12 58.7662 299.478 55.0623C289.62 52.3858 278.12 63.386 277.088 75.0002C275.406 93.9256 279.62 103.301 295.588 102.5Z" fill="white"/>
<path d="M295.588 102.5C297.913 102.513 300.13 102.268 302.371 101.577C312.199 98.9357 315.864 87.0354 314.675 77.7636C313.361 68.471 310.669 57.7202 299.999 53.1438C298.003 52.5895 295.895 52.5297 293.911 52.8669C283.298 55.1394 276.341 64.769 275.44 74.8538C275.116 80.4094 275.042 86.0834 276.646 91.6365C278.008 97.2464 283.106 102.02 288.753 102.484C291.034 102.806 293.329 102.745 295.588 102.5C293.316 102.48 291.05 102.28 288.899 101.738C276.994 99.2571 277.617 85.1663 278.736 75.1467C279.791 66.675 286.52 58.3826 294.574 56.8116C296.058 56.5609 297.549 56.6051 298.957 56.9807C312.068 63.8573 319.667 92.2089 302.109 100.864C300.04 101.748 297.899 102.247 295.588 102.5ZM295.588 102.5" fill="black"/>
<path d="M235.889 106.919C264.389 105.489 266.389 64.5552 247.39 55.9189C229.889 47.9643 212.981 58.2915 209.39 75.4189C205.49 94.0145 219.921 107.72 235.889 106.919Z" fill="white"/>
<path d="M235.889 106.919C238.676 106.913 241.461 106.508 244.122 105.604C264.3 98.646 268.537 65.616 248.192 54.1528C243.613 52.0156 238.434 50.8791 233.282 51.2648C220.406 51.9735 209.793 62.9423 207.784 75.0821C204.509 88.8591 214.195 103.891 227.579 106.409C230.318 107.023 233.133 107.191 235.889 106.919C233.119 106.925 230.377 106.501 227.777 105.675C215.05 101.948 207.626 87.9161 210.996 75.7558C213.321 64.8823 222.639 55.8748 233.574 55.2542C237.98 54.9255 242.469 55.849 246.587 57.685C263.123 66.0438 262.543 96.6542 243.847 104.895C241.358 105.991 238.663 106.647 235.889 106.919ZM235.889 106.919" fill="black"/>
<path d="M256 81.8569C256 89.8651 248.125 96.3569 245.5 96.3569C242.875 96.3569 235 89.8651 235 81.8569C235 73.8488 242.875 67.3569 245.5 67.3569C248.125 67.3569 256 73.8488 256 81.8569Z" fill="black"/>
<path d="M311 81.8569C311 89.8651 303.125 96.3569 300.5 96.3569C297.875 96.3569 290 89.8651 290 81.8569C290 73.8488 297.875 67.3569 300.5 67.3569C303.125 67.3569 311 73.8488 311 81.8569Z" fill="black"/>
<path d="M299.959 73.3867C298.371 73.2874 297.205 73.4348 296.579 73.8598C296.022 74.2379 295.748 74.6896 295.448 75.1627C294.879 76.06 294.995 77.2939 295.044 78.0702C295.079 78.6178 295.444 78.9022 295.745 79.1023C296.045 79.3024 296.496 79.4544 297.096 79.4799C297.709 79.506 298.103 79.1053 298.278 78.8052C298.612 78.2328 298.855 77.6023 298.981 76.7748C299.083 76.1037 299.806 75.6464 300.209 74.9942C300.318 74.8179 300.26 74.5451 300.211 74.3428C300.161 74.1404 300.062 73.9915 299.862 73.9147C298.971 73.5731 298.308 74.4368 297.355 75.1891C296.665 75.7346 296.701 76.5431 296.625 77.8949C296.608 78.2001 296.55 78.3485 296.5 78.3012C296.272 78.0874 296.349 77.5512 296.398 77.1758C296.501 76.3955 297.399 75.8962 298.001 75.3944C298.503 74.9765 299.204 74.9423 299.807 74.7415C299.958 74.6911 300.107 74.6414 300.01 74.6158C299.579 74.5024 299.058 74.6896 298.758 74.9393C298.062 75.5182 297.757 76.8892 297.502 77.9476C297.464 78.1035 297.7 78.15 297.801 78.0514C298.333 77.5355 298.753 76.6033 299.081 75.7961C299.329 75.1854 299.908 75.0431 299.984 74.7678C300.156 74.1449 298.759 74.2894 298.283 74.3887C297.503 74.5513 297.454 75.7412 297.054 76.0181C296.836 76.1682 296.8 75.3455 296.85 74.8197C296.925 74.0196 298.151 73.8892 298.754 73.6883C299.054 73.5883 299.753 73.5371 300.581 73.7357C300.916 73.8161 300.862 74.3315 300.788 74.5609C300.564 74.84 300.262 74.9408 299.838 75.016C299.562 75.0416 299.165 75.0416 298.756 75.0416" stroke="white" stroke-width="2" stroke-linecap="round"/>
<path d="M302.818 77.5992C302.818 77.4999 302.868 77.2501 303.042 76.9492C303.123 76.8096 303.366 76.8469 303.493 76.9214C303.62 76.9959 303.67 77.1448 303.621 77.2712C303.572 77.3976 303.423 77.4969 303.119 77.5992" stroke="white" stroke-width="2" stroke-linecap="round"/>
<path d="M263.141 112.815C262.341 116.015 265.141 120.815 266.641 122.815C268.641 123.815 267.641 121.815 269.141 119.315C270.641 116.815 269.141 114.315 267.641 114.315C266.141 114.315 264.141 108.815 263.141 112.815Z" fill="white" stroke="black"/>
<path d="M87.4999 192.857C86.9999 184.857 86.4998 170.357 90.9998 160.857" stroke="black" stroke-width="4"/>
<path d="M131.83 221.127C131.943 221.613 132.057 222.1 132.17 222.587C133.728 222.395 135.281 222.09 136.813 221.676C142.93 220.03 148.707 216.616 153.046 211.795C161.062 203.105 163.746 190.645 162.316 179.413L162.32 179.451C161.813 167.886 151.874 159.621 142.523 155.622C141.129 154.957 139.729 154.321 138.335 153.686C138.112 154.133 137.888 154.581 137.665 155.028C139.011 155.763 140.356 156.492 141.683 157.239C150.757 161.972 158.787 169.58 158.907 179.709L158.91 179.747C159.86 190.4 157.192 201.376 150.076 209.115C146.203 213.407 141.397 216.888 135.995 219.42C134.642 220.052 133.252 220.623 131.83 221.127Z" fill="black"/>
<path d="M226.505 221.131C227.785 220.758 229.065 220.386 230.345 220.013C230.129 219.346 229.915 218.629 229.719 217.936C226.391 205.267 224.571 191.448 228.288 178.718C228.508 178.023 228.754 177.328 229.02 176.651C228.56 176.455 228.1 176.259 227.64 176.062C227.322 176.755 227.024 177.469 226.754 178.184C222.142 191.309 223.239 205.473 225.962 218.884C226.127 219.625 226.313 220.397 226.505 221.131Z" fill="black"/>
<path d="M234.328 237.26C235.443 237.991 236.557 238.723 237.672 239.454C237.956 238.983 238.223 238.484 238.455 238.002C240.382 233.744 241.919 228.324 238.751 223.677C235.208 219.301 229.751 219.572 225.429 219.925C224.942 219.977 224.441 220.038 223.925 220.111C223.975 220.608 224.025 221.106 224.075 221.603C224.577 221.574 225.062 221.555 225.531 221.547C229.724 221.459 234.592 222.139 236.49 225.241C238.34 228.3 237.009 232.79 235.035 236.181C234.813 236.554 234.567 236.933 234.328 237.26Z" fill="black"/>
<path d="M208.5 102.857C207.797 102.601 207.08 102.372 206.341 102.158C199.776 100.297 192.898 99.6098 186.066 99.7687C179.237 99.9438 172.407 101.053 165.933 103.154C165.211 103.388 164.501 103.633 163.787 103.892C164.536 103.762 165.274 103.641 166.021 103.524C172.716 102.483 179.416 101.942 186.117 101.768C192.823 101.615 199.544 101.742 206.264 102.53C207.022 102.626 207.763 102.73 208.5 102.857Z" fill="black"/>
<path d="M305 112.357C305.612 112.44 306.257 112.539 306.869 112.646C312.47 113.642 317.887 115.131 323.115 117.072C328.324 119.038 333.368 121.495 337.707 125.151C338.187 125.559 338.657 125.98 339.116 126.419C338.759 125.894 338.38 125.383 337.979 124.886C334.354 120.395 329.21 117.221 323.817 115.199C318.395 113.183 312.637 112.189 306.898 112.267C306.272 112.28 305.616 112.307 305 112.357Z" fill="black"/>
<path d="M223.358 11.7203C222.453 12.1447 221.547 12.5691 220.642 12.9936C220.928 13.5451 221.225 14.1338 221.504 14.697C225.555 23.3938 230.162 32.414 230.597 42.0061L231.137 41.8819C230.069 40.3233 228.913 38.8253 227.559 37.5123C227.087 37.0695 226.586 36.6322 226 36.3569C226.561 36.6763 227.019 37.1442 227.451 37.617C228.684 39.0124 229.715 40.5868 230.639 42.1889L231.11 42.9187L231.179 42.0647C231.486 32.026 227.531 22.7112 224.105 13.5311C223.865 12.9347 223.607 12.3107 223.358 11.7203Z" fill="black"/>
<path d="M291.697 8.61379C292.566 9.10922 293.434 9.60465 294.303 10.1001C293.884 10.7832 293.439 11.4699 293.001 12.129C287.424 20.9292 279.58 29.1819 278.42 39.3055L277.662 39.1031C278.226 38.5134 278.788 38.6182 279.266 38.5974C279.753 38.611 280.223 38.6779 280.68 38.7568C281.593 38.9179 282.49 39.1411 283.374 39.3705C285.148 39.8299 286.891 40.3606 288.676 40.7316C289.438 40.8673 290.245 41.068 291 40.8569C290.254 41.118 289.425 40.9671 288.651 40.8795C285.174 40.4693 281.005 38.8291 278.338 39.6108L277.686 40.4433L277.58 39.4083C278.172 28.2581 285.654 19.7392 290.578 10.6285C290.962 9.96035 291.35 9.27184 291.697 8.61379Z" fill="black"/>
<path d="M299.5 52.3569C299.306 52.0513 299.089 51.7367 298.875 51.4366C296.916 48.7171 294.5 46.3403 291.74 44.4258C288.984 42.5323 285.808 41.0394 282.433 40.6669C282.062 40.6284 281.685 40.6044 281.317 40.5996C281.66 40.7352 282.002 40.8815 282.334 41.0336C285.321 42.4274 287.943 44.2524 290.604 46.0715C293.25 47.9084 295.906 49.7733 298.606 51.7045C298.902 51.9177 299.208 52.1424 299.5 52.3569Z" fill="black"/>
<path d="M265.822 37.1021C265.274 37.9387 264.726 38.7752 264.178 39.6118C264.322 39.6872 264.469 39.7616 264.617 39.8333C267.181 40.8914 270.166 42.4235 273.191 40.5589C273.334 40.4388 273.464 40.3068 273.581 40.163C273.311 39.903 273.04 39.6429 272.77 39.3829C272.68 39.4538 272.587 39.5128 272.489 39.563C270.596 40.3357 268.005 38.7527 266.13 37.3524C266.024 37.2689 265.919 37.1846 265.822 37.1021Z" fill="black"/>
<path d="M247.061 73.1984C245.473 73.0991 244.307 73.2466 243.681 73.6716C243.124 74.0496 242.85 74.5013 242.55 74.9745C241.981 75.8718 242.096 77.1056 242.146 77.882C242.181 78.4295 242.546 78.714 242.846 78.9141C243.147 79.1142 243.598 79.2661 244.198 79.2917C244.81 79.3178 245.205 78.9171 245.38 78.6169C245.714 78.0446 245.957 77.4141 246.083 76.5866C246.184 75.9155 246.908 75.4582 247.311 74.806C247.42 74.6297 247.362 74.3569 247.313 74.1545C247.263 73.9522 247.164 73.8032 246.963 73.7265C246.073 73.3849 245.409 74.2486 244.457 75.0008C243.766 75.5464 243.803 76.3549 243.727 77.7067C243.709 78.0119 243.652 78.1603 243.602 78.1129C243.374 77.8991 243.45 77.3629 243.5 76.9875C243.603 76.2072 244.501 75.708 245.103 75.2062C245.605 74.7883 246.306 74.7541 246.909 74.5532C247.06 74.5028 247.209 74.4532 247.112 74.4276C246.681 74.3141 246.16 74.5013 245.86 74.7511C245.164 75.33 244.859 76.7009 244.604 77.7594C244.566 77.9152 244.802 77.9617 244.903 77.8632C245.435 77.3473 245.855 76.4151 246.183 75.6079C246.431 74.9972 247.01 74.8549 247.086 74.5796C247.258 73.9567 245.861 74.1011 245.385 74.2004C244.605 74.3631 244.556 75.553 244.155 75.8298C243.938 75.98 243.902 75.1573 243.951 74.6315C244.027 73.8313 245.253 73.7009 245.855 73.5001C246.156 73.4 246.855 73.3489 247.683 73.5475C248.018 73.6278 247.964 74.1433 247.89 74.3727C247.666 74.6518 247.364 74.7526 246.939 74.8278C246.664 74.8534 246.267 74.8534 245.858 74.8534" stroke="white" stroke-width="2" stroke-linecap="round"/>
<path d="M249.92 77.4109C249.92 77.3117 249.97 77.0619 250.144 76.761C250.225 76.6214 250.468 76.6587 250.595 76.7332C250.722 76.8076 250.771 76.9566 250.723 77.083C250.674 77.2093 250.525 77.3086 250.221 77.4109" stroke="white" stroke-width="2" stroke-linecap="round"/>
</svg>
