<svg width="241" height="311" viewBox="0 0 241 311" fill="none" xmlns="http://www.w3.org/2000/svg">
<path d="M77.8916 296.386C73.1767 297.548 63.0724 298.932 59.5 295.359C55.5074 291.367 51.1212 279.109 68.6909 276.744C47.6909 245.744 59.9999 229.859 64.4999 219.359C68.0999 210.959 68 205.359 67 201.359C61.4 179.359 67.5 161.859 71 154.859L71.0711 154.641C49.6038 144.28 27.3001 120.197 45.021 75.8904L45 75.8594C43.6667 59.8594 44.5384 23.6594 58.9384 2.85938C69.4384 10.8594 91.1384 29.9594 93.9384 42.3594C100.438 41.1927 116.438 39.5594 128.438 42.3594C137.31 29.2953 157.285 3.78255 167.438 6.85938C178.238 23.2594 177.938 61.2841 176.438 78.2465C193.551 122.872 170.154 145.685 148.5 154.773L148.5 154.859C149.181 165.073 155.189 190.286 173.772 209.43C186.645 222.692 190.361 248.241 184.696 269.241C195.03 269.074 216.8 269.159 220 270.359C224 271.859 238.5 270.859 239 291.359C239.5 311.859 196.584 311.941 195.292 301.65C194.547 295.719 204.265 291.975 212.229 288.548C205.062 290.471 186.774 288.919 175.703 288.359C170.095 295.803 162.437 301.025 152.707 302.324C146.245 303.533 139.788 302.054 137.919 293.952C137.919 300.452 137 300.359 134.883 302.346C128.765 305.833 121 306.359 113 305.359C106.6 304.559 105.333 300.401 105.5 298.234C105.244 298.879 104.915 299.581 104.5 300.359C101.3 306.359 88.1667 305.193 82 303.859C79.676 301.187 78.421 298.672 77.8916 296.386Z" fill="#EFEFEF"/>
<path d="M77.8916 296.386C77.8558 296.395 77.9281 296.377 77.8916 296.386ZM77.8916 296.386C73.1767 297.548 63.0724 298.932 59.5 295.359C55.5074 291.367 51.1212 279.109 68.6909 276.744M68.6909 276.744C68.9556 276.709 69.2253 276.675 69.5 276.644M68.6909 276.744C47.6909 245.744 59.9999 229.859 64.4999 219.359C68.0999 210.959 68 205.359 67 201.359M103.485 256.859C103.754 267.409 104.5 278.443 104.5 283.359C104.5 288.982 106.061 291.287 106.258 294.053M106.258 294.053C106.658 289.653 110.333 286.859 112 285.859L114.75 253.859L115.137 249.359M106.258 294.053C106.343 295.256 106.171 296.546 105.5 298.234M138.195 283.359C137.788 284.053 137.545 284.88 137.5 285.859C137.346 287.81 137.347 289.556 137.483 291.115M145.813 241.859C141.345 260.919 136.157 280.299 135.599 283.446C134.877 287.516 136.548 290.173 137.483 291.115M137.483 291.115C137.572 292.14 137.719 293.084 137.919 293.952M175.703 288.359C188.289 288.995 210.203 290.915 214.5 287.551M175.703 288.359C170.095 295.803 162.437 301.025 152.707 302.324C146.245 303.533 139.788 302.054 137.919 293.952M175.703 288.359C179.783 282.945 182.778 276.354 184.696 269.241M137.919 293.952C137.919 300.452 137 300.359 134.883 302.346C128.765 305.833 121 306.359 113 305.359C106.6 304.559 105.333 300.401 105.5 298.234M105.5 298.234C105.244 298.879 104.915 299.581 104.5 300.359C101.3 306.359 88.1667 305.193 82 303.859C74 294.659 78.6667 287.325 82 284.807C85.8659 274.609 75.2536 233.732 68.2184 206.177C67.9744 205.221 67.2347 202.281 67 201.359M71.0711 154.641L71 154.859C67.5 161.859 61.4 179.359 67 201.359M71.0711 154.641C71.9613 155.07 72.85 155.476 73.7345 155.859M71.0711 154.641C49.6038 144.28 27.3001 120.197 45.021 75.8904M45.021 75.8904C45.1004 75.6919 45.1806 75.493 45.2616 75.2937M45.021 75.8904L45 75.8594C43.6667 59.8594 44.5384 23.6594 58.9384 2.85938C69.4384 10.8594 91.1384 29.9594 93.9384 42.3594C100.438 41.1927 116.438 39.5594 128.438 42.3594C137.31 29.2953 157.285 3.78255 167.438 6.85938C178.238 23.2594 177.938 61.2841 176.438 78.2465M176.438 78.2465C176.325 77.9518 176.211 77.656 176.094 77.3594M176.438 78.2465C193.551 122.872 170.154 145.685 148.5 154.773M146.5 155.576C147.164 155.321 147.831 155.054 148.5 154.773M148.5 154.773L148.5 154.859C149.181 165.073 155.189 190.286 173.772 209.43C186.645 222.692 190.361 248.241 184.696 269.241M214.923 287.359C206.672 291.133 194.46 295.027 195.292 301.65C196.584 311.941 239.5 311.859 239 291.359C238.5 270.859 224 271.859 220 270.359C216.8 269.159 195.03 269.074 184.696 269.241" stroke="black" stroke-width="4" stroke-linecap="round"/>
<path d="M172.5 119.359C173.227 119.36 173.964 119.35 174.699 119.335C181.301 119.175 187.84 118.66 194.268 119.18C200.68 119.667 207.009 121.29 212.645 124.682C213.28 125.061 213.882 125.442 214.5 125.859C213.967 125.339 213.438 124.854 212.866 124.373C207.812 120.037 201.096 117.67 194.427 117.186C187.716 116.649 181.115 117.729 174.66 118.957C173.938 119.092 173.215 119.227 172.5 119.359Z" fill="black"/>
<path d="M52 131.859C51.4192 131.733 50.8035 131.587 50.2249 131.448C44.9357 130.122 39.2834 129.282 33.7088 130.362C28.1431 131.37 22.9602 134.499 19.5843 138.874C19.2027 139.358 18.8507 139.843 18.5 140.359C18.9523 139.93 19.3958 139.533 19.8584 139.137C23.9951 135.569 28.8932 133.29 34.0844 132.326C39.2766 131.316 44.6904 131.559 50.1735 131.824C50.7694 131.845 51.4053 131.865 52 131.859Z" fill="black"/>
<path d="M115.574 108.731C116.833 113.304 112.383 115.692 110 116.314C104.8 115.649 102.265 112.494 101.647 111C104.966 106.749 112.314 107.716 115.574 108.731Z" fill="black"/>
<path d="M110 116.314C112.383 115.692 116.833 113.304 115.574 108.731C112.314 107.716 104.966 106.749 101.647 111C102.265 112.494 104.8 115.649 110 116.314ZM110 116.314L110 123.359M110 123.359C108 126.859 104.147 131.859 103 136.359M110 123.359C111.5 126.859 115 133.359 115 136.859" stroke="black" stroke-width="3"/>
<path d="M147 120.859C175.5 119.43 177.5 78.4958 158.5 69.8596C141 61.905 124.092 72.2322 120.501 89.3596C116.601 107.955 131.032 121.66 147 120.859Z" fill="white"/>
<path d="M147 120.859C149.787 120.854 152.572 120.449 155.233 119.544C175.41 112.587 179.648 79.5566 159.303 68.0935C154.724 65.9563 149.545 64.8198 144.393 65.2055C131.517 65.9142 120.904 76.883 118.894 89.0228C115.62 102.8 125.305 117.831 138.69 120.35C141.429 120.964 144.244 121.132 147 120.859C144.23 120.865 141.488 120.441 138.888 119.616C126.161 115.888 118.737 101.857 122.107 89.6964C124.431 78.823 133.75 69.8154 144.684 69.1949C149.091 68.8662 153.58 69.7897 157.698 71.6257C174.234 79.9845 173.654 110.595 154.958 118.836C152.469 119.932 149.774 120.588 147 120.859ZM147 120.859" fill="black"/>
<path d="M77.3891 120.421C105.889 118.992 107.889 78.0576 88.8893 69.4214C71.3891 61.4668 54.4812 71.7939 50.8895 88.9214C46.99 107.517 61.4207 121.222 77.3891 120.421Z" fill="white"/>
<path d="M77.3891 120.421C80.1758 120.416 82.9607 120.011 85.622 119.106C105.799 112.148 110.037 79.1184 89.6921 67.6553C85.1127 65.5181 79.9338 64.3816 74.7821 64.7673C61.9062 65.4759 51.2932 76.4448 49.2834 88.5846C46.0085 102.362 55.6943 117.393 69.079 119.912C71.8182 120.526 74.6325 120.694 77.3891 120.421C74.6189 120.427 71.8765 120.003 69.2768 119.178C56.5496 115.45 49.1255 101.419 52.4956 89.2582C54.8203 78.3848 64.1388 69.3772 75.0733 68.7567C79.4797 68.428 83.9689 69.3514 88.0865 71.1875C104.623 79.5463 104.043 110.157 85.3472 118.398C82.8575 119.493 80.1631 120.15 77.3891 120.421ZM77.3891 120.421" fill="black"/>
<ellipse cx="80.5" cy="89.3594" rx="4" ry="10.5" fill="black"/>
<ellipse cx="139.5" cy="89.3594" rx="4" ry="10.5" fill="black"/>
<path d="M85.8399 160.592C86.0201 160.613 86.2095 160.558 86.3642 160.448C86.519 160.337 86.6264 160.181 86.6651 160.004C86.7037 159.827 86.671 159.641 86.5763 159.476C86.4815 159.312 86.3324 159.182 86.1598 159.126C86.1598 159.126 86.1598 159.126 86.1598 159.126C85.9574 159.061 85.7541 158.994 85.5518 158.926C81.9114 157.701 78.4109 156.139 75.0823 154.329C74.897 154.228 74.7133 154.127 74.529 154.024C74.0629 153.766 73.5305 153.715 73.0369 153.911C72.544 154.105 72.1304 154.53 71.899 155.065C71.6676 155.599 71.6407 156.192 71.8362 156.684C72.0311 157.178 72.4323 157.532 72.9397 157.695C72.9397 157.695 72.9397 157.695 72.9397 157.695C73.1517 157.764 73.3626 157.831 73.5749 157.898C77.3884 159.1 81.2735 159.991 85.1875 160.51C85.405 160.538 85.6231 160.566 85.8399 160.592Z" fill="black"/>
<path d="M134.803 158.122C134.631 158.173 134.48 158.299 134.382 158.46C134.283 158.621 134.244 158.804 134.277 158.981C134.309 159.157 134.41 159.315 134.559 159.431C134.709 159.546 134.894 159.61 135.074 159.597C135.074 159.597 135.074 159.597 135.074 159.597C135.267 159.583 135.46 159.568 135.653 159.553C139.129 159.291 142.668 158.779 146.138 157.878C146.332 157.828 146.522 157.779 146.716 157.727C147.232 157.591 147.65 157.26 147.866 156.775C148.082 156.291 148.078 155.693 147.867 155.143C147.656 154.593 147.259 154.146 146.775 153.931C146.29 153.714 145.758 153.747 145.284 153.992C145.284 153.992 145.284 153.992 145.284 153.992C145.117 154.078 144.954 154.162 144.787 154.246C141.807 155.765 138.647 156.965 135.352 157.956C135.17 158.012 134.987 158.067 134.803 158.122Z" fill="black"/>
<path d="M118.247 221.924C118.255 221.733 118.184 221.544 118.056 221.398C117.927 221.252 117.751 221.161 117.561 221.145C117.372 221.129 117.183 221.188 117.031 221.31C116.88 221.432 116.778 221.606 116.753 221.795C116.753 221.795 116.753 221.795 116.753 221.795C116.693 222.252 116.632 222.708 116.572 223.165C115.49 231.383 114.407 239.601 113.324 247.818C113.264 248.275 113.204 248.732 113.144 249.188C113.074 249.715 113.22 250.238 113.561 250.643C113.903 251.049 114.413 251.305 114.965 251.352C115.518 251.4 116.064 251.235 116.47 250.893C116.876 250.552 117.108 250.061 117.129 249.531C117.129 249.531 117.129 249.531 117.129 249.531C117.148 249.071 117.167 248.61 117.185 248.15C117.521 239.868 117.856 231.586 118.191 223.304C118.21 222.844 118.229 222.384 118.247 221.924Z" fill="black"/>
<path d="M71.6779 298.429C71.8195 298.653 72.0427 298.808 72.3038 298.855C72.5645 298.903 72.8419 298.839 73.0693 298.682C73.2967 298.524 73.4541 298.287 73.5014 298.026C73.549 297.765 73.4826 297.502 73.3223 297.29C73.3223 297.29 73.3223 297.29 73.3223 297.29C73.2011 297.134 73.0798 296.953 72.9702 296.772C70.8902 293.321 71.5847 288.504 74.3205 285.173C74.4658 284.986 74.6158 284.801 74.7749 284.615C74.8368 284.542 74.8674 284.446 74.8618 284.348C74.856 284.251 74.8145 284.161 74.7447 284.096C74.6748 284.031 74.5818 283.996 74.4843 283.998C74.387 283.999 74.2932 284.037 74.2253 284.104C74.2253 284.104 74.2253 284.104 74.2253 284.104C74.0435 284.285 73.8702 284.464 73.7009 284.648C70.5521 287.874 69.0791 293.208 71.2654 297.692C71.3858 297.937 71.5248 298.189 71.6779 298.429Z" fill="black"/>
<path d="M96.6778 304.429C96.8186 304.654 97.0412 304.809 97.3023 304.856C97.5631 304.904 97.841 304.84 98.0692 304.682C98.2974 304.524 98.4554 304.286 98.5027 304.025C98.5503 303.764 98.4833 303.501 98.3222 303.29C98.3222 303.29 98.3222 303.29 98.3222 303.29C98.2328 303.179 98.1619 303.064 98.1034 302.93C97.6117 299.866 98.8324 294.965 97.9821 290.996C97.9483 290.772 97.9117 290.544 97.8723 290.313C97.8562 290.219 97.8018 290.134 97.7238 290.076C97.6456 290.018 97.5501 289.992 97.4558 290.004C97.3615 290.016 97.2753 290.065 97.2138 290.14C97.1524 290.215 97.1207 290.311 97.1281 290.406C97.1281 290.406 97.1281 290.406 97.1281 290.406C97.1462 290.635 97.1614 290.86 97.1739 291.08C97.2922 293.102 97.2049 295.118 96.9041 297.099C96.7171 299.14 95.7261 300.847 96.277 303.577C96.3704 303.873 96.5061 304.163 96.6778 304.429Z" fill="black"/>
<path d="M128.178 304.929C128.317 305.155 128.538 305.311 128.799 305.358C129.06 305.406 129.339 305.341 129.569 305.182C129.799 305.022 129.959 304.784 130.006 304.523C130.054 304.262 129.985 304 129.822 303.79C129.822 303.79 129.822 303.79 129.822 303.79C129.709 303.645 129.614 303.518 129.533 303.393C129.352 303.095 129.316 303.06 129.311 302.666C129.316 302.293 129.355 301.814 129.364 301.361C129.386 300.447 129.341 299.534 129.261 298.648C129.1 296.875 128.811 295.106 128.484 293.391C128.448 293.2 128.41 293.005 128.371 292.806C128.353 292.714 128.297 292.63 128.218 292.574C128.138 292.518 128.043 292.494 127.95 292.507C127.856 292.521 127.772 292.571 127.711 292.647C127.651 292.723 127.62 292.818 127.629 292.912C127.629 292.912 127.629 292.912 127.629 292.912C127.647 293.113 127.664 293.309 127.679 293.501C127.818 295.223 127.917 296.99 127.887 298.698C127.872 299.552 127.822 300.408 127.712 301.236C127.659 301.658 127.581 302.047 127.519 302.545C127.425 303.023 127.57 303.881 127.84 304.336C127.954 304.561 128.06 304.739 128.178 304.929Z" fill="black"/>
<path d="M152.375 301.579C152.161 301.735 152.022 301.969 151.993 302.233C151.964 302.496 152.046 302.768 152.219 302.984C152.392 303.2 152.639 303.341 152.903 303.37C153.166 303.399 153.425 303.315 153.625 303.14C153.625 303.14 153.625 303.14 153.625 303.14C153.875 302.926 154.105 302.685 154.307 302.381C155.241 300.865 154.703 299.477 154.505 298.42C154.241 297.318 153.971 296.256 153.776 295.188C153.376 293.044 153.242 290.841 153.334 288.637C153.344 288.395 153.357 288.149 153.373 287.899C153.379 287.803 153.346 287.708 153.283 287.633C153.22 287.559 153.133 287.512 153.038 287.502C152.943 287.492 152.847 287.52 152.77 287.58C152.693 287.639 152.641 287.726 152.627 287.82C152.627 287.82 152.627 287.82 152.627 287.82C152.59 288.074 152.556 288.323 152.525 288.569C152.241 290.807 152.185 293.105 152.414 295.379C152.539 297.521 153.499 300.35 152.722 301.266C152.633 301.375 152.522 301.474 152.375 301.579Z" fill="black"/>
<path d="M101.485 256.91C101.468 257.441 101.664 257.945 102.049 258.311C102.433 258.676 102.974 258.873 103.536 258.859C104.097 258.844 104.627 258.62 104.992 258.236C105.358 257.851 105.529 257.338 105.484 256.808C105.484 256.808 105.484 256.808 105.484 256.808C105.454 256.451 105.425 256.095 105.396 255.737C104.928 249.328 104.358 242.833 105.056 236.568C105.103 236.228 105.16 235.88 105.225 235.55C105.262 235.366 105.223 235.169 105.12 235.005C105.018 234.841 104.862 234.723 104.68 234.675C104.498 234.627 104.304 234.653 104.134 234.746C103.965 234.838 103.833 234.99 103.775 235.169C103.775 235.169 103.775 235.169 103.775 235.169C103.66 235.522 103.556 235.891 103.463 236.249C101.964 242.77 101.807 249.308 101.522 255.824C101.509 256.187 101.497 256.548 101.485 256.91Z" fill="black"/>
<path d="M143.866 241.403C143.724 241.914 143.795 242.454 144.075 242.904C144.354 243.355 144.819 243.681 145.357 243.807C145.894 243.933 146.455 243.848 146.906 243.568C147.357 243.289 147.66 242.837 147.76 242.316C147.76 242.316 147.76 242.316 147.76 242.316C147.861 241.796 147.96 241.278 148.06 240.758C149.825 231.408 151.571 222.041 152.596 212.539C152.65 212.008 152.7 211.477 152.745 210.952C152.761 210.762 152.698 210.569 152.576 210.418C152.453 210.266 152.28 210.168 152.09 210.144C151.9 210.12 151.708 210.173 151.552 210.29C151.395 210.406 151.288 210.578 151.256 210.766C151.256 210.766 151.256 210.766 151.256 210.766C151.172 211.276 151.081 211.794 150.987 212.312C149.239 221.58 146.771 230.744 144.285 239.881C144.146 240.389 144.006 240.895 143.866 241.403Z" fill="black"/>
<path d="M174.233 78.0909C174.385 78.601 174.73 79.0118 175.217 79.2234C175.703 79.4356 176.29 79.4313 176.826 79.2208C177.361 79.0104 177.794 78.6138 178.005 78.1278C178.218 77.6412 178.191 77.1051 177.955 76.6279C177.955 76.6279 177.955 76.6279 177.955 76.6279C177.815 76.3299 177.684 76.0955 177.551 75.8582C175.158 71.7769 172.378 68.1371 169.109 64.8884C168.927 64.7095 168.743 64.5328 168.557 64.3577C168.424 64.232 168.237 64.1636 168.046 64.1613C167.855 64.1594 167.675 64.2239 167.538 64.3466C167.402 64.4693 167.319 64.6418 167.301 64.8322C167.283 65.0223 167.332 65.2147 167.443 65.3611C167.443 65.3611 167.443 65.3611 167.443 65.3611C167.59 65.5566 167.736 65.7531 167.88 65.9514C170.445 69.5185 172.526 73.5058 174.038 77.4943C174.114 77.7053 174.195 77.9372 174.233 78.0909Z" fill="black"/>
<path d="M43.4089 74.5407C43.17 75.0161 43.1393 75.5528 43.3462 76.0417C43.5518 76.5302 43.9781 76.9309 44.5087 77.1465C45.0393 77.3622 45.6243 77.3725 46.1123 77.1659C46.6017 76.96 46.954 76.5541 47.1145 76.0467C47.1145 76.0467 47.1145 76.0467 47.1145 76.0467C47.1151 75.9876 47.2313 75.707 47.3184 75.5033C49.1651 71.4538 51.8408 67.4766 55.3222 64.4712C55.5172 64.3051 55.7149 64.1426 55.916 63.9834C56.0609 63.8692 56.1566 63.695 56.1869 63.506C56.217 63.3167 56.179 63.1281 56.0769 62.9748C55.9747 62.8215 55.8152 62.714 55.6289 62.6689C55.4428 62.6242 55.2451 62.6456 55.084 62.7353C55.084 62.7353 55.084 62.7353 55.084 62.7353C54.8442 62.8702 54.6073 63.0092 54.3725 63.1526C50.1502 65.788 46.723 69.4284 43.9056 73.668C43.7443 73.9296 43.606 74.1304 43.4089 74.5407Z" fill="black"/>
<path d="M69.2753 274.657C68.7374 274.621 68.2462 274.804 67.9158 275.221C67.5851 275.634 67.4423 276.247 67.5127 276.869C67.5831 277.491 67.859 278.057 68.2737 278.386C68.6887 278.718 69.2085 278.786 69.7247 278.631C69.7247 278.631 69.7247 278.631 69.7247 278.631C69.8323 278.598 69.9409 278.566 70.0495 278.533C72.0055 277.953 74.056 277.513 76.138 277.166C76.2542 277.147 76.3692 277.128 76.4858 277.109C76.6529 277.082 76.8146 276.98 76.935 276.842C77.0555 276.703 77.1247 276.54 77.1279 276.371C77.1311 276.202 77.068 276.037 76.9529 275.894C76.8378 275.751 76.68 275.643 76.5141 275.61C76.5141 275.61 76.5141 275.61 76.5141 275.61C76.3958 275.586 76.2789 275.564 76.1604 275.541C74.0381 275.138 71.8752 274.825 69.6472 274.679C69.5233 274.671 69.3991 274.664 69.2753 274.657Z" fill="black"/>
<path d="M136.471 282.346C136.179 282.79 136.083 283.323 136.217 283.837C136.35 284.35 136.702 284.801 137.182 285.084C137.662 285.366 138.228 285.454 138.741 285.32C139.255 285.187 139.674 284.844 139.92 284.373C139.92 284.373 139.92 284.373 139.92 284.373C140.023 284.156 140.154 283.955 140.323 283.761C144.591 280.202 153.757 281.935 160.557 283.711C160.954 283.823 161.356 283.943 161.74 284.063C161.921 284.12 162.122 284.101 162.296 284.015C162.47 283.929 162.604 283.784 162.67 283.607C162.735 283.429 162.728 283.232 162.651 283.054C162.574 282.875 162.434 282.73 162.26 282.656C162.26 282.656 162.26 282.656 162.26 282.656C161.877 282.492 161.474 282.328 161.078 282.172C153.908 279.963 146.369 275.885 137.618 280.986C137.186 281.378 136.795 281.835 136.471 282.346Z" fill="black"/>
<path d="M214.091 285.541C213.582 285.703 213.183 286.055 212.999 286.553C212.813 287.049 212.856 287.65 213.104 288.191C213.351 288.732 213.778 289.158 214.274 289.342C214.772 289.528 215.299 289.457 215.754 289.178C215.754 289.178 215.754 289.178 215.754 289.178C215.91 289.084 216.063 288.991 216.217 288.896C217.6 288.04 218.987 287.148 220.307 286.049C221.511 284.963 223.262 283.554 223.008 281.209C222.969 280.974 222.903 280.751 222.817 280.539C222.745 280.376 222.602 280.243 222.432 280.164C222.261 280.086 222.075 280.069 221.906 280.121C221.736 280.172 221.592 280.29 221.493 280.45C221.395 280.61 221.351 280.801 221.382 280.976C221.382 280.976 221.382 280.976 221.382 280.976C221.399 281.102 221.4 281.221 221.387 281.334C220.941 283.332 217.324 284.439 214.58 285.384C214.417 285.436 214.256 285.488 214.091 285.541Z" fill="black"/>
<path d="M81.5659 282.747C81.0479 282.893 80.645 283.23 80.4685 283.731C80.2907 284.23 80.3538 284.852 80.6213 285.413C80.8887 285.974 81.3322 286.414 81.8315 286.59C82.3321 286.769 82.8477 286.668 83.2873 286.357C83.3652 286.297 83.4531 286.234 83.5412 286.173C85.1834 285.079 87.1804 284.064 89.0714 283.953C89.1751 283.95 89.2792 283.95 89.3803 283.955C89.5502 283.969 89.7324 283.908 89.8826 283.803C90.033 283.696 90.1391 283.552 90.1817 283.388C90.2244 283.223 90.2012 283.046 90.1216 282.88C90.0417 282.714 89.9118 282.573 89.7563 282.503C89.7563 282.503 89.7563 282.503 89.7563 282.503C89.6214 282.446 89.4824 282.396 89.3444 282.351C86.8079 281.644 84.3958 282.036 81.9814 282.625C81.8453 282.663 81.7044 282.704 81.5659 282.747Z" fill="black"/>
<path d="M50.6489 121.744C49.846 121.412 49.0453 121.049 48.2356 120.685C41.0914 117.341 33.3505 114.678 25.2538 114.426C17.1893 114.101 9.06026 116.24 2.23817 120.328C1.47977 120.778 0.744849 121.244 0 121.744C0.810742 121.36 1.60259 121.007 2.40928 120.668C9.68275 117.579 17.4488 116.126 25.1831 116.424C32.9391 116.665 40.5386 118.694 48.1034 121.041C48.9558 121.293 49.8043 121.539 50.6489 121.744Z" fill="black"/>
<path d="M172 127.359C172.545 127.518 173.125 127.656 173.686 127.78C178.805 128.838 183.921 129.604 188.299 131.932C192.707 134.184 196.076 138.079 198.287 142.778C198.534 143.292 198.769 143.81 199 144.359C198.897 143.772 198.781 143.211 198.644 142.65C197.476 137.558 194.138 132.643 189.23 130.161C184.362 127.593 178.881 127.388 173.729 127.403C173.158 127.398 172.567 127.386 172 127.359Z" fill="black"/>
<path d="M82.2706 48.0338C82.3213 48.2198 82.4464 48.38 82.6148 48.4799C82.7834 48.5798 82.9815 48.6112 83.169 48.5663C83.3565 48.5215 83.519 48.4039 83.6242 48.2386C83.7292 48.0734 83.7683 47.8739 83.7294 47.685C83.7294 47.685 83.7294 47.685 83.7294 47.685C83.5978 47.0446 83.4537 46.3785 83.3077 45.7241C80.5033 34.0017 77.4396 22.3316 71.1703 11.4625C70.7987 10.863 70.4049 10.2662 69.9945 9.69255C69.6867 9.26022 69.2227 8.97403 68.6969 8.90281C68.1715 8.83125 67.6274 8.98051 67.1918 9.31188C66.7563 9.64325 66.4673 10.1279 66.3961 10.6533C66.3245 11.1791 66.4766 11.7026 66.8111 12.1146C66.8111 12.1146 66.8111 12.1146 66.8111 12.1146C67.1932 12.5822 67.5724 13.0848 67.9383 13.6003C74.3248 23.1771 78.2826 34.7723 81.7334 46.1271C81.9179 46.7638 82.1005 47.412 82.2706 48.0338Z" fill="black"/>
<path d="M138.244 46.9564C138.213 47.1477 138.106 47.3209 137.949 47.4385C137.792 47.556 137.598 47.6082 137.406 47.5832C137.214 47.5582 137.039 47.4578 136.917 47.3039C136.795 47.15 136.737 46.955 136.756 46.7624C136.756 46.7624 136.756 46.7624 136.756 46.7624C136.837 45.9799 136.957 45.1954 137.107 44.4151C140.339 30.4712 149.17 18.9912 158.007 8.27305C158.51 7.68134 159.018 7.08998 159.528 6.50526C159.877 6.10503 160.367 5.86468 160.897 5.84276C161.427 5.82051 161.953 6.01851 162.354 6.38751C162.755 6.75652 162.996 7.26466 163.018 7.79446C163.04 8.3246 162.842 8.833 162.472 9.21349C162.472 9.21349 162.472 9.21349 162.472 9.21349C161.943 9.75733 161.415 10.308 160.893 10.8592C151.691 20.8366 142.457 31.7001 138.694 44.7649C138.512 45.4945 138.36 46.2269 138.244 46.9564Z" fill="black"/>
<path d="M93.5 44.3594C94.0304 44.4451 94.5391 44.3095 94.9142 43.933C95.2893 43.5593 95.5 42.9755 95.5 42.3594C95.5 41.7432 95.2893 41.1594 94.9142 40.7858C94.5391 40.4093 94.0304 40.2737 93.5 40.3594C93.1881 40.3664 93.0464 40.4136 92.9267 40.4459C92.8448 40.4711 92.7913 40.4921 92.7386 40.5136C92.6255 40.5604 92.5871 40.5836 92.5263 40.6155C92.415 40.6759 92.3432 40.7231 92.2717 40.7703C90.1849 42.308 88.5182 43.8627 86.614 44.9781C86.5115 45.0349 86.4097 45.0874 86.3181 45.1318C86.1601 45.1995 86.0272 45.339 85.9448 45.5041C85.8625 45.6701 85.8376 45.8482 85.8792 46.0146C85.9208 46.181 86.0266 46.3264 86.1773 46.4341C86.3277 46.541 86.5106 46.6015 86.6819 46.587C86.6819 46.587 86.6819 46.587 86.6819 46.587C86.8353 46.5701 86.9879 46.5451 87.1356 46.5171C89.6484 45.9765 91.9389 44.9049 94.006 44.2356C94.0503 44.225 94.0928 44.2165 94.1073 44.2216C94.1114 44.2253 94.1171 44.2296 94.0774 44.2497C94.0166 44.2612 94.0541 44.3241 93.5 44.3594Z" fill="black"/>
<path d="M126.5 43.8594C125.97 43.9344 125.461 43.7894 125.086 43.413C124.711 43.0392 124.5 42.4648 124.5 41.8594C124.5 41.2539 124.711 40.6795 125.086 40.3057C125.461 39.9294 125.97 39.7844 126.5 39.8594C126.814 39.8664 126.958 39.914 127.08 39.947C127.164 39.9729 127.22 39.9945 127.275 40.0168C127.393 40.0655 127.434 40.09 127.5 40.1239C127.62 40.1884 127.7 40.2395 127.78 40.2909C130.163 41.9862 132.113 43.7284 134.332 44.9621C134.453 45.0249 134.573 45.083 134.682 45.1318C134.844 45.1975 134.981 45.3352 135.065 45.501C135.15 45.6675 135.175 45.8484 135.133 46.0177C135.091 46.1869 134.983 46.3345 134.83 46.4417C134.677 46.548 134.492 46.6052 134.318 46.587C134.318 46.587 134.318 46.587 134.318 46.587C134.147 46.5657 133.976 46.5352 133.811 46.5011C130.983 45.8423 128.409 44.583 126.046 43.7561C125.993 43.7413 125.942 43.7289 125.919 43.73C125.91 43.7317 125.901 43.7347 125.936 43.7529C125.992 43.7629 125.95 43.8241 126.5 43.8594Z" fill="black"/>
<path d="M140 48.8594C140.242 48.8935 140.494 48.878 140.728 48.8832C142.895 48.8768 144.908 48.8951 146.824 49.1317C148.737 49.373 150.569 49.8355 152.397 50.9634C152.598 51.087 152.797 51.2164 153 51.3594C152.9 51.1319 152.792 50.9145 152.671 50.7008C151.592 48.7362 149.341 47.3968 147.072 47.1471C144.789 46.8652 142.542 47.4589 140.633 48.5151C140.426 48.627 140.215 48.763 140 48.8594Z" fill="black"/>
<path d="M67.8713 50.7706C68.0556 50.7094 68.2154 50.6074 68.3791 50.5249C69.8448 49.7358 71.1527 49.1208 72.4211 48.7916C73.6801 48.4579 75.0254 48.4008 76.6574 48.7041C76.8333 48.7347 77.0156 48.7709 77.2043 48.8134C77.088 48.6589 76.968 48.5121 76.8445 48.3733C75.7409 47.0901 73.7415 46.3461 71.9173 46.8561C70.0934 47.3333 68.7805 48.7331 68.1015 50.2654C68.0222 50.4334 67.9632 50.6131 67.8713 50.7706Z" fill="black"/>
<path d="M62.1202 297.835C62.2361 298.074 62.4409 298.252 62.6952 298.328C62.9492 298.404 63.2319 298.371 63.4753 298.239C63.7187 298.108 63.9013 297.889 63.9769 297.635C64.0529 297.381 64.0159 297.112 63.8797 296.884C63.8797 296.884 63.8797 296.884 63.8797 296.884C63.7684 296.7 63.6577 296.5 63.5545 296.301C61.7169 292.707 61.2202 287.812 64.2188 284.687C64.3805 284.513 64.5411 284.354 64.7183 284.192C64.7887 284.127 64.831 284.035 64.8376 283.938C64.844 283.841 64.8141 283.746 64.7529 283.673C64.6917 283.6 64.6038 283.554 64.5069 283.543C64.4101 283.533 64.3124 283.559 64.2367 283.617C64.2367 283.617 64.2367 283.617 64.2367 283.617C64.031 283.775 63.8414 283.933 63.649 284.108C60.022 287.287 60.0548 292.897 61.7942 297.11C61.8941 297.352 62.0043 297.599 62.1202 297.835Z" fill="black"/>
<path d="M84.2581 303.79C84.3741 304.029 84.5789 304.207 84.8332 304.283C85.0871 304.359 85.3698 304.326 85.6133 304.194C85.8567 304.063 86.0392 303.845 86.1149 303.59C86.1909 303.336 86.1538 303.067 86.0176 302.839C86.0176 302.839 86.0176 302.839 86.0176 302.839C85.9064 302.655 85.7957 302.456 85.6924 302.256C83.8549 298.662 83.3581 293.768 86.3567 290.642C86.5184 290.469 86.679 290.309 86.8562 290.147C86.9266 290.082 86.969 289.991 86.9755 289.894C86.982 289.796 86.9521 289.702 86.8909 289.629C86.8296 289.556 86.7417 289.51 86.6448 289.499C86.5481 289.488 86.4503 289.514 86.3746 289.572C86.3746 289.572 86.3746 289.572 86.3746 289.572C86.1689 289.731 85.9794 289.888 85.7869 290.063C82.16 293.242 82.1927 298.852 83.9321 303.065C84.032 303.308 84.1422 303.554 84.2581 303.79Z" fill="black"/>
<path d="M114 305.859C113.989 306.125 114.084 306.379 114.272 306.566C114.459 306.754 114.723 306.859 115 306.859C115.277 306.859 115.541 306.754 115.729 306.566C115.916 306.379 116.012 306.125 116 305.859C115.99 305.538 115.94 305.23 115.876 304.951C114.178 300.511 112.298 296.717 114.49 292.687C114.592 292.477 114.7 292.269 114.819 292.056C114.866 291.973 114.877 291.872 114.853 291.778C114.828 291.684 114.77 291.603 114.688 291.553C114.607 291.503 114.509 291.488 114.414 291.508C114.319 291.529 114.234 291.584 114.181 291.663C114.181 291.663 114.181 291.663 114.181 291.663C114.037 291.877 113.904 292.086 113.776 292.3C110.97 296.208 112.874 301.711 113.973 305.316C114 305.511 114.011 305.699 114 305.859Z" fill="black"/>
<path d="M144.247 302.518C144.414 302.725 144.653 302.853 144.918 302.871C145.182 302.889 145.45 302.794 145.658 302.612C145.866 302.43 145.996 302.177 146.013 301.912C146.031 301.648 145.936 301.393 145.752 301.201C145.752 301.201 145.752 301.201 145.752 301.201C145.583 301.023 145.421 300.848 145.259 300.667C142.084 297.576 141.607 292.968 143.119 288.705C143.194 288.466 143.268 288.236 143.35 287.994C143.38 287.903 143.373 287.803 143.332 287.714C143.29 287.626 143.218 287.558 143.129 287.524C143.04 287.489 142.941 287.492 142.851 287.529C142.761 287.567 142.688 287.637 142.65 287.725C142.65 287.725 142.65 287.725 142.65 287.725C142.547 287.964 142.451 288.193 142.354 288.432C140.408 292.504 140.492 298.255 143.762 301.898C143.922 302.109 144.081 302.312 144.247 302.518Z" fill="black"/>
</svg>
