<svg width="161" height="131" viewBox="0 0 161 131" fill="none" xmlns="http://www.w3.org/2000/svg">
<path d="M30.8508 42.7305C32.972 40.2708 35.2213 38.1229 37.5937 36.3079C48.5965 27.8903 62.2474 26.6337 78.0507 34.6453C78.4957 33.9473 78.975 33.3041 79.4951 32.7279C80.1586 24.6544 83.165 7.05694 89.8824 1.25553C92.5287 -1.08539 100.484 13.1722 104.132 20.5936C108.206 20.4198 117.562 20.8241 122.393 23.8316C128.646 18.4266 142.095 8.20194 145.861 10.5429C150.568 13.469 149.042 38.9138 144.334 47.0561C145.417 54.7247 146.1 71.1836 140.17 75.6706C136.88 78.1596 131.793 81.2228 125.251 83.5379C128.771 91.4787 137.21 108.403 142.808 112.576C145.606 112.068 151.484 112.22 152.604 116.902C154.003 122.754 149.771 124.408 144.97 124.408C140.17 124.408 135.755 125.506 134.383 122.285C133.011 119.065 133.139 119.446 131.866 118.81C130.594 118.174 109.22 97.6912 107.185 97.1823C104.829 98.0172 99.7033 99.6147 98.0526 99.3252C100.249 104.463 105.149 114.994 107.185 116.011C109.729 117.284 111.2 115.407 114.154 120.162C117.108 124.917 113.419 128.225 109.348 128.607C105.277 128.988 101.4 130.046 98.5675 127.863C95.7347 125.68 76.6512 104.561 75.7606 98.0729C74.3193 97.8213 72.5011 97.4426 70.4754 96.94C69.3885 99.4967 62.4022 98.5818 61.8933 101.253C61.4862 103.391 63.5896 107.487 64.6922 109.269C66.6199 108.505 70.8189 107.727 72.193 110.721C73.9106 114.464 72.0712 116.52 70.4754 117.742C68.8796 118.964 58.84 118.683 56.2955 117.053C53.751 115.423 44.9726 96.9279 47.3796 95.8657C49.3052 95.0159 49.6394 90.1978 49.5658 87.895C49.0634 87.4689 48.5998 87.0305 48.1812 86.5799C46.5603 90.9198 40.0616 99.7268 27.0339 100.236C26.1857 103.247 24.7438 109.548 25.7616 110.668C27.0339 112.068 29.6182 113.006 28.8349 117.053C28.0517 121.1 23.4439 122.086 19.0685 120.512C14.6932 118.938 13.7152 120.293 12.0414 114.654C10.3676 109.014 13.421 97.564 13.421 92.3478C13.421 87.1316 19.4005 89.3741 20.4819 80.4922C21.4844 72.2589 19.2619 58.7577 28.4578 45.7839C29.1822 44.7619 29.9775 43.7431 30.8508 42.7305Z" fill="#EFEFEF"/>
<path d="M78.0507 34.6453C74.7246 39.8628 73.3124 48.1422 71.0517 54.3576C68.4886 61.4045 68.7632 59.9058 73.6149 68.7605C77.4962 75.8443 89.1305 83.281 94.4625 86.1139C106.563 88.1661 117.05 86.4396 125.251 83.5379M78.0507 34.6453C78.4957 33.9473 78.975 33.3041 79.4951 32.7279C80.1586 24.6544 83.165 7.05694 89.8824 1.25553C92.5287 -1.08539 100.484 13.1722 104.131 20.5936C108.206 20.4198 117.562 20.8241 122.393 23.8316C128.646 18.4266 142.095 8.20194 145.861 10.5429C150.568 13.469 149.042 38.9138 144.334 47.0561C145.417 54.7247 146.1 71.1836 140.17 75.6706C136.88 78.1596 131.793 81.2228 125.251 83.5379M78.0507 34.6453C62.2474 26.6337 48.5965 27.8903 37.5937 36.3079C35.2213 38.1229 32.972 40.2708 30.8508 42.7305C29.9775 43.7431 29.1822 44.7619 28.4578 45.7839C19.2619 58.7577 21.4844 72.2589 20.4819 80.4922C19.4005 89.3741 13.421 87.1316 13.421 92.3478C13.421 97.564 10.3676 109.014 12.0414 114.654C13.7152 120.293 14.6932 118.938 19.0685 120.512C23.4439 122.086 28.0517 121.1 28.8349 117.053C29.6182 113.006 27.0339 112.068 25.7616 110.668C24.7438 109.548 26.1857 103.247 27.0339 100.236C40.0616 99.7268 46.5603 90.9198 48.1812 86.5799C48.5998 87.0305 49.0634 87.4689 49.5658 87.895M49.5658 87.895C49.6394 90.1978 49.3052 95.0159 47.3796 95.8657C44.9726 96.9279 53.751 115.423 56.2955 117.053C58.84 118.683 68.8796 118.964 70.4754 117.742C72.0712 116.52 73.9106 114.464 72.193 110.721C70.8189 107.727 66.6199 108.505 64.6922 109.269C63.5896 107.487 61.4862 103.391 61.8933 101.253C62.4022 98.5818 69.3885 99.4967 70.4754 96.94M49.5658 87.895C54.6509 92.2079 63.7178 95.2634 70.4754 96.94M70.4754 96.94C72.5011 97.4426 74.3193 97.8213 75.7606 98.0729C76.6512 104.561 95.7347 125.68 98.5675 127.863C101.4 130.046 105.277 128.988 109.348 128.607C113.419 128.225 117.108 124.917 114.154 120.162C111.2 115.407 109.729 117.284 107.185 116.011C105.149 114.994 100.249 104.463 98.0526 99.3252C99.7033 99.6147 104.829 98.0172 107.185 97.1823C109.22 97.6912 130.594 118.174 131.866 118.81C133.139 119.446 133.011 119.065 134.383 122.285C135.755 125.506 140.17 124.408 144.97 124.408C149.771 124.408 154.003 122.754 152.604 116.902C151.484 112.22 145.606 112.068 142.808 112.576C137.21 108.403 128.771 91.4787 125.251 83.5379" stroke="black" stroke-width="2"/>
<path d="M150.043 122.459C150.647 122.741 151.252 123.022 151.856 123.303C151.917 123.148 151.973 122.989 152.023 122.831C152.953 120.185 152.361 116.339 149.5 115.211C149.355 115.144 149.216 115.088 149.066 115.032C148.965 115.261 148.863 115.489 148.762 115.718C148.886 115.784 148.999 115.851 149.114 115.925C151.304 117.229 151.23 120.073 150.217 122.129C150.161 122.243 150.102 122.356 150.043 122.459Z" fill="black"/>
<path d="M144.039 123.573C144.405 124.13 144.771 124.687 145.137 125.244C145.283 125.136 145.425 125.017 145.554 124.897C146.718 123.837 147.416 122.16 147.103 120.606C146.805 119.063 145.822 117.931 144.809 117.044C144.697 116.947 144.581 116.85 144.461 116.753C144.291 116.937 144.122 117.121 143.952 117.305C144.052 117.411 144.147 117.516 144.236 117.62C146.048 119.475 146.242 122.24 144.323 123.402C144.23 123.465 144.132 123.524 144.039 123.573Z" fill="black"/>
<path d="M110.689 127.377C111.152 127.857 111.614 128.338 112.077 128.818C112.211 128.674 112.34 128.522 112.459 128.369C113.511 127.013 114.152 125.2 113.727 123.446C113.301 121.691 111.972 120.507 110.644 119.715C110.498 119.628 110.347 119.543 110.191 119.459C110.059 119.671 109.928 119.884 109.797 120.097C109.934 120.193 110.064 120.29 110.187 120.387C111.331 121.268 112.251 122.439 112.375 123.697C112.517 124.942 111.898 126.198 110.996 127.099C110.897 127.197 110.792 127.293 110.689 127.377Z" fill="black"/>
<path d="M104.256 128.383C104.597 128.956 104.938 129.529 105.279 130.102C105.434 129.997 105.587 129.883 105.73 129.766C106.998 128.734 107.988 127.149 107.892 125.414C107.79 123.681 106.739 122.372 105.652 121.398C105.532 121.292 105.407 121.186 105.276 121.079C105.106 121.263 104.937 121.446 104.767 121.63C104.875 121.744 104.978 121.858 105.075 121.97C105.97 122.997 106.625 124.244 106.517 125.411C106.428 126.566 105.607 127.576 104.594 128.197C104.482 128.265 104.367 128.329 104.256 128.383Z" fill="black"/>
<path d="M71.5873 115.372C72.2488 115.289 72.9103 115.207 73.5718 115.124C73.5448 114.991 73.5116 114.859 73.4749 114.734C72.9117 112.516 70.5835 110.709 68.4349 111.131C68.3191 111.146 68.207 111.164 68.0906 111.185C68.1147 111.434 68.1387 111.683 68.1628 111.932C68.2662 111.932 68.3641 111.936 68.4633 111.943C70.3109 112.006 71.4543 113.544 71.5779 115.128C71.5846 115.211 71.5883 115.296 71.5873 115.372Z" fill="black"/>
<path d="M66.2395 118.346C66.9039 118.401 67.5682 118.457 68.2326 118.512C68.2358 118.348 68.2302 118.183 68.218 118.028C68.0463 115.232 65.7663 112.87 63.2697 112.529C63.1341 112.504 62.9998 112.483 62.8605 112.464C62.809 112.709 62.7575 112.953 62.7059 113.198C62.8283 113.234 62.9446 113.273 63.0604 113.314C65.2167 114.007 66.4657 116.089 66.2806 118.049C66.2714 118.151 66.2576 118.255 66.2395 118.346Z" fill="black"/>
<path d="M24.525 120.173C24.925 120.706 25.325 121.24 25.725 121.773C25.8733 121.648 26.0001 121.519 26.1166 121.384C28.1188 118.841 27.0148 115.795 25.68 113.86C25.6045 113.749 25.526 113.637 25.4444 113.525C25.2315 113.656 25.0185 113.787 24.8056 113.918C24.8654 114.035 24.9217 114.15 24.9748 114.264C25.9955 116.284 26.1118 118.899 24.7242 120.037C24.6552 120.093 24.5862 120.14 24.525 120.173Z" fill="black"/>
<path d="M123.071 24.5588C122.658 24.0356 122.245 23.5123 121.832 22.989C121.773 23.0485 121.713 23.1105 121.654 23.1714C120.634 24.2834 119.62 25.4118 119.103 26.9581C119.078 27.0456 119.056 27.1357 119.04 27.2259C119.278 27.2994 119.517 27.373 119.756 27.4465C119.785 27.3875 119.818 27.3275 119.854 27.2687C120.547 26.2108 121.738 25.3867 122.879 24.6728C122.943 24.634 123.009 24.5948 123.071 24.5588Z" fill="black"/>
<path d="M104.291 21.5927C104.269 20.9264 104.248 20.2601 104.226 19.5938C104.105 19.6081 103.976 19.624 103.858 19.6403C101.681 19.9535 99.561 20.3944 97.4968 21.1234C97.3835 21.1645 97.2682 21.2075 97.156 21.2511C97.226 21.4911 97.296 21.7311 97.366 21.9711C97.4784 21.9491 97.5936 21.9278 97.7069 21.9083C99.7623 21.5675 101.885 21.5063 103.953 21.5754C104.064 21.5804 104.183 21.5858 104.291 21.5927Z" fill="black"/>
<path d="M127.54 75.936C127.961 76.0892 128.381 76.2543 128.801 76.4255C132.537 77.9858 136.077 79.7758 139.591 81.6283C143.093 83.4899 146.541 85.4547 149.944 87.658C150.323 87.9043 150.698 88.1505 151.077 88.404C150.787 88.0517 150.495 87.7092 150.191 87.3695C147.467 84.3217 144.149 81.783 140.529 79.8618C136.899 77.9452 132.968 76.5872 128.897 76.0578C128.441 76.0013 127.987 75.9585 127.54 75.936Z" fill="black"/>
<path d="M128.812 71.7376C129.347 71.7279 129.906 71.6651 130.455 71.629C135.39 71.2716 140.263 71.1767 145.096 71.455C149.928 71.7438 154.721 72.4094 159.435 73.8848C159.958 74.0491 160.477 74.2225 161 74.4093C160.537 74.1032 160.068 73.8135 159.588 73.5369C155.251 71.0381 150.225 69.7493 145.213 69.4584C140.192 69.1674 135.152 69.829 130.386 71.2553C129.855 71.41 129.322 71.5969 128.812 71.7376Z" fill="black"/>
<path d="M71.8163 63.3406C71.52 63.1882 71.1943 63.0445 70.8837 62.9165C68.0103 61.7677 64.8319 61.3842 61.7361 61.7223C58.6412 62.0621 55.5818 63.1956 53.1399 65.0995C52.8673 65.311 52.6073 65.5289 52.3511 65.7579C52.3511 65.7579 52.3511 65.7579 52.3511 65.7579C52.6752 65.6436 52.994 65.5382 53.3171 65.4356C56.2113 64.5245 59.0678 64.0359 61.9575 63.71C64.8445 63.3987 67.7751 63.214 70.8039 63.288C71.1335 63.2974 71.4841 63.3166 71.8163 63.3406Z" fill="black"/>
<path d="M72.4524 58.7608C72.1762 58.4871 71.8991 58.1849 71.6138 57.9033C69.0595 55.3402 65.7677 53.4798 62.28 52.426C58.7841 51.3643 55.0855 51.0884 51.5084 51.4815C51.1153 51.5252 50.7176 51.5767 50.3154 51.6362C50.7152 51.71 51.1075 51.7851 51.4926 51.8612C55.0009 52.5484 58.3935 53.3379 61.6993 54.3399C65.0033 55.3457 68.2314 56.5531 71.3888 58.2096C71.7408 58.3912 72.0974 58.5947 72.4524 58.7608Z" fill="black"/>
<path d="M36.6036 36.8558C22.4528 35.3514 9.1926 45.1851 4.64178 53.6719C-0.0653642 62.4502 -0.574149 72.3738 5.27792 80.2617C11.1615 88.1921 22.7078 92.0935 33.5218 92.6024C45.0164 93.1433 62.1242 86.6956 55.4043 80.2617C49.4248 74.5366 36.1935 83.4423 23.2453 79.4103C12.2576 75.9888 10.7488 66.267 13.293 61.4325C18.519 51.502 21.0004 51.4697 27.0332 48.3285C30.0331 43.4546 33.3941 40.186 36.6036 36.8558Z" fill="#EFEFEF" stroke="black" stroke-width="2"/>
<path d="M119.534 47.707C105.912 37.5141 94.7968 60.0773 101.579 67.0069C107.693 70.4654 113.39 72.6293 120.67 65.5036C126.014 58.7605 123.596 51.7632 119.534 47.707Z" fill="white"/>
<path d="M101.579 67.0069C100.719 66.0355 100.222 64.8182 99.9933 63.5774C98.3984 53.2739 110.067 40.5382 118.936 48.5053L118.829 48.4126C119.294 48.8791 119.727 49.3774 120.125 49.902C123.607 54.2318 123.642 60.6143 120.048 65.0107L120.115 64.9364C116.417 69.1508 110.447 71.1546 105.095 68.603C103.902 68.1374 102.736 67.5841 101.579 67.0069C102.67 67.7001 103.779 68.3671 104.941 68.9502C110.007 72.1201 117.201 70.394 121.225 66.0709L121.292 65.9966C125.522 61.4422 125.748 53.5543 121.718 48.694C121.265 48.0959 120.77 47.5303 120.238 47.0014L120.131 46.9088C115.703 43.0097 107.921 43.5697 104.237 48.1214C100.422 52.311 98.2997 58.188 99.6234 63.6644C99.9792 64.9296 100.623 66.1304 101.579 67.0069ZM101.579 67.0069" fill="black"/>
<path d="M82.2699 38.4592C72.9196 41.6692 74.1881 60.1807 82.0001 62.2686C86.4828 62.5276 90.3213 58.6228 90.4237 49.5828C90.239 39.782 87.6135 36.6248 82.2699 38.4592Z" fill="white"/>
<path d="M82.0001 62.2686C82.0001 62.2686 82.0001 62.2686 82.0001 62.2686C81 61.9343 80.1339 61.3187 79.4398 60.5678C74.4331 54.185 75.3141 42.3117 82.5924 39.3986C83.3473 39.1448 84.0961 38.9748 84.809 38.9639C88.926 38.853 89.3532 45.2695 89.6315 49.5977L89.6314 49.5738C89.6663 53.9731 89.101 59.2227 84.9902 61.5513C84.0876 62.0244 83.0512 62.2648 82.0001 62.2686C82.0001 62.2686 82.0001 62.2686 82.0001 62.2686C83.0423 62.3978 84.1347 62.2879 85.1456 61.8981C89.8582 59.9013 91.0095 54.1692 91.2161 49.5918L91.216 49.5679C91.2279 47.1452 91.136 44.6907 90.4945 42.2222C90.1578 40.9982 89.6845 39.7348 88.7222 38.6435C87.7824 37.5307 86.1779 36.9038 84.7807 36.9641C83.7571 36.9824 82.8308 37.2147 81.9474 37.5197C72.565 41.8563 73.269 54.7534 79.1768 60.8421C79.9912 61.5437 80.966 62.0647 82.0001 62.2686ZM82.0001 62.2686" fill="black"/>
<path d="M88.852 71.8472C87.9241 72.61 87.4064 72.8344 86.4349 72.738C85.7987 76.6819 88.6398 81.5817 92.0327 80.8803C94.3394 80.4034 96.9915 78.3628 97.5033 75.6641C90.8969 75.2044 90.3389 68.5049 89.9968 67.9034C90.0087 67.9009 90.0047 67.8043 90.0034 67.7231C90.0147 67.6474 90.027 67.6209 90.0118 67.6122C91.1613 67.3405 94.9668 66.3501 94.3225 65.2316C93.5593 63.4504 86.9436 62.2378 87.1979 64.5956C87.3332 65.8493 88.919 66.9917 90.0118 67.6122C90.003 67.6143 90.0025 67.6647 90.0034 67.7231C89.9943 67.7837 89.985 67.8964 89.9968 67.9034C89.5799 68.7578 90.834 70.218 88.852 71.8472Z" fill="black"/>
<path d="M83.6359 68.1577C84.1907 68.5383 84.6537 71.9746 86.4349 72.738M86.4349 72.738C87.4064 72.8344 87.9241 72.61 88.852 71.8472C90.834 70.218 89.5799 68.7578 89.9968 67.9034M86.4349 72.738C85.7987 76.6819 88.6398 81.5817 92.0327 80.8803C94.3394 80.4034 96.9915 78.3628 97.5033 75.6641M90.0118 67.6122C89.9906 67.6172 90.0173 67.8992 89.9968 67.9034M90.0118 67.6122C88.919 66.9917 87.3332 65.8493 87.1979 64.5956C86.9436 62.2378 93.5593 63.4504 94.3225 65.2316C94.9668 66.3501 91.1613 67.3405 90.0118 67.6122ZM90.0118 67.6122C90.027 67.6209 90.0147 67.6474 90.0034 67.7231C89.9943 67.7837 89.985 67.8964 89.9968 67.9034M89.9968 67.9034C90.3389 68.5049 90.8969 75.2044 97.5033 75.6641M97.5033 75.6641C100.749 75.728 101.574 74.6466 102.974 72.611" stroke="black" stroke-width="2" stroke-linecap="round"/>
<path d="M96.406 76.612C96.135 78.4968 93.04 79.9783 91.5264 80.4835C89.9294 80.3156 91.1069 79.6422 90.7305 77.8753C90.3541 76.1084 91.9941 75.3508 93.0023 75.8554C94.0105 76.36 96.7447 74.2559 96.406 76.612Z" fill="white" stroke="black" stroke-width="2"/>
<path d="M79.3858 32.3545C79.598 32.4867 79.8102 32.6189 80.0224 32.7511C80.4403 32.1603 80.8979 31.5795 81.3658 31.0248C83.6465 28.3986 86.4879 25.5935 89.5689 25.3022L90.839 25.2326L90.3108 24.0323C89.6761 22.7396 88.5851 21.5929 86.897 21.4175L86.9864 23.3216C88.5787 23.0774 90.7973 23.2519 91.3017 24.0204C91.3312 24.0636 91.3549 24.1072 91.3747 24.155L93.2981 23.8178C93.4941 17.209 93.2735 10.5581 91.6883 4.06776C91.4949 3.33808 91.274 2.61481 91.0024 1.90429C90.7643 1.98079 90.5263 2.05729 90.2883 2.1338C90.47 2.83643 90.6074 3.5515 90.7223 4.27258C91.6193 10.6787 91.5051 17.2624 91.3004 23.7309L93.2238 23.3937C93.1509 23.2163 93.0595 23.0476 92.9526 22.8915C90.8915 20.6751 88.6647 21.2401 86.6708 21.4281L86.7602 23.3323C87.4542 23.3349 88.2881 24.0262 88.6899 24.7887L89.4317 23.5188C85.1385 24.2515 82.7255 27.505 80.5794 30.4276C80.1556 31.0482 79.7496 31.6933 79.3858 32.3545Z" fill="black"/>
<path d="M139.858 43.8925C139.619 43.966 139.38 44.0395 139.141 44.1131C138.823 43.2274 138.434 42.359 138.004 41.5202C136.329 38.3178 133.971 35.1908 130.792 33.9648L129.955 33.6513L130.356 32.8117C130.581 32.4184 130.742 32.3571 130.886 32.2402C131.025 32.1424 131.162 32.0638 131.285 31.9973C131.539 31.8612 131.782 31.7531 132.024 31.6523C132.508 31.4527 132.989 31.2867 133.472 31.1361C134.45 30.8423 135.387 30.5809 136.511 30.4701L136.43 32.3363C133.519 31.907 130.299 31.246 127.993 31.7689C127.788 31.8308 127.743 31.9362 127.817 31.8147L125.913 31.2808C128.533 22.5161 134.825 16.4038 141.915 11.7582C142.765 11.262 143.645 10.8158 144.564 10.4545C144.665 10.6831 144.766 10.9117 144.867 11.1403C144.026 11.5585 143.222 12.0528 142.445 12.5913C136.021 17.4271 130.017 24.2679 127.895 31.5344L125.991 31.0006C126.34 30.2682 126.931 30.0314 127.337 29.8797C130.934 29.1099 133.758 30.0225 136.716 30.479L136.635 32.3452C135.826 32.3984 134.862 32.615 133.973 32.8526C133.525 32.9745 133.079 33.1109 132.658 33.2652C132.449 33.3423 132.244 33.4252 132.065 33.5114C131.979 33.5525 131.892 33.5994 131.836 33.6345C131.782 33.6561 131.738 33.7472 131.848 33.5658L131.413 32.4127C135.228 34.1303 137.398 37.6564 138.899 41.1039C139.278 42.0103 139.607 42.9402 139.858 43.8925Z" fill="black"/>
<path d="M106.683 96.3169C107.018 96.8939 107.352 97.4708 107.686 98.0477C107.849 97.9413 108.016 97.8308 108.182 97.7189C111.065 95.6588 114.092 93.6907 115.974 90.4062C116.062 90.2123 116.139 90.0042 116.191 89.7903C115.951 89.7201 115.711 89.65 115.471 89.5798C115.416 89.7305 115.34 89.8859 115.251 90.0348C113.354 92.6784 110.134 94.4203 107.186 96.0569C107.017 96.1463 106.848 96.234 106.683 96.3169Z" fill="black"/>
<path d="M97.2532 99.9118C97.852 99.6188 98.4508 99.3258 99.0497 99.0327C98.9764 98.9067 98.9016 98.7749 98.8272 98.6414C97.5451 96.2603 96.2289 93.7287 95.763 91.1331C95.7441 90.989 95.7314 90.8467 95.7271 90.7109C95.4774 90.6995 95.2276 90.6882 94.9779 90.6768C94.9599 90.8438 94.9525 91.0128 94.9519 91.181C95.0874 94.1373 96.0813 96.7991 97.0747 99.4677C97.1339 99.6176 97.1938 99.7668 97.2532 99.9118Z" fill="black"/>
<path d="M19.5232 120.077C19.95 120.59 20.3768 121.102 20.8036 121.614C20.9324 121.493 21.0479 121.366 21.1512 121.237C23.0409 118.838 21.9886 115.747 20.466 114.047C20.3829 113.948 20.2965 113.848 20.2068 113.748C20.0082 113.9 19.8096 114.052 19.6111 114.203C19.6787 114.309 19.7426 114.413 19.8028 114.517C20.978 116.362 21.0716 118.794 19.7224 119.929C19.6556 119.986 19.5863 120.039 19.5232 120.077Z" fill="black"/>
<path d="M80.7313 52.7879C80.5615 50.5281 81.7501 48.4736 82.9387 48.4736C84.297 48.4736 85.146 50.5281 85.146 52.3771C85.146 54.226 84.6366 56.8968 82.9387 56.6914C81.2407 56.4859 80.9011 55.0478 80.7313 52.7879Z" fill="black" stroke="black" stroke-width="2"/>
<path d="M104.785 59.118C104.615 56.8581 105.804 54.8037 106.992 54.8037C108.351 54.8037 109.2 56.8581 109.2 58.7071C109.2 60.5561 108.69 63.2269 106.992 63.0214C105.294 62.816 104.955 61.3779 104.785 59.118Z" fill="black" stroke="black" stroke-width="2"/>
</svg>
