<svg width="281" height="231" viewBox="0 0 281 231" fill="none" xmlns="http://www.w3.org/2000/svg">
<path d="M229.849 167.858C229.849 168.525 229.849 169.191 229.849 169.858C230.407 169.841 230.966 169.825 231.524 169.808C241.574 169.508 251.624 169.208 261.674 168.908C262.232 168.891 262.791 168.875 263.349 168.858C262.791 168.841 262.232 168.825 261.674 168.808C251.624 168.508 241.574 168.208 231.524 167.908C230.966 167.891 230.407 167.875 229.849 167.858Z" fill="black"/>
<path d="M233.349 164.858C233.349 165.525 233.349 166.191 233.349 166.858C233.799 166.841 234.249 166.825 234.699 166.808C242.799 166.508 250.899 166.208 258.999 165.908C259.449 165.891 259.899 165.875 260.349 165.858C259.899 165.841 259.449 165.825 258.999 165.808C250.899 165.508 242.799 165.208 234.699 164.908C234.249 164.891 233.799 164.875 233.349 164.858Z" fill="black"/>
<path d="M39.3489 170.858C39.0072 170.825 38.6655 170.793 38.3239 170.763C35.2489 170.493 32.1739 170.358 29.0989 170.358C26.0239 170.358 22.9489 170.493 19.8739 170.763C19.5322 170.793 19.1905 170.825 18.8489 170.858C19.1905 170.891 19.5322 170.923 19.8739 170.953C22.9489 171.223 26.0239 171.358 29.0989 171.358C32.1739 171.358 35.2489 171.223 38.3239 170.953C38.6655 170.923 39.0072 170.891 39.3489 170.858Z" fill="black"/>
<path d="M66.3489 174.858C66.3489 173.525 66.3489 172.191 66.3489 170.858C65.9322 170.891 65.5155 170.925 65.0989 170.958C57.5989 171.558 50.0989 172.158 42.5989 172.758C42.1822 172.791 41.7655 172.825 41.3489 172.858C41.7655 172.891 42.1822 172.925 42.5989 172.958C50.0989 173.558 57.5989 174.158 65.0989 174.758C65.5155 174.791 65.9322 174.825 66.3489 174.858Z" fill="black"/>
<path d="M217.476 78.5602C218.725 78.092 219.973 77.6238 221.222 77.1557C221.104 76.9393 220.991 76.7566 220.875 76.5748C218.789 73.4786 216.364 71.0301 213.782 68.7338C213.638 68.6081 213.495 68.4837 213.349 68.3579C213.443 68.5259 213.535 68.692 213.626 68.8588C215.247 71.8546 216.656 75.0434 217.396 78.102C217.431 78.2646 217.461 78.4235 217.476 78.5602Z" fill="black"/>
<path d="M184.04 170.858C174.313 174.102 153.741 175.394 143.848 175.358L143.348 174.358C140.681 181.024 128.847 191.658 102.847 180.858C98.8831 179.167 87.7938 176.643 75.151 180.072C70.9801 178.567 64.5562 175.372 63.059 167.358C49.859 172.158 38.1808 168.858 33.8475 166.858C8.84881 185.808 51.5591 228.308 23.8488 228.308C-1.15109 223.808 -10.1573 156.259 26.5515 140.308C23.0868 109.386 41.657 92.4933 64.3474 87.3578C60.014 74.0245 69.8473 7.85793 69.8473 7.85793C69.8473 7.85793 100.847 17.3579 116.848 43.3579C124.014 39.5245 143.548 33.8579 164.348 41.8579C174.671 30.2441 198.671 6.05078 212.083 2.18726C215.005 4.24414 220.548 22.2578 219.348 77.8578C227.057 93.2131 235.99 123.604 221.152 140.358C247.796 151.158 236.384 164.858 227.348 170.358C210.148 187.958 191.04 178.191 184.04 170.858Z" fill="#EFEFEF"/>
<path d="M184.04 170.858C174.313 174.102 153.741 175.394 143.848 175.358L143.348 174.358M184.04 170.858C183.64 154.058 200.412 149.191 208.848 148.858M184.04 170.858C191.04 178.191 210.148 187.958 227.348 170.358M208.848 148.858C224.693 154.458 228.052 165.358 227.348 170.358M208.848 148.858C213.696 146.844 218.275 143.607 221.152 140.358M227.348 170.358C236.384 164.858 247.796 151.158 221.152 140.358M221.152 140.358C235.99 123.604 227.057 93.2131 219.348 77.8578C220.548 22.2578 215.005 4.24414 212.083 2.18726C198.671 6.05078 174.671 30.2441 164.348 41.8579C143.548 33.8579 124.014 39.5245 116.848 43.3579C100.847 17.3579 69.8473 7.85793 69.8473 7.85793M69.8473 7.85793C69.8473 7.85793 92.8473 17.8579 106.847 51.8579M69.8473 7.85793C69.8473 7.85793 60.014 74.0245 64.3474 87.3578M64.3474 87.3578C41.657 92.4933 23.0868 109.386 26.5515 140.308C-10.1573 156.259 -1.15109 223.808 23.8488 228.308C51.5591 228.308 8.84881 185.808 33.8475 166.858C38.1808 168.858 49.859 172.158 63.059 167.358M64.3474 87.3578C50.6243 119.206 56.0167 140.352 65.207 151.858M143.348 174.358C135.451 144.191 106.542 154.36 86.5036 161.408C85.0691 161.913 83.68 162.401 82.3474 162.858C76.6456 161.682 70.2142 158.127 65.207 151.858M143.348 174.358C140.681 181.024 128.847 191.658 102.847 180.858C98.8831 179.167 87.7938 176.643 75.151 180.072C70.9801 178.567 64.5562 175.372 63.059 167.358M65.207 151.858C62.7692 158.408 62.3297 163.455 63.059 167.358" stroke="black" stroke-width="4"/>
<path d="M153.349 133.858C155.798 136.941 161.827 142.831 166.349 141.721" stroke="black" stroke-width="4"/>
<path d="M159.423 115.735C160.682 121.236 156.231 124.109 153.849 124.858C148.649 124.058 146.114 120.262 145.496 118.465C148.814 113.35 156.163 114.514 159.423 115.735Z" fill="black"/>
<path d="M153.849 124.858C156.231 124.109 160.682 121.236 159.423 115.735C156.163 114.514 148.814 113.35 145.496 118.465C146.114 120.262 148.649 124.058 153.849 124.858ZM153.849 124.858V134.858C151.515 137.691 145.496 142.358 141.349 142.358" stroke="black" stroke-width="4"/>
<path d="M78.3489 108.858C78.9041 109.863 79.5392 110.874 80.2057 111.837C86.1985 120.464 96.0285 127.414 107.32 127.929C118.677 128.532 128.888 122.066 135.642 114.09C136.385 113.223 137.12 112.312 137.849 111.358C136.928 112.128 136.018 112.854 135.12 113.538C126.865 119.918 117.315 124.46 107.503 123.933C97.7163 123.488 88.3441 118.44 80.7833 111.344C79.9476 110.551 79.1209 109.707 78.3489 108.858Z" fill="black"/>
<path d="M165.849 111.358C166.532 112.082 167.279 112.796 168.045 113.468C174.92 119.45 184.407 123.452 194.141 122.099C204.002 120.834 211.765 113.366 215.612 105.147C216.049 104.244 216.456 103.324 216.849 102.358C216.223 103.193 215.604 103.976 214.972 104.737C209.258 111.752 201.941 117.047 193.577 118.139C185.256 119.302 176.463 116.954 168.476 112.842C167.589 112.378 166.699 111.875 165.849 111.358Z" fill="black"/>
<path d="M84.8489 130.858C83.8768 130.113 82.8505 129.449 81.7779 128.825C72.0354 123.349 60.7313 121.074 49.6165 120.709C38.4523 120.384 27.33 122.179 16.8241 125.643C15.6667 126.026 14.514 126.429 13.3489 126.858C14.5786 126.688 15.7866 126.532 16.9905 126.385C27.9198 125.044 38.7206 124.397 49.4995 124.707C60.2537 125.077 71.0592 126.127 81.4616 129.516C82.6143 129.913 83.739 130.341 84.8489 130.858Z" fill="black"/>
<path d="M79.8489 134.858C78.8992 134.689 77.8875 134.549 76.9148 134.433C68.0252 133.434 58.9386 134.059 50.2103 136.299C41.5284 138.558 32.9764 142.58 26.6084 148.983C25.909 149.69 25.2365 150.428 24.606 151.188C25.4168 150.625 26.2456 150.087 27.0804 149.578C34.6355 145.022 42.8625 142.369 51.2144 140.171C59.5851 138.027 68.1379 136.357 76.918 135.193C77.8809 135.069 78.8893 134.955 79.8489 134.858Z" fill="black"/>
<path d="M85.3489 142.358C84.6929 142.28 83.991 142.235 83.3225 142.21C77.1771 142.036 70.9919 143.465 65.4699 146.356C59.9763 149.23 55.1278 153.813 52.6037 159.461C52.321 160.087 52.0732 160.714 51.8489 161.358C52.3031 160.849 52.7599 160.367 53.2312 159.889C57.464 155.631 62.276 152.576 67.3351 149.895C72.4173 147.242 77.7272 144.913 83.4302 142.962C84.0526 142.752 84.7156 142.545 85.3489 142.358Z" fill="black"/>
<path d="M217.849 129.858C218.764 129.779 219.71 129.726 220.63 129.697C228.965 129.503 237.107 130.336 245.119 131.704C253.129 133.106 261.007 135.178 268.766 138.281C269.632 138.629 270.484 138.982 271.349 139.358C270.623 138.755 269.895 138.18 269.137 137.618C262.353 132.569 254.219 129.222 245.806 127.763C237.394 126.317 228.656 126.586 220.507 128.947C219.612 129.215 218.703 129.519 217.849 129.858Z" fill="black"/>
<path d="M216.849 119.358C217.863 119.012 218.926 118.66 219.962 118.332C229.346 115.394 238.756 112.956 248.212 111.057C257.667 109.234 267.226 107.802 276.96 108.917C278.035 109.048 279.122 109.219 280.193 109.431C279.205 108.966 278.175 108.546 277.135 108.177C267.645 104.876 257.177 105.229 247.435 107.133C237.642 109.097 228.239 112.689 219.653 117.637C218.708 118.188 217.746 118.773 216.849 119.358Z" fill="black"/>
<path d="M136.35 180.788C137.683 180.835 139.015 180.881 140.348 180.928C140.339 180.568 140.321 180.201 140.296 179.843C139.706 173.664 137.732 166.768 131.874 163.475C131.555 163.308 131.233 163.161 130.899 163.027C130.687 163.48 130.475 163.933 130.264 164.386C130.534 164.535 130.789 164.695 131.04 164.869C135.548 168.147 136.61 174.482 136.421 179.895C136.404 180.198 136.381 180.503 136.35 180.788Z" fill="black"/>
<path d="M128.684 183.25C129.794 183.989 130.904 184.727 132.014 185.466C132.197 185.153 132.356 184.833 132.492 184.523C134.88 178.931 132.875 172.769 129.216 169.06C129.018 168.849 128.815 168.643 128.603 168.437C128.23 168.769 127.857 169.102 127.483 169.434C127.65 169.653 127.806 169.868 127.957 170.086C130.797 173.975 131.282 179.224 129.047 182.75C128.93 182.931 128.804 183.107 128.684 183.25Z" fill="black"/>
<g filter="url(#filter0_dd_117_135)">
<path d="M113.037 183.512C114.245 184.076 115.453 184.64 116.661 185.204C116.788 184.883 116.892 184.567 116.983 184.258C118.439 178.813 117.518 173.266 114.954 168.747C114.811 168.496 114.666 168.253 114.512 168.007C114.07 168.241 113.628 168.475 113.186 168.709C113.293 168.956 113.392 169.199 113.488 169.448C115.213 173.877 115.107 178.963 113.342 182.93C113.244 183.139 113.14 183.341 113.037 183.512Z" fill="black"/>
</g>
<path d="M217.435 160.889C217.044 161.202 216.654 161.514 216.263 161.826C216.404 162.036 216.548 162.269 216.675 162.495C219.018 166.714 219.208 171.977 216.963 175.789C216.841 176.005 216.716 176.211 216.581 176.422C217.76 177.046 218.938 177.67 220.116 178.294C220.25 177.996 220.371 177.705 220.486 177.404C222.637 171.929 221.275 165.82 218.022 161.585C217.84 161.353 217.638 161.11 217.435 160.889Z" fill="black"/>
<path d="M199.081 178.422C200.26 179.046 201.438 179.67 202.616 180.294C202.747 180.002 202.871 179.699 202.977 179.413C204.788 174.277 204.993 168.52 202.456 163.767C202.314 163.506 202.168 163.256 202.011 163.005C201.569 163.24 201.128 163.476 200.687 163.711C200.793 163.953 200.887 164.192 200.977 164.439C202.564 168.87 201.552 173.884 199.446 177.817C199.329 178.024 199.203 178.237 199.081 178.422Z" fill="black"/>
<path d="M83.3489 65.3579C83.1633 65.4015 82.9728 65.4571 82.788 65.5165C81.1225 66.0617 79.6407 67.0415 78.5117 68.3717C77.3994 69.6867 76.583 71.4685 76.7504 73.2771C76.7703 73.4739 76.8027 73.6693 76.8489 73.8579C76.9353 73.684 77.0271 73.5162 77.1223 73.3555C77.9957 71.9238 79.0472 70.8603 80.0398 69.6621C81.0447 68.4801 82.0145 67.2197 83.0104 65.8246C83.1217 65.6703 83.2373 65.5124 83.3489 65.3579Z" fill="black"/>
<path d="M106.349 54.8579C106.128 54.6645 105.885 54.4848 105.632 54.3186C103.342 52.8423 100.448 52.3492 97.7303 52.73C94.9951 53.1073 92.4377 54.3922 90.4822 56.2279C90.265 56.431 90.0566 56.6393 89.8489 56.8579C90.1305 56.7503 90.4049 56.6502 90.6804 56.5521C93.1695 55.6646 95.5759 55.0524 98.0077 54.7106C100.434 54.3834 102.913 54.2564 105.491 54.6713C105.778 54.722 106.065 54.7823 106.349 54.8579Z" fill="black"/>
<path d="M180.349 48.358C180.69 48.3191 181.025 48.3029 181.358 48.2958C184.321 48.3041 186.814 48.8368 189.325 49.3126C191.833 49.815 194.395 50.3745 197.354 51.1081C197.679 51.1876 198.009 51.2695 198.349 51.358C198.169 51.0561 197.983 50.7658 197.787 50.4838C196.01 47.9268 193.261 46.0101 190.104 45.3892C186.981 44.7567 183.474 45.4594 181.07 47.5925C180.804 47.8313 180.56 48.0863 180.349 48.358Z" fill="black"/>
<path d="M208.849 64.8579C208.172 63.7835 207.389 62.7428 206.57 61.7485C200.123 54.0746 191.04 48.0584 180.628 46.4067L182.317 48.4615C182.41 47.1305 182.677 45.7013 183.017 44.2922C185.724 33.7054 191.831 23.9098 199.657 15.5866C200.525 14.665 201.421 13.7566 202.349 12.8579C201.256 13.5469 200.193 14.265 199.156 15.0153C189.801 21.8009 182.12 31.6295 179.129 43.3499C178.749 44.9345 178.459 46.5383 178.381 48.2543L178.308 50.0799L180.07 50.3091C189.411 51.5468 198.377 56.0547 206.031 62.2846C207.005 63.0944 207.963 63.9494 208.849 64.8579Z" fill="black"/>
<defs>
<filter id="filter0_dd_117_135" x="109.037" y="168.007" width="12.6379" height="25.1965" filterUnits="userSpaceOnUse" color-interpolation-filters="sRGB">
<feFlood flood-opacity="0" result="BackgroundImageFix"/>
<feColorMatrix in="SourceAlpha" type="matrix" values="0 0 0 0 0 0 0 0 0 0 0 0 0 0 0 0 0 0 127 0" result="hardAlpha"/>
<feOffset dy="4"/>
<feGaussianBlur stdDeviation="2"/>
<feComposite in2="hardAlpha" operator="out"/>
<feColorMatrix type="matrix" values="0 0 0 0 0 0 0 0 0 0 0 0 0 0 0 0 0 0 0.25 0"/>
<feBlend mode="normal" in2="BackgroundImageFix" result="effect1_dropShadow_117_135"/>
<feColorMatrix in="SourceAlpha" type="matrix" values="0 0 0 0 0 0 0 0 0 0 0 0 0 0 0 0 0 0 127 0" result="hardAlpha"/>
<feOffset dy="4"/>
<feGaussianBlur stdDeviation="2"/>
<feComposite in2="hardAlpha" operator="out"/>
<feColorMatrix type="matrix" values="0 0 0 0 0 0 0 0 0 0 0 0 0 0 0 0 0 0 0.25 0"/>
<feBlend mode="normal" in2="effect1_dropShadow_117_135" result="effect2_dropShadow_117_135"/>
<feBlend mode="normal" in="SourceGraphic" in2="effect2_dropShadow_117_135" result="shape"/>
</filter>
</defs>
</svg>
