<svg width="493" height="489" viewBox="0 0 493 489" fill="none" xmlns="http://www.w3.org/2000/svg">
<path d="M345.313 148.218C319.465 124.819 261.725 104.93 236.086 97.9109C227.25 84.8202 225.255 71.9764 217.961 72.9024C212.126 73.6431 207.071 87.8895 205.273 94.9201C187.978 93.5846 179.948 112.811 176.32 119.073C172.692 125.335 164.532 121.321 165.053 126.569C167.561 165.048 201.832 149.538 195.879 158.188C189.927 166.837 173.619 176.645 170.056 185.16C166.493 193.675 173.419 200.087 180.746 199.26C188.073 198.434 244.47 151.477 295.857 198.356C347.243 245.234 317.54 301.816 283.031 321.403C270.689 328.842 243.663 333.519 216.518 318.967C195.569 307.737 180.534 310.136 180.055 293.237C179.328 267.587 163.142 265.029 165.57 278.17C167.876 290.657 160.553 307.108 176.475 318.814C190.016 328.77 187.05 343.298 165.384 330.3C152.706 322.694 142.994 311.103 139.068 287.973C134.78 262.718 136.202 256.193 139.979 245.902C147.261 226.059 130.362 226.538 123.945 246.976C115.289 274.543 118.96 328.304 172.307 364.723C225.654 401.141 268.155 392.101 299.144 384.112C330.133 376.123 385.123 330.48 391.205 273.486C397.288 216.493 377.622 177.468 345.313 148.218Z" fill="#EFEFEF"/>
<path d="M236.284 97.1875C236.152 97.6697 236.02 98.152 235.888 98.6342C260.514 105.757 284.758 114.756 307.801 125.994C320.796 132.473 333.666 139.657 344.366 149.264C379.58 179.539 395.53 227.715 389.349 273.288C384.452 314.628 355.617 350.272 320.934 372.146C313.864 376.419 306.452 380.115 298.645 382.176C256.406 395.59 209.261 389.235 173.421 363.09C135.917 338.967 113.155 290.845 125.776 247.551C127.6 241.772 130.904 235.687 135.809 233.55C140.816 231.166 140.462 239.936 138.199 245.249C132.138 259.014 135.039 274.452 137.226 288.286C139.768 305.399 148.604 323.155 164.443 331.869C167.232 333.533 170.188 335.073 173.361 336.148C176.526 337.063 180.25 338.404 184.216 335.809C186.142 334.378 186.685 331.776 186.411 329.891C186.17 327.944 185.416 326.257 184.522 324.747C182.7 321.734 180.247 319.366 177.54 317.365C164.523 309.116 168.889 292.954 167.298 277.851C166.696 275.192 167.382 272.165 168.802 272.164C170.445 271.882 172.881 274.046 174.243 276.377C177.161 281.25 178.139 287.34 178.334 293.286C178.402 297.423 179.637 302.178 182.959 305.318C186.206 308.452 190.186 309.965 193.918 311.417C201.457 314.175 208.841 316.703 215.729 320.44C236.359 331.462 262.543 334.265 283.851 322.765L283.815 322.786C329.027 299.143 339.044 228.658 296.793 197.329C265.32 164.67 213.499 176.636 180.613 198.082C173.914 199.184 167.842 191.889 171.115 185.603C176.772 175.142 189.08 169.209 196.769 158.8C196.961 158.519 197.124 158.25 197.258 157.985C197.414 157.669 197.553 157.336 197.621 156.91C197.695 156.446 197.633 155.874 197.307 155.392C197.015 154.948 196.573 154.677 196.279 154.535C194.953 153.959 193.907 153.936 192.809 153.794C190.668 153.578 188.572 153.419 186.535 153.08C182.461 152.428 178.502 151.053 175.331 148.544C168.846 143.491 166.58 134.752 166.034 126.505L166.031 126.472C165.955 125.39 166.137 125.025 167.126 124.651C168.088 124.315 169.346 124.18 170.585 123.908C173.065 123.464 175.843 122.001 177.145 119.551C180.557 113.2 183.821 106.874 188.909 102.049C193.246 97.818 199.168 95.2376 205.206 95.7905L205.935 95.8483L206.119 95.1364C208.513 87.2581 210.996 76.8887 218.064 73.7143C222.982 73.2223 225.226 79.8041 227.615 84.1999C229.971 89.0026 232.41 93.8463 235.464 98.3304C235.878 98.0507 236.293 97.771 236.707 97.4913C233.738 93.0905 231.362 88.3278 229.022 83.5071C227.834 81.1043 226.68 78.6655 225.131 76.3533C223.697 74.1396 221.096 71.5646 217.858 72.0905C212.607 73.5106 210.901 78.3427 208.873 82.1685C207.007 86.2152 205.557 90.412 204.427 94.7037L205.34 94.0497C198.813 93.4064 192.242 96.2593 187.657 100.725C182.274 105.786 178.849 112.418 175.495 118.595C174.422 120.524 172.473 121.576 170.18 122.014C169.033 122.27 167.829 122.361 166.471 122.813C165.814 123.042 164.989 123.47 164.507 124.286C164.028 125.093 164.01 125.962 164.076 126.666L164.073 126.633C164.614 135.104 166.858 144.472 174.054 150.164C177.56 152.962 181.909 154.463 186.189 155.163C188.325 155.527 190.512 155.7 192.581 155.917C193.599 156.031 194.71 156.167 195.334 156.463C195.466 156.525 195.538 156.603 195.516 156.581C195.493 156.557 195.501 156.489 195.492 156.587C195.48 156.669 195.427 156.83 195.333 157.013C195.254 157.17 195.14 157.359 194.99 157.576C187.798 167.402 175.566 172.911 168.997 184.717C167.406 188.251 167.529 192.952 170.165 196.151C172.701 199.363 176.918 200.896 180.879 200.439C215.932 178.574 264.166 167.846 294.921 199.382C335.832 230.163 325.726 297.161 282.246 320.021L282.21 320.042C262.472 330.694 237.015 328.17 217.307 317.494C210.191 313.61 202.48 310.955 195.122 308.244C187.618 305.754 181.391 301.134 181.776 293.188C181.558 286.883 180.647 280.379 177.21 274.558C175.423 271.881 173.088 268.444 168.283 268.704C165.829 268.996 164.219 271.36 163.855 273.15C163.398 275.046 163.544 276.821 163.841 278.49C165.024 285.262 163.511 292.717 164.259 300.37C164.736 308.069 169.003 315.837 175.41 320.262C177.82 322.043 179.958 324.159 181.419 326.596C182.909 328.956 183.4 332.046 181.992 332.942C178.324 335.091 171.326 331.713 166.325 328.731C151.484 320.466 143.435 304.309 140.91 287.66C138.741 273.738 136.041 259.457 141.76 246.556C142.905 243.341 143.882 240.019 143.616 236.231C143.441 234.388 142.898 232.142 140.922 230.594C138.897 229.023 136.233 229.279 134.461 229.98C127.242 233.316 124.27 240.064 122.114 246.401C108.834 291.778 132.662 341.515 171.192 366.355C207.558 393.115 257.056 399.717 299.643 386.048C308.068 383.817 315.706 379.971 323.013 375.563C358.643 353.044 388.072 316.703 393.062 273.685C399.243 227.304 382.353 177.527 346.26 147.172C335.084 137.328 322.026 130.244 308.851 123.836C285.51 112.752 261.116 104.023 236.284 97.1875ZM235.888 98.6342L236.284 97.1875L236.707 97.4913L235.464 98.3304L235.617 98.5583L235.888 98.6342Z" fill="black"/>
<path d="M186.173 123.349C179.41 120.722 182.207 110.684 187.483 110.122C192.343 109.605 195.595 113.451 195.09 117.871C194.541 122.671 189.961 124.822 186.173 123.349Z" fill="white"/>
<path d="M186.173 123.349C185.489 123.155 184.829 122.86 184.232 122.445C179.698 119.242 180.989 110.509 187.38 109.158C188.722 108.992 190.151 109.134 191.448 109.675C194.721 110.963 196.478 114.739 195.905 117.964C195.518 121.736 191.674 124.616 188.213 123.985C187.495 123.884 186.804 123.666 186.173 123.349C186.852 123.542 187.55 123.627 188.235 123.606C191.575 123.559 194.187 120.797 194.275 117.778C194.499 115.104 193.047 112.463 190.681 111.523C189.729 111.126 188.661 110.991 187.586 111.087C183.49 111.565 180.845 118.573 184.474 122.152C184.959 122.631 185.537 123.031 186.173 123.349ZM186.173 123.349" fill="black"/>
<path d="M183.327 115.691C182.686 117.623 184.066 119.821 184.699 120.031C185.333 120.241 187.753 119.306 188.394 117.373C189.036 115.441 187.656 113.244 187.022 113.033C186.389 112.823 183.969 113.759 183.327 115.691Z" fill="black"/>
<path d="M186.178 114.318C186.569 114.421 186.839 114.55 186.956 114.703C187.06 114.839 187.09 114.97 187.124 115.108C187.19 115.37 187.063 115.658 186.989 115.842C186.937 115.971 186.826 116.01 186.737 116.035C186.649 116.059 186.528 116.059 186.381 116.018C186.231 115.975 186.168 115.846 186.15 115.76C186.115 115.595 186.107 115.424 186.143 115.214C186.172 115.044 186.034 114.875 185.989 114.686C185.977 114.635 186.013 114.573 186.041 114.529C186.069 114.484 186.105 114.456 186.159 114.453C186.402 114.442 186.493 114.704 186.662 114.961C186.785 115.148 186.712 115.341 186.622 115.673C186.601 115.748 186.603 115.788 186.619 115.781C186.691 115.747 186.716 115.612 186.734 115.517C186.772 115.321 186.595 115.129 186.49 114.959C186.402 114.818 186.236 114.754 186.106 114.657C186.074 114.633 186.042 114.609 186.068 114.61C186.181 114.618 186.291 114.704 186.344 114.789C186.465 114.984 186.429 115.339 186.406 115.615C186.402 115.656 186.342 115.648 186.325 115.616C186.238 115.449 186.212 115.191 186.197 114.97C186.186 114.802 186.058 114.722 186.062 114.649C186.07 114.485 186.396 114.632 186.502 114.694C186.678 114.796 186.594 115.087 186.669 115.186C186.709 115.239 186.784 115.044 186.814 114.913C186.86 114.714 186.574 114.584 186.445 114.487C186.381 114.439 186.216 114.371 186 114.352C185.913 114.345 185.885 114.474 185.884 114.535C185.916 114.62 185.981 114.669 186.077 114.721C186.141 114.749 186.237 114.781 186.336 114.814" stroke="white" stroke-linecap="round"/>
<path d="M185.151 115.105C185.159 115.081 185.167 115.017 185.149 114.93C185.14 114.89 185.079 114.88 185.042 114.888C185.006 114.895 184.982 114.927 184.983 114.962C184.985 114.996 185.013 115.032 185.078 115.081" stroke="white" stroke-linecap="round"/>
<path d="M168.972 123.837C169.106 123.953 169.196 124.134 169.25 124.255C169.305 124.378 169.297 124.525 169.315 124.68C169.331 124.824 169.314 124.966 169.286 125.095C169.253 125.239 169.203 125.353 169.168 125.508C169.133 125.663 168.879 125.997 168.685 126.176C168.584 126.269 168.43 126.287 168.295 126.336C168.156 126.387 167.987 126.446 167.863 126.445C167.714 126.443 167.558 126.532 167.392 126.584C167.173 126.653 166.993 126.679 166.86 126.743C166.735 126.802 166.649 126.919 166.544 127.002C166.207 127.269 165.924 127.885 165.779 128.106C165.746 128.156 165.716 128.171 165.686 128.18C165.621 128.189 165.55 128.188 165.479 128.187C165.444 128.186 165.409 128.186 165.348 128.168" stroke="black" stroke-linecap="round"/>
<path d="M168.352 123.757C168.498 124.077 168.54 124.228 168.576 124.399C168.624 124.633 168.581 124.915 168.532 125.181C168.504 125.333 168.461 125.48 168.285 125.755C168.107 126.031 167.607 126.065 167.337 126.148C167.136 126.209 166.907 126.303 166.718 126.345C166.455 126.405 166.347 126.529 166.226 126.635C166.073 126.768 165.943 126.85 165.828 126.991C165.782 127.046 165.717 127.073 165.65 127.082C165.616 127.086 165.583 127.055 165.561 127.016C165.46 126.835 165.53 126.652 165.587 126.357C165.625 126.16 165.699 125.963 165.756 125.782C165.808 125.618 166.051 125.292 166.27 125.079C166.393 124.96 166.534 124.925 166.68 124.873C166.866 124.806 166.998 124.731 167.129 124.638C167.278 124.533 167.481 124.49 167.614 124.422C167.683 124.387 167.776 124.399 167.851 124.432C168.019 124.506 167.919 124.777 167.862 124.94C167.748 125.268 167.468 125.309 167.349 125.411C167.246 125.499 167.145 125.564 167.026 125.605C166.891 125.651 166.808 125.772 166.66 125.817C166.614 125.858 166.571 125.902 166.516 125.938C166.487 125.954 166.453 125.967 166.385 126.031" stroke="black" stroke-width="2" stroke-linecap="round"/>
<path d="M183.008 135.402C183.292 135.262 183.595 135.123 183.888 135C186.573 133.893 189.395 133.283 192.213 133.237C195.025 133.193 197.847 133.83 200.368 135.274C200.651 135.436 200.921 135.599 201.198 135.779C200.963 135.547 200.729 135.332 200.476 135.119C198.243 133.199 195.195 132.178 192.201 132.237C189.198 132.283 186.264 133.227 183.798 134.833C183.53 135.011 183.257 135.205 183.008 135.402Z" fill="black"/>
<path d="M182.962 138.62C183.234 138.575 183.52 138.536 183.796 138.506C186.308 138.25 188.804 138.386 191.175 138.957C193.54 139.531 195.775 140.639 197.568 142.421C197.769 142.62 197.959 142.818 198.15 143.033C198.013 142.78 197.873 142.542 197.715 142.3C196.326 140.134 193.953 138.587 191.413 137.986C188.867 137.369 186.188 137.526 183.755 138.321C183.489 138.41 183.216 138.511 182.962 138.62Z" fill="black"/>
<path d="M182.714 140.712C182.939 140.744 183.173 140.783 183.397 140.827C185.433 141.239 187.351 141.93 189.08 142.91C190.804 143.891 192.318 145.231 193.376 147.019C193.495 147.22 193.605 147.416 193.714 147.627C193.668 147.394 193.616 147.172 193.55 146.944C192.986 144.897 191.461 143.097 189.577 142.042C187.691 140.971 185.517 140.51 183.409 140.637C183.178 140.653 182.939 140.677 182.714 140.712Z" fill="black"/>
</svg>
