<svg width="271" height="145" viewBox="0 0 271 145" fill="none" xmlns="http://www.w3.org/2000/svg">
<path d="M237.938 113.745C239.03 111.858 241.206 106.717 241.392 100.843C241.626 93.441 236.012 83.898 236.127 79.9606C236.241 76.0233 236.317 68.4652 228.18 58.6346C227.542 43.3857 223.854 11.1301 214.205 4.09911C208.809 0.118643 187.874 29.6307 187.623 35.4589C181.318 34.7926 167.427 34.3558 162.301 37.9382C153.871 25.2244 135.252 0.256727 128.219 2.09653C119.427 4.39629 112.055 55.073 117.125 70.1826C115.111 76.1857 112.763 86.9886 113.329 97.1969C99.2667 95.0923 70.1236 97.4995 53.2362 119.683C50.2635 117.279 44.9569 109.231 47.9157 96.6932C51.6141 81.0211 46.1192 58.245 37.3268 50.8652C28.5343 43.4854 19.1863 38.0765 9.94445 42.4279C0.702553 46.7793 -0.240696 55.9135 5.89222 57.9762C12.0251 60.039 27.74 60.0852 28.8686 75.6301C29.9972 91.175 31.3053 98.4032 29.1677 103.15C27.0301 107.896 30.3512 128.8 38.1902 130.604L46.799 130.511L95.9809 129.976C98.2162 134.989 103.997 142.374 114.314 142.373C128.444 142.371 131.077 136.776 131.17 129.594L225.319 128.571L225.371 128.57C226.625 132.78 230.887 138.783 241.178 139.105C254.171 139.51 256.845 132.659 257.05 128.226C257.081 127.554 257.056 126.938 257.001 126.411C256.583 122.406 253.695 113.846 238.717 113.738C238.455 113.737 238.195 113.739 237.938 113.745Z" fill="#EFEFEF"/>
<path d="M237.911 113.792C238.993 111.943 241.204 106.765 241.392 100.843C241.626 93.441 236.012 83.898 236.127 79.9606C236.241 76.0233 236.317 68.4652 228.18 58.6346C227.542 43.3857 223.854 11.1301 214.205 4.09911C208.809 0.118643 187.874 29.6307 187.623 35.4589M187.623 35.4589C190.301 35.6397 196.169 36.594 198.21 38.965M187.623 35.4589C181.318 34.7926 167.427 34.3558 162.301 37.9382C153.871 25.2244 135.252 0.256727 128.219 2.09653C119.427 4.39629 112.055 55.073 117.125 70.1826C115.111 76.1857 112.763 86.9886 113.329 97.1969M37.8257 130.608C37.9472 130.607 38.0687 130.606 38.1902 130.604M38.1902 130.604C30.3512 128.8 27.0301 107.896 29.1677 103.15C31.3053 98.4032 29.9972 91.175 28.8686 75.6301C27.74 60.0852 12.0252 60.039 5.89222 57.9762C-0.240708 55.9135 0.702556 46.7793 9.94445 42.4279C19.1863 38.0765 28.5343 43.4854 37.3268 50.8652C46.1192 58.245 51.6141 81.0211 47.9157 96.6932C44.9569 109.231 50.2635 117.279 53.2362 119.683M38.1902 130.604C41.0857 130.573 43.9544 130.542 46.799 130.511M53.2362 119.683C50.8106 122.869 48.6379 126.463 46.799 130.511M53.2362 119.683C70.1236 97.4995 99.2667 95.0923 113.329 97.1969M46.799 130.511C63.8502 130.325 80.044 130.149 95.9924 129.976M113.329 97.1969C113.704 103.946 115.352 110.436 119.213 115.106M95.2654 128.095C96.7341 132.855 102.6 142.374 114.314 142.373C128.444 142.371 131.077 136.776 131.17 129.594M220.261 126.736C221.42 122.368 226.735 113.652 238.717 113.738C253.695 113.846 256.583 122.406 257.001 126.411C257.056 126.938 257.081 127.554 257.05 128.226M257.05 128.226L257.276 128.223M257.05 128.226C256.845 132.659 254.171 139.51 241.178 139.105C230.887 138.783 226.625 132.78 225.371 128.57M225.371 128.57C225.166 127.883 225.041 127.244 224.984 126.685M225.371 128.57L225.319 128.571C190.645 128.948 160.579 129.274 131.17 129.594M91.4735 126.876C93.3216 123.078 99.6918 115.262 110.388 114.39C113.709 114.12 116.656 114.406 119.213 115.106M131.17 129.594C131.173 129.333 131.173 129.071 131.17 128.807C131.109 123.127 126.952 117.224 119.213 115.106" stroke="black" stroke-width="4"/>
<path d="M151.798 44.1576C151.711 44.3919 151.623 44.6262 151.536 44.8605C151.331 44.873 151.118 44.883 150.919 44.8941C150.104 44.9355 149.341 44.9353 148.582 44.8549C145.923 44.5858 143.201 44.8036 140.621 45.8253C140.436 45.899 140.255 45.9748 140.071 46.0572C139.938 45.8453 139.806 45.6334 139.673 45.4215C139.838 45.2853 140.004 45.1562 140.177 45.0297C142.595 43.2496 145.783 42.5455 148.79 42.8658C149.652 42.9564 150.498 43.2442 151.256 43.7425C151.44 43.8658 151.63 44.0062 151.798 44.1576Z" fill="black"/>
<path d="M229.145 58.0418C228.607 58.4357 228.069 58.8296 227.531 59.2235C227.265 58.843 226.974 58.4456 226.686 58.0662C221.347 51.3085 214.705 44.8673 206.345 42.2762C205.883 42.1457 205.412 42.031 204.942 41.9366C204.986 41.6905 205.03 41.4443 205.074 41.1982C205.567 41.2757 206.063 41.3744 206.549 41.4897C215.363 43.8336 222.375 50.1064 228.205 56.8628C228.522 57.2458 228.845 57.6497 229.145 58.0418Z" fill="black"/>
<path d="M134.487 115.23C134.305 115.303 134.113 115.375 133.931 115.445C132.268 116.076 130.641 116.518 128.992 116.767C127.341 117.022 125.689 117.069 123.923 117.077C123.727 117.079 123.526 117.081 123.328 117.084C123.48 116.956 123.642 116.833 123.803 116.716C125.28 115.665 126.978 115.052 128.691 114.789C130.409 114.53 132.171 114.619 133.912 115.065C134.101 115.116 134.3 115.17 134.487 115.23Z" fill="black"/>
<path d="M133.619 107.84C132.91 107.578 132.193 107.35 131.457 107.134C124.903 105.292 118.155 104.468 111.433 104.088C104.698 103.733 97.9285 103.94 91.1396 104.733C90.3838 104.822 89.6363 104.915 88.8744 105.02C89.6068 104.785 90.3299 104.567 91.0657 104.36C97.6756 102.499 104.637 101.724 111.539 102.091C118.423 102.475 125.338 103.891 131.592 106.779C132.293 107.11 132.966 107.458 133.619 107.84Z" fill="black"/>
<path d="M234.05 110.377C234.05 110.377 234.05 110.377 234.05 110.377C234.588 110.292 235.151 110.227 235.702 110.178C240.702 109.767 245.773 110.331 250.63 111.636C255.485 112.953 260.15 115.083 264.198 118.038C264.649 118.367 265.087 118.703 265.521 119.051C265.521 119.051 265.521 119.051 265.521 119.051C265.017 118.816 264.515 118.59 264.008 118.367C259.458 116.374 254.82 114.849 250.107 113.566C245.391 112.302 240.61 111.227 235.695 110.558C235.151 110.487 234.593 110.425 234.05 110.377Z" fill="black"/>
<path d="M111.551 142.646C111.081 142.174 110.61 141.701 110.14 141.229C110.312 141.072 110.486 140.89 110.648 140.699C113.703 137.08 113.596 131.366 111.222 126.969C111.097 126.723 110.965 126.477 110.825 126.228C111.038 126.098 111.252 125.967 111.465 125.837C111.628 126.084 111.783 126.328 111.932 126.574C114.703 130.936 115.536 137.197 112.172 141.896C111.984 142.152 111.777 142.406 111.551 142.646Z" fill="black"/>
<path d="M124.51 141.234C123.948 140.875 123.386 140.517 122.824 140.158C122.966 139.955 123.11 139.723 123.237 139.498C125.621 135.248 125.305 129.494 122.159 125.421C121.991 125.192 121.82 124.971 121.635 124.746C121.823 124.581 122.01 124.416 122.198 124.25C122.406 124.471 122.602 124.689 122.796 124.916C126.406 128.946 127.371 135.261 124.96 140.383C124.828 140.663 124.674 140.959 124.51 141.234Z" fill="black"/>
<path d="M250.477 138.177C249.935 137.789 249.393 137.402 248.85 137.014C248.977 136.854 249.105 136.67 249.221 136.485C251.396 132.966 250.938 128.035 248.387 124.436C248.251 124.234 248.11 124.036 247.961 123.834C248.155 123.677 248.349 123.52 248.544 123.362C248.716 123.559 248.88 123.754 249.041 123.954C252.012 127.489 253.188 132.915 250.91 137.434C250.783 137.682 250.637 137.936 250.477 138.177Z" fill="black"/>
<path d="M220.774 106.189C200.045 106.414 193.511 70.1337 209.761 58.6775C218.51 52.5097 231.641 61.1162 234.752 74.0758C238.937 91.5065 231.266 106.075 220.774 106.189Z" fill="white"/>
<path d="M220.774 106.189C218.559 106.351 216.33 106.077 214.245 105.358C197.838 98.5588 192.093 71.1853 208.751 57.0373C210.895 55.493 213.486 54.6721 215.943 54.6107C226.876 54.8879 234.09 63.9073 236.319 73.5602C238.587 83.9921 237.258 97.9083 227.31 104.504C225.276 105.722 222.969 106.311 220.774 106.189C222.99 106.037 225.145 105.201 226.942 103.861C235.563 96.7896 235.732 84.1591 233.185 74.5913C230.931 66.2383 223.844 58.7128 215.767 58.6791C213.982 58.7306 212.262 59.2763 210.772 60.3177C197.494 70.6812 199.766 96.5442 214.562 104.635C216.463 105.548 218.575 106.08 220.774 106.189ZM220.774 106.189" fill="black"/>
<path d="M159.622 110.624C136.943 109.965 119.083 74.6948 150.721 59.3939C163.28 53.3195 179.638 67.5498 182.133 81.2523C185.651 100.579 170.812 110.949 159.622 110.624Z" fill="white"/>
<path d="M159.622 110.624C159.622 110.624 159.622 110.624 159.622 110.624C157.022 110.685 154.432 110.282 151.973 109.496C141.99 106.203 133.883 97.1927 132.288 85.7469C130.242 73.8841 139.699 62.0151 150.007 57.574C152.348 56.4239 154.912 55.8947 157.36 55.917C171.089 56.9078 180.917 67.8993 183.629 80.8497C186.232 92.4078 178.865 106.589 167.44 109.654C164.865 110.475 162.194 110.833 159.622 110.624C159.622 110.624 159.622 110.624 159.622 110.624C162.22 110.561 164.81 109.946 167.238 108.928C178.031 104.754 183.379 92.0178 180.636 81.6548C177.905 70.4755 168.019 60.5641 157.042 59.9871C155.111 59.972 153.196 60.369 151.434 61.2138C141.924 65.4125 134.107 74.7054 135.248 85.195C136.133 95.4144 142.947 104.658 152.271 108.766C154.572 109.758 157.049 110.414 159.622 110.624ZM159.622 110.624" fill="black"/>
<path d="M239.049 139.145C238.536 138.719 238.023 138.293 237.51 137.867C237.638 137.73 237.764 137.569 237.886 137.395C240.082 134.062 239.787 129.261 238.086 125.33C237.994 125.11 237.897 124.89 237.794 124.667C238.016 124.552 238.239 124.438 238.461 124.324C238.587 124.545 238.706 124.764 238.821 124.983C240.892 128.918 241.884 133.975 239.53 138.42C239.388 138.667 239.233 138.907 239.049 139.145Z" fill="black"/>
<path d="M236.374 102.671C236.374 102.671 236.374 102.671 236.374 102.671C236.888 102.44 237.441 102.217 237.971 102.014C242.841 100.185 248.021 99.1587 253.223 98.8527C258.427 98.5587 263.723 99.0266 268.716 100.509C269.27 100.674 269.82 100.851 270.364 101.042C270.364 101.042 270.364 101.042 270.364 101.042C269.791 100.981 269.218 100.929 268.646 100.882C263.5 100.474 258.417 100.566 253.336 100.849C248.262 101.15 243.169 101.61 238.069 102.381C237.512 102.467 236.927 102.568 236.374 102.671Z" fill="black"/>
<path d="M210.158 10.0083C210.381 10.1206 210.604 10.2329 210.828 10.3452C210.572 10.9474 210.307 11.5825 210.06 12.1922C207.815 17.7732 205.757 23.4244 204.163 29.1582C203.224 32.6712 202.362 36.2923 202.489 39.8021L201.462 39.0943C203.868 38.5503 206.295 38.4514 208.681 39.0074C209.363 39.1762 210.036 39.4145 210.661 39.7509C210.556 39.9776 210.45 40.2043 210.345 40.431C209.754 40.2024 209.128 40.0604 208.495 39.9773C206.3 39.7109 203.984 40.0221 201.905 40.6495L200.928 40.8917L200.878 39.9417C200.474 36.0341 201.271 32.2544 202.234 28.6297C203.876 22.7281 206.288 17.1166 209.167 11.7693C209.485 11.1859 209.824 10.5793 210.158 10.0083Z" fill="black"/>
<path d="M130.007 2.55244C129.87 2.76195 129.734 2.97145 129.597 3.18096C130.355 3.72372 131.105 4.35087 131.806 4.99472C138.045 10.9853 142.777 18.4354 147.045 25.9576C149.995 31.5325 153.371 37.4744 153.718 43.4784L154.954 43.0242C153.038 41.3103 150.627 40.5304 148.191 40.555C147.16 40.5809 146.124 40.8 145.191 41.2411C145.289 41.4713 145.386 41.7016 145.483 41.9319C146.345 41.6123 147.267 41.4951 148.181 41.5424C150.318 41.6657 152.509 42.5999 153.926 44.0445L155.073 45.154L155.162 43.5903C155.12 36.5823 151.795 30.748 148.794 24.9873C144.443 17.3212 139.34 9.91491 132.445 4.24177C131.671 3.63453 130.844 3.04757 130.007 2.55244Z" fill="black"/>
<path d="M171.722 84.6799C172.642 76.7157 166.204 69.4756 159.766 69.4756C152.409 69.4756 147.81 76.7157 147.81 83.2319C147.81 89.748 150.569 99.1602 159.766 98.4362C168.963 97.7122 170.803 92.6441 171.722 84.6799Z" fill="black" stroke="black"/>
<path d="M230.722 83.6799C231.642 75.7157 225.204 68.4756 218.766 68.4756C211.409 68.4756 206.81 75.7157 206.81 82.2319C206.81 88.748 209.569 98.1602 218.766 97.4362C227.963 96.7122 229.803 91.6441 230.722 83.6799Z" fill="black" stroke="black"/>
<path d="M194.763 112.999C194.926 114.363 197.448 117.101 208.446 120.734C220.348 124.666 228.085 117.867 230.465 113.976C229.275 115.205 225.942 117.662 222.134 117.662C217.373 117.662 213.802 109.676 207.851 105.375C203.09 101.935 196.742 103.942 194.163 105.375C191.585 103.942 185.841 102.493 181.08 105.933C175.129 110.233 171.558 118.22 166.797 118.22C162.988 118.22 159.656 115.763 158.465 114.534C160.846 118.425 168.582 125.224 180.485 121.292C191.507 117.651 194.533 114.431 194.763 112.999Z" fill="black"/>
<path d="M208.446 120.734C196.544 116.802 194.569 113.92 194.767 112.691C194.966 113.92 192.387 117.36 180.485 121.292C168.582 125.224 160.846 118.425 158.465 114.534C159.656 115.763 162.988 118.22 166.797 118.22C171.558 118.22 175.129 110.233 181.08 105.933C185.841 102.493 191.585 103.942 194.163 105.375C196.742 103.942 203.09 101.935 207.851 105.375C213.802 109.676 217.373 117.662 222.134 117.662C225.942 117.662 229.275 115.205 230.465 113.976C228.085 117.867 220.348 124.666 208.446 120.734Z" stroke="black"/>
<path d="M125.465 80.6002C125.465 100.522 140.85 112.476 153.67 112.476C173.542 111.147 181.876 99.1942 183.799 84.5847C185.722 69.9752 175.465 51.3812 159.431 50.5223C143.397 49.6635 125.465 60.6781 125.465 80.6002Z" fill="#7BBDBD" fill-opacity="0.17"/>
<path d="M183.799 84.5847C185.722 69.9752 175.465 51.3812 159.431 50.5223C143.397 49.6635 125.465 60.6781 125.465 80.6002C125.465 100.522 140.85 112.476 153.67 112.476C173.542 111.147 181.876 99.1942 183.799 84.5847ZM183.799 84.5847C187.004 82.5925 194.824 79.8034 200.465 84.5847" stroke="black" stroke-width="3"/>
<path d="M200.465 81.1144C200.465 100.715 215.439 112.476 227.917 112.476C247.258 111.169 255.369 99.4085 257.241 85.0346C259.112 70.6607 249.13 52.3666 233.524 51.5216C217.918 50.6766 200.465 61.5136 200.465 81.1144Z" fill="#7BBDBD" fill-opacity="0.17" stroke="black" stroke-width="3"/>
<path d="M188.496 98.535C188.148 102.008 193.334 103.322 194.07 103.786C195.66 103.264 198.564 100.661 198.741 99.5259C197.688 96.3126 189.488 97.7544 188.496 98.535Z" fill="black" stroke="black" stroke-width="3" stroke-linecap="round"/>
<path d="M165.751 43.5138C173.804 44.2222 173.804 56.2658 173.268 56.2658C171.657 57.6829 171.657 56.2658 163.604 52.7234C157.161 49.8895 140.16 60.0441 132.465 65.4756C138.371 52.0151 157.698 42.8054 165.751 43.5138Z" fill="black" stroke="black"/>
<path d="M204.367 43.5103C196.118 44.1544 196.118 55.1031 196.668 55.1031C198.318 56.3913 198.318 55.1031 206.567 51.8827C213.167 49.3064 230.582 58.5378 238.465 63.4756C232.416 51.2388 212.617 42.8663 204.367 43.5103Z" fill="black" stroke="black"/>
</svg>
