<?xml version="1.0" ?>
<!DOCTYPE svg  PUBLIC '-//W3C//DTD SVG 1.1//EN'  'http://www.w3.org/Graphics/SVG/1.1/DTD/svg11.dtd'>
<!-- Uploaded to: SVG Repo, www.svgrepo.com, Generator: SVG Repo Mixer Tools -->
<svg fill="#000000" width="800px" height="800px" viewBox="0 0 512 512" version="1.1" xml:space="preserve" xmlns="http://www.w3.org/2000/svg" xmlns:xlink="http://www.w3.org/1999/xlink">
<g id="_x35_62_x2C__competition_x2C__contest_x2C__expert_x2C__judge_x2C__jury">
<g>
<path d="M167.159,268.439H99.755v73.238h67.403V268.439z M96.739,262.409h73.437    c1.665,0,3.015,1.349,3.015,3.016v79.269c0,1.666-1.35,3.014-3.015,3.014H96.739c-1.665,0-3.015-1.348-3.015-3.014v-79.269    C93.724,263.758,95.074,262.409,96.739,262.409z M282.63,268.439h-67.405v73.238h67.405V268.439z M212.21,262.409h73.434    c1.667,0,3.017,1.349,3.017,3.016v79.269c0,1.666-1.35,3.014-3.017,3.014H212.21c-1.667,0-3.015-1.348-3.015-3.014v-79.269    C209.195,263.758,210.543,262.409,212.21,262.409z M398.102,268.439h-67.405v73.238h67.405V268.439z M327.682,262.409h73.435    c1.667,0,3.015,1.349,3.015,3.016v79.269c0,1.666-1.348,3.014-3.015,3.014h-73.435c-1.667,0-3.015-1.348-3.015-3.014v-79.269    C324.667,263.758,326.015,262.409,327.682,262.409z M70.66,387.244c-1.667,0-3.015-1.349-3.015-3.015    c0-1.667,1.348-3.015,3.015-3.015h376.39V227.09H50.807v178.072H447.05v-17.918H70.66z M279.15,127.918l-0.024-0.024    c-0.687,2.329-1.667,4.534-2.843,6.593c0.71-0.221,1.348-0.637,1.837-1.151c0.858-0.882,1.396-2.108,1.396-3.456    C279.517,129.168,279.396,128.506,279.15,127.918z M280.719,113.629c-0.271-0.295-0.588-0.59-0.932-0.81    c0.418,1.985,0.637,4.068,0.637,6.177c0,0.49-0.024,0.955-0.049,1.422c0.271-0.245,0.491-0.54,0.711-0.834    c0.491-0.76,0.784-1.715,0.784-2.721C281.87,115.613,281.43,114.485,280.719,113.629z M277.213,105.27    c0.246-0.563,0.394-1.226,0.394-1.937c0-1.128-0.394-2.181-1.006-3.015c-0.637-0.809-1.544-1.445-2.574-1.691l-0.539-0.195    c-1.495-0.711-2.156-2.525-1.445-4.021c0.172-0.343,0.295-0.687,0.368-1.029c0.072-0.318,0.097-0.687,0.097-1.103    c0-1.349-0.515-2.574-1.372-3.456c-0.858-0.858-2.034-1.397-3.333-1.397c-0.466,0-0.906,0.049-1.275,0.172l-0.098,0.024    c-0.466,0.146-0.907,0.368-1.274,0.637c-1.249,0.883-2.99,0.687-4.021-0.49c-0.391-0.465-0.907-0.857-1.47-1.128    c-0.49-0.244-1.079-0.367-1.717-0.367l-0.883,0.074c-0.268,0.073-0.563,0.172-0.833,0.293l-0.293,0.099    c-1.569,0.54-3.26-0.294-3.799-1.862c-1.35-3.824-3.873-4.069-5.368-0.172l-0.172,0.466c-0.686,1.495-2.476,2.157-3.995,1.47    c-0.809-0.318-0.809-0.293-1.692-0.367c-0.563,0-1.102,0.098-1.569,0.295l-0.172,0.072c-0.563,0.271-1.053,0.639-1.446,1.104    c-1.004,1.176-2.745,1.422-4.019,0.515c-0.368-0.245-0.784-0.466-1.275-0.612c-0.392-0.147-0.883-0.221-1.397-0.221    c-1.274,0-2.476,0.539-3.31,1.397c-0.858,0.882-1.396,2.107-1.396,3.456c0,0.416,0.049,0.76,0.098,1.054l0.024,0.049    c0.049,0.319,0.172,0.638,0.319,0.956l0.219,0.613c0.418,1.617-0.563,3.259-2.156,3.676c-2.157,0.539-3.578,2.525-3.578,4.706    c0,0.663,0.098,1.251,0.293,1.766l0.074,0.171c1.52-3.039,3.506-5.809,5.884-8.187c3.627-3.628,8.162-6.372,13.21-7.843    l0.221-0.049l0.074-0.025c0.563-0.172,1.153-0.318,1.741-0.441l0,0h0.049l0.244-0.049l0.516-0.123h0.074l0.293-0.072l0,0    l0.295-0.049h0.098l0.221-0.05l0.293-0.024l0.246-0.049h0.049l0.293-0.05h0.049l0.27-0.049h0.123l0.172-0.024l0.219-0.025h0.074    l0.319-0.023l0.293-0.024l0.098-0.024h0.221l0.172-0.024h0.123l0.269-0.024h0.049h0.32l0.024-0.025h0.269h0.147h0.172h0.221h0.074    h0.317h0.123h0.098h0.098h0.098h0.025h0.098h0.096h0.123h0.049h0.049h0.099h0.123h0.098h0.025l0.195,0.025h0.098h0.098l0,0    l0.221,0.024h0.098h0.098h0.025l0.098,0.024h0.097l0.639,0.049l0.121,0.023c7.354,0.688,13.995,3.996,18.923,8.923l0.172,0.172    C273.807,99.607,275.742,102.305,277.213,105.27z M217.774,119.584c0.197,0.294,0.442,0.589,0.686,0.834    c-0.024-0.467-0.024-0.932-0.024-1.422c0-2.108,0.197-4.191,0.612-6.177c-0.342,0.22-0.637,0.515-0.905,0.81    c-0.735,0.856-1.177,1.984-1.177,3.234C216.966,117.869,217.26,118.824,217.774,119.584z M220.715,133.335    c0.516,0.515,1.153,0.931,1.864,1.151c-1.202-2.059-2.157-4.264-2.867-6.617l-0.025,0.049c-0.221,0.588-0.368,1.227-0.368,1.961    C219.319,131.227,219.857,132.453,220.715,133.335z M262.752,98.187c-0.366,0.784-0.809,1.567-1.249,2.304l-0.76,1.201    l-0.024,0.023l-0.05,0.099l-0.024,0.024l-0.024,0.025v0.023l-0.049,0.05l-0.025,0.024l-0.024,0.049l-0.024,0.049l-0.024,0.024    l-0.024,0.024v0.024l-0.049,0.05l-0.025,0.049l-0.024,0.024l-0.147,0.196l-0.024,0.049l-0.024,0.049l-0.121,0.147l-0.024,0.049    l-0.024,0.05l-0.024,0.023l-0.025,0.024l-0.024,0.024l-0.024,0.049l-0.024,0.025l-0.024,0.049l-0.05,0.024l-0.073,0.123    c1.839,1.52,3.873,2.794,6.103,3.726c1.889,0.809,3.922,1.396,6.029,1.691l-0.342-0.711l0,0l-0.049-0.098l-0.05-0.099l-0.049-0.05    v-0.023l-0.123-0.246l-0.024-0.023l-0.049-0.099l-0.049-0.073l-0.025-0.073l-0.024-0.024l-0.049-0.074l-0.049-0.098l-0.025-0.049    l-0.022-0.05l-0.049-0.073l-0.049-0.098l-0.025-0.049l-0.024-0.025l-0.368-0.612l-0.049-0.073l-0.025-0.025l-0.024-0.073    l-0.049-0.073l-0.049-0.074l-0.025-0.048l-0.096-0.123l-0.05-0.099l-0.024-0.024l-0.024-0.049l-0.467-0.661l0,0l-0.049-0.074    l-0.121-0.171l0,0l-0.123-0.147l-0.049-0.099l0,0l-0.074-0.073c-0.271-0.344-0.538-0.687-0.833-1.029l-0.024-0.024    c-0.369-0.441-0.785-0.883-1.178-1.299l-0.17-0.147C265.644,100.27,264.271,99.143,262.752,98.187z M227.261,108.039    c0.76,0.245,1.52,0.467,2.279,0.637c1.716,0.368,3.504,0.564,5.393,0.564c5.318,0,10.246-1.666,14.266-4.51    c1.396-1.005,2.695-2.133,3.848-3.383l0.049-0.024v-0.024l0.047-0.049l0.074-0.073l0,0l0.049-0.05l0.049-0.049l0.024-0.049    l0.024-0.024l0.049-0.05l0.049-0.072h0.024l0.049-0.049l0.049-0.074l0.024-0.024l0.025-0.024l0.049-0.049l0.049-0.05v-0.024    l0.049-0.049l0.049-0.073h0.024l0.025-0.049l0.047-0.073l0.049-0.025l0.025-0.024l0.049-0.073l0.049-0.05l0,0l0.049-0.073    l0.049-0.049l0.025-0.024l0.024-0.049l0.049-0.05l0.049-0.073l0,0l0.049-0.049l0.049-0.073v-0.024l0.049-0.049l0.049-0.05    l0.024-0.049l0.024-0.024l0.049-0.05l0.047-0.073l0,0l0.024-0.049l0.074-0.073l0.024-0.024V99.24l0.049-0.074l0.049-0.073l0,0    l0.049-0.049l0.049-0.073l0.024-0.024l0.025-0.024l0.049-0.074l0.025-0.049l0.024-0.024l0.024-0.05l0.074-0.098l0.024-0.049    l0.049-0.049l0.024-0.049l0.025-0.024l0.049-0.05l0.023-0.073l0.024-0.024l0.025-0.049l0.049-0.05l0.025-0.048l0.024-0.025    l0.049-0.073l0.025-0.073l0,0l0.049-0.049l0.049-0.074l0.024-0.024v-0.048l0.049-0.05l0.049-0.073l0,0l0.049-0.074l0.025-0.049    l0.024-0.049l0.024-0.025l0.049-0.072l0.024-0.049v-0.025l0.049-0.049l0.024-0.074l0.024-0.023l0.023-0.025l0.024-0.049    l0.025-0.049l0.024-0.049v-0.024l0.049-0.05l0.024-0.049l0.024-0.049l0,0l0.049-0.049l0.024-0.074l0.049-0.098l0.049-0.049    l0.025-0.049v-0.024l0.024-0.05l0.049-0.049l0.024-0.049v-0.025l0.024-0.049l0.025-0.048l0.024-0.05l0,0l0.049-0.073l0.024-0.049    l0.024-0.05l0,0l0.024-0.049l0.025-0.073l0.024-0.048h0.025l0.024-0.05l0.022-0.049l0.073-0.173l0.025-0.073    c-1.911-0.612-3.922-1.028-6.005-1.151h-0.049l-0.123-0.023l0,0h-0.244h-0.024h-0.074h-0.024l-0.074-0.025h-0.049h-0.024h-0.098    l0,0h-0.074h-0.049h-0.049h-0.074h-0.024h-0.072h-0.025h-0.073h-0.049h-0.024h-0.099l0,0h-0.098h-0.049h-0.025h-0.098h-0.244    h-0.073h-0.172h-0.147h-0.098h-0.221h-0.022l-0.246,0.025h-0.049h-0.197l-0.123,0.023h-0.123h-0.17l-0.074,0.023l-0.246,0.025l0,0    l-0.246,0.024h-0.072l-0.172,0.024h-0.147l-0.098,0.025l-0.197,0.023h-0.049l-0.49,0.074h-0.074l-0.147,0.024l-0.17,0.024    l-0.074,0.025l-0.221,0.023h-0.024l-0.221,0.05l-0.074,0.023l-0.17,0.024l-0.123,0.025l-0.123,0.023l-0.172,0.05h-0.049    l-0.246,0.05l0,0l-0.219,0.049l-0.098,0.023c-4.46,1.079-8.432,3.408-11.594,6.545    C230.054,103.406,228.461,105.613,227.261,108.039z M255.447,107.746c-0.832,0.734-1.69,1.445-2.622,2.082    c-5.05,3.579-11.227,5.688-17.893,5.688c-2.255,0-4.534-0.246-6.715-0.735c-1.03-0.222-2.011-0.49-2.99-0.833    c-0.344,1.643-0.516,3.332-0.516,5.049c0,6.838,2.771,13.016,7.231,17.477c4.485,4.484,10.662,7.255,17.476,7.255    c6.766,0,12.894-2.721,17.33-7.084l0.147-0.171c4.484-4.461,7.254-10.639,7.254-17.477c0-1.349-0.123-2.672-0.317-3.946    c-3.701-0.196-7.231-1.029-10.468-2.427C260.473,111.396,257.8,109.756,255.447,107.746z M257.825,162.943v-14.093    c-2.671,0.735-5.491,1.151-8.407,1.151c-3.26,0-6.421-0.515-9.388-1.446v15.246l8.579,17.378l9.12-18.064L257.825,162.943z     M234.443,166.032l-0.123-0.22l-0.074-0.197l0,0l-0.025-0.049l-4.339-9.24c-5.171,2.01-9.681,3.652-13.554,5.049    c-17.451,6.373-20.588,7.525-20.859,19.413c-0.024,2.01,0.172,3.897,0.613,5.71c0.319,1.275,0.735,2.501,1.251,3.702h11.397    v-7.279h6.029v7.279h31.031l-3.26-6.888L234.443,166.032z M263.61,164.783c-0.05,0.146-0.123,0.27-0.196,0.416l-12.133,24.069    l-0.147,0.222l-0.172,0.367l-0.194,0.343h32.305v-7.279h6.029v7.279h10.932c0.76-1.642,1.348-3.357,1.717-5.172    c0.489-2.329,0.661-4.828,0.44-7.5c-0.711-8.849-4.731-10.319-20.638-16.129c-3.897-1.421-8.432-3.088-13.654-5.099    L263.61,164.783z M393.321,83.97c-4.925-4.927-11.739-7.99-19.265-7.99c-7.427,0-14.191,2.989-19.094,7.794l-0.172,0.196    c-4.926,4.927-7.967,11.741-7.967,19.241c0,7.451,2.967,14.191,7.795,19.094l0.172,0.172c4.927,4.927,11.74,7.99,19.266,7.99    c7.501,0,14.266-3.039,19.193-7.916l0.071-0.05c4.928-4.95,7.967-11.765,7.967-19.29C401.288,95.711,398.249,88.896,393.321,83.97    z M376.36,162.576h14.266l-0.442-12.378l-0.293,0.27l-0.024,0.024l-0.024,0.024l-0.221,0.196h-0.025l-0.023,0.049L376.36,162.576z     M357.07,150.738l-0.613,11.838h12.893L357.07,150.738z M396.166,148.851l0.563,16.644c0.049,1.641-1.249,3.039-2.917,3.088    h-40.517c-1.667,0-3.015-1.349-3.015-2.991l0.857-16.888l-31.594,13.775V190.2h107.921v-27.722L396.166,148.851z M384.744,147.012    v-12.011c-3.358,1.128-6.961,1.741-10.688,1.741c-4.068,0-7.99-0.735-11.594-2.06V147.6l10.418,10.025L384.744,147.012z     M139.314,80.121l-0.024,0.025v0.049l-0.023,0.049l-0.049,0.098l0,0l-0.024,0.049l-0.024,0.024l-0.025,0.05l-0.024,0.049    l-0.024,0.049l-0.025,0.049v0.025l0,0l-0.123,0.244l-0.025,0.025v0.023l-0.024,0.025l-0.295,0.539v0.025    c-0.244,0.465-0.514,0.93-0.784,1.396l-0.71,1.103l0,0l-0.293,0.441l-0.024,0.05l-0.024,0.049h-0.025L136.447,85l-0.025,0.048    l-0.024,0.024l-0.024,0.025l-0.025,0.023l-0.073,0.099l-0.025,0.05l-0.121,0.146l-0.024,0.049l-0.024,0.049l-0.049,0.049    l-0.024,0.025v0.023l-0.049,0.05l-0.024,0.05l-0.049,0.023l-0.024,0.05l-0.024,0.048l-0.025,0.025l-0.024,0.023l-0.024,0.05    l-0.049,0.049c2.083,1.741,4.412,3.212,6.937,4.265c2.23,0.957,4.632,1.618,7.158,1.937c-1.079-2.451-2.525-4.706-4.241-6.716    l-0.074-0.073v-0.024l-0.195-0.196l-0.024-0.024l-0.418-0.49h-0.024l-0.662-0.687l-0.246-0.245l-0.023-0.024    C142.525,82.352,140.981,81.151,139.314,80.121z M106.813,82.842c-0.367,0.344-0.711,0.662-1.053,1.006l-0.123,0.122l-0.221,0.221    h-0.024c-2.059,2.107-3.774,4.56-5.048,7.255c0.907,0.318,1.862,0.588,2.818,0.785c1.888,0.416,3.873,0.637,5.931,0.637    c5.81,0,11.178-1.789,15.564-4.854l0.172-0.122c1.495-1.079,2.916-2.304,4.167-3.651l0.024-0.025l0.024-0.024l0.025-0.024    l0.123-0.123l0,0l0.047-0.073l0.172-0.171l0.049-0.074h0.024l0.025-0.049l0.074-0.074l0.049-0.049l0,0l0.049-0.074l0.049-0.048    l0.025-0.049l0.024-0.024l0.074-0.049l0.098-0.123L130,83.111l0.049-0.049v-0.023l0.049-0.05l0.074-0.073v-0.025l0.049-0.049    l0.049-0.049l0.049-0.074l0,0l0.049-0.072l0.049-0.049l0.049-0.049v-0.025l0.074-0.074l0.318-0.416l0.024-0.049l0.049-0.049    l0.049-0.073c0.516-0.687,1.005-1.423,1.471-2.183c0.442-0.734,0.833-1.494,1.227-2.254c-1.839-0.613-3.75-1.055-5.736-1.275    h-0.074l-0.391-0.049h-0.025l-0.27-0.023l0,0h-0.098h-0.049l-0.024-0.025h-0.099h-0.024h-0.072h-0.074l-0.025-0.024h-0.098l0,0    h-0.098h-0.049h-0.024h-0.098h-0.025h-0.073l-0.074-0.024h-0.025h-0.024h-0.17h-0.049h-0.049h-0.098l0,0h-0.098h-0.049    l-0.049-0.024h-0.098l0,0h-0.074h-0.072h-0.024h-0.099l0,0h-0.098h-0.049h-0.049h-0.098h-0.271h-0.074h-0.219h-0.123l-0.147,0.024    h-0.221h-0.049l-0.269,0.024h-0.024h-0.246h-0.098l-0.17,0.024h-0.172l-0.098,0.025l-0.246,0.023h-0.024    c-5.784,0.539-10.907,2.697-15.466,6.594l-0.024,0.023L106.813,82.842z M131.473,90.588c-0.981,0.857-1.987,1.666-3.017,2.402    l-0.195,0.123c-5.441,3.799-12.061,6.029-19.169,6.029c-2.45,0-4.901-0.27-7.279-0.785c-1.202-0.27-2.377-0.612-3.53-1.004    c-0.392,1.887-0.612,3.848-0.612,5.857c0,7.451,2.965,14.191,7.794,19.094l0.172,0.172c4.927,4.927,11.741,7.99,19.266,7.99    c7.475,0,14.266-3.039,19.191-7.916l0.074-0.05c4.927-4.95,7.967-11.765,7.967-19.29c0-1.544-0.123-3.088-0.393-4.56    c-4.068-0.195-7.965-1.128-11.544-2.647C137.01,94.656,134.069,92.818,131.473,90.588z M127.207,162.576h14.242l-0.417-12.378    l-0.269,0.245l-0.025,0.024l-0.024,0.024l-0.246,0.221h-0.024l-0.049,0.049L127.207,162.576z M107.917,150.738l-0.612,11.838    h12.892L107.917,150.738z M146.988,148.851l0.563,16.644c0.049,1.641-1.251,3.039-2.892,3.088h-40.517    c-1.667,0-3.015-1.349-3.015-2.991l0.858-16.888L70.39,162.479V190.2h107.922v-27.722L146.988,148.851z M135.589,147.012v-12.011    c-3.356,1.128-6.961,1.741-10.686,1.741c-4.069,0-7.991-0.735-11.594-2.06v12.894l10.418,10.024L135.589,147.012z M41.148,422.711    c-1.667,0-3.015-1.372-3.015-3.015c0-1.667,1.348-3.015,3.015-3.015H349.08c1.642,0,3.016,1.348,3.016,3.015    c0,1.643-1.374,3.015-3.016,3.015H41.148z M221.451,436.021c-1.665,0-3.015-1.349-3.015-3.015c0-1.643,1.35-3.015,3.015-3.015    h213.074c1.667,0,3.015,1.372,3.015,3.015c0,1.666-1.348,3.015-3.015,3.015H221.451z M456.34,436.021    c-1.667,0-3.015-1.349-3.015-3.015c0-1.643,1.348-3.015,3.015-3.015h26.645c1.667,0,3.015,1.372,3.015,3.015    c0,1.666-1.348,3.015-3.015,3.015H456.34z M29.016,435.727c-1.667,0-3.015-1.349-3.015-3.015c0-1.667,1.348-3.016,3.015-3.016    h100.959c1.667,0,3.017,1.349,3.017,3.016c0,1.666-1.35,3.015-3.017,3.015H29.016z M49.58,221.06h398.672l13.163-24.83h-30.837    h-0.098H316.53h-0.073H195.495h-0.049H181.4h-0.074H67.375h-0.098H36.442L49.58,221.06z" style="fill-rule:evenodd;clip-rule:evenodd;"/>
</g>
</g>
<g id="Layer_1"/>
</svg>