<svg width="271" height="145" viewBox="0 0 271 145" fill="none" xmlns="http://www.w3.org/2000/svg">
<path d="M32.8562 113.745C31.7648 111.858 29.5886 106.717 29.4026 100.843C29.1682 93.441 34.7824 83.898 34.6677 79.9606C34.5531 76.0233 34.4778 68.4652 42.6143 58.6346C43.2523 43.3857 46.9407 11.1301 56.5897 4.09911C61.986 0.118643 82.9202 29.6307 83.1717 35.4589C89.4767 34.7926 103.368 34.3558 108.493 37.9382C116.923 25.2244 135.542 0.256727 142.576 2.09653C151.368 4.39629 158.739 55.073 153.669 70.1826C155.684 76.1857 158.032 86.9886 157.465 97.1969C171.528 95.0923 200.671 97.4995 217.558 119.683C220.531 117.279 225.838 109.231 222.879 96.6932C219.18 81.0211 224.675 58.245 233.468 50.8652C242.26 43.4854 251.608 38.0765 260.85 42.4279C270.092 46.7793 271.035 55.9135 264.902 57.9762C258.769 60.039 243.055 60.0852 241.926 75.6301C240.797 91.175 239.489 98.4032 241.627 103.15C243.764 107.896 240.443 128.8 232.604 130.604L223.996 130.511L174.814 129.976C172.578 134.989 166.798 142.374 156.481 142.373C142.351 142.371 139.718 136.776 139.625 129.594L45.4755 128.571L45.424 128.57C44.1696 132.78 39.9072 138.783 29.6167 139.105C16.6237 139.51 13.95 132.659 13.7446 128.226C13.7135 127.554 13.739 126.938 13.7939 126.411C14.2113 122.406 17.0995 113.846 32.0772 113.738C32.3401 113.737 32.5997 113.739 32.8562 113.745Z" fill="#EFEFEF"/>
<path d="M32.8831 113.792C31.8011 111.943 29.5902 106.765 29.4026 100.843C29.1682 93.441 34.7824 83.898 34.6677 79.9606C34.5531 76.0233 34.4778 68.4652 42.6143 58.6346C43.2523 43.3857 46.9407 11.1301 56.5897 4.09911C61.986 0.118643 82.9202 29.6307 83.1717 35.4589M83.1717 35.4589C80.4932 35.6397 74.626 36.594 72.5849 38.965M83.1717 35.4589C89.4767 34.7926 103.368 34.3558 108.493 37.9382C116.923 25.2244 135.542 0.256727 142.576 2.09653C151.368 4.39629 158.739 55.073 153.669 70.1826C155.684 76.1857 158.032 86.9886 157.465 97.1969M232.969 130.608C232.847 130.607 232.726 130.606 232.604 130.604M232.604 130.604C240.443 128.8 243.765 107.896 241.627 103.15C239.489 98.4032 240.797 91.175 241.926 75.6301C243.055 60.0852 258.769 60.039 264.902 57.9762C271.035 55.9135 270.092 46.7793 260.85 42.4279C251.608 38.0765 242.26 43.4854 233.468 50.8652C224.675 58.245 219.18 81.0211 222.879 96.6932C225.838 109.231 220.531 117.279 217.558 119.683M232.604 130.604C229.709 130.573 226.84 130.542 223.996 130.511M217.558 119.683C219.984 122.869 222.157 126.463 223.996 130.511M217.558 119.683C200.671 97.4995 171.528 95.0923 157.465 97.1969M223.996 130.511C206.944 130.325 190.751 130.149 174.802 129.976M157.465 97.1969C157.091 103.946 155.442 110.436 151.581 115.106M175.529 128.095C174.06 132.855 168.195 142.374 156.481 142.373C142.351 142.371 139.718 136.776 139.625 129.594M50.5337 126.736C49.3741 122.368 44.0594 113.652 32.0772 113.738C17.0995 113.846 14.2113 122.406 13.7939 126.411C13.739 126.938 13.7135 127.554 13.7446 128.226M13.7446 128.226L13.5182 128.223M13.7446 128.226C13.95 132.659 16.6237 139.51 29.6167 139.105C39.9072 138.783 44.1696 132.78 45.424 128.57M45.424 128.57C45.6287 127.883 45.7533 127.244 45.8109 126.685M45.424 128.57L45.4755 128.571C80.1494 128.948 110.215 129.274 139.625 129.594M179.321 126.876C177.473 123.078 171.103 115.262 160.406 114.39C157.086 114.12 154.138 114.406 151.581 115.106M139.625 129.594C139.621 129.333 139.621 129.071 139.624 128.807C139.686 123.127 143.842 117.224 151.581 115.106" stroke="black" stroke-width="4"/>
<path d="M118.997 44.1576C119.084 44.3919 119.171 44.6262 119.258 44.8605C119.464 44.873 119.676 44.883 119.876 44.8941C120.69 44.9355 121.454 44.9353 122.212 44.8549C124.872 44.5858 127.593 44.8036 130.173 45.8253C130.359 45.899 130.539 45.9748 130.723 46.0572C130.856 45.8453 130.989 45.6334 131.122 45.4215C130.956 45.2853 130.791 45.1562 130.617 45.0297C128.2 43.2496 125.012 42.5455 122.005 42.8658C121.143 42.9564 120.297 43.2442 119.538 43.7425C119.354 43.8658 119.165 44.0062 118.997 44.1576Z" fill="black"/>
<path d="M41.6499 58.0418C42.1878 58.4357 42.7257 58.8296 43.2635 59.2235C43.5292 58.843 43.8206 58.4456 44.1081 58.0662C49.4475 51.3085 56.09 44.8673 64.4492 42.2762C64.9114 42.1457 65.3825 42.031 65.8523 41.9366C65.8084 41.6905 65.7644 41.4443 65.7205 41.1982C65.2271 41.2757 64.7318 41.3744 64.2454 41.4897C55.432 43.8336 48.42 50.1064 42.5896 56.8628C42.2727 57.2458 41.95 57.6497 41.6499 58.0418Z" fill="black"/>
<path d="M136.308 115.23C136.49 115.303 136.682 115.375 136.863 115.445C138.527 116.076 140.154 116.518 141.803 116.767C143.454 117.022 145.106 117.069 146.872 117.077C147.067 117.079 147.268 117.081 147.466 117.084C147.314 116.956 147.153 116.833 146.991 116.716C145.515 115.665 143.817 115.052 142.103 114.789C140.385 114.53 138.624 114.619 136.883 115.065C136.693 115.116 136.494 115.17 136.308 115.23Z" fill="black"/>
<path d="M137.176 107.84C137.885 107.578 138.601 107.35 139.338 107.134C145.892 105.292 152.64 104.468 159.361 104.088C166.097 103.733 172.866 103.94 179.655 104.733C180.411 104.822 181.158 104.915 181.92 105.02C181.188 104.785 180.465 104.567 179.729 104.36C173.119 102.499 166.158 101.724 159.255 102.091C152.372 102.475 145.457 103.891 139.203 106.779C138.502 107.11 137.828 107.458 137.176 107.84Z" fill="black"/>
<path d="M36.7446 110.377C36.7446 110.377 36.7446 110.377 36.7446 110.377C36.2065 110.292 35.6436 110.227 35.0921 110.178C30.0929 109.767 25.0217 110.331 20.1641 111.636C15.3093 112.953 10.6441 115.083 6.59677 118.038C6.14593 118.367 5.7076 118.703 5.27317 119.051C5.27317 119.051 5.27317 119.051 5.27317 119.051C5.77804 118.816 6.27937 118.59 6.78641 118.367C11.3367 116.374 15.9745 114.849 20.6876 113.566C25.4033 112.302 30.1843 111.227 35.0995 110.558C35.6433 110.487 36.2021 110.425 36.7446 110.377Z" fill="black"/>
<path d="M159.243 142.646C159.714 142.174 160.184 141.701 160.655 141.229C160.483 141.072 160.309 140.89 160.146 140.699C157.091 137.08 157.198 131.366 159.573 126.969C159.698 126.723 159.829 126.477 159.969 126.228C159.756 126.098 159.543 125.967 159.33 125.837C159.166 126.084 159.012 126.328 158.863 126.574C156.091 130.936 155.259 137.197 158.622 141.896C158.81 142.152 159.018 142.406 159.243 142.646Z" fill="black"/>
<path d="M146.285 141.234C146.846 140.875 147.408 140.517 147.97 140.158C147.828 139.955 147.685 139.723 147.557 139.498C145.173 135.248 145.49 129.494 148.635 125.421C148.804 125.192 148.975 124.971 149.159 124.746C148.972 124.581 148.784 124.416 148.597 124.25C148.388 124.471 148.192 124.689 147.999 124.916C144.388 128.946 143.424 135.261 145.834 140.383C145.966 140.663 146.121 140.959 146.285 141.234Z" fill="black"/>
<path d="M20.3175 138.177C20.8597 137.789 21.402 137.402 21.9443 137.014C21.8172 136.854 21.6899 136.67 21.5739 136.485C19.3984 132.966 19.8562 128.035 22.4078 124.436C22.544 124.234 22.6844 124.036 22.834 123.834C22.6397 123.677 22.4454 123.52 22.251 123.362C22.0783 123.559 21.9143 123.754 21.754 123.954C18.7821 127.489 17.6065 132.915 19.8848 137.434C20.012 137.682 20.1575 137.936 20.3175 138.177Z" fill="black"/>
<path d="M50.0202 106.189C70.7493 106.414 77.2831 70.1337 61.0331 58.6775C52.2844 52.5097 39.1533 61.1162 36.0421 74.0758C31.8576 91.5065 39.5287 106.075 50.0202 106.189Z" fill="white"/>
<path d="M50.0202 106.189C52.2353 106.351 54.4642 106.077 56.5498 105.358C72.9561 98.5588 78.7011 71.1853 62.0434 57.0373C59.8992 55.493 57.3082 54.6721 54.8512 54.6107C43.919 54.8879 36.7042 63.9073 34.4751 73.5602C32.2073 83.9921 33.5364 97.9083 43.4844 104.504C45.5187 105.722 47.8258 106.311 50.0202 106.189C47.8049 106.037 45.6498 105.201 43.8521 103.861C35.2317 96.7896 35.0625 84.1591 37.6092 74.5913C39.8633 66.2383 46.9508 58.7128 55.0278 58.6791C56.8127 58.7306 58.5324 59.2763 60.0228 60.3177C73.3001 70.6812 71.0286 96.5442 56.2324 104.635C54.3317 105.548 52.2197 106.08 50.0202 106.189ZM50.0202 106.189" fill="black"/>
<path d="M111.172 110.624C133.852 109.965 151.711 74.6948 120.074 59.3939C107.514 53.3195 91.1564 67.5498 88.662 81.2523C85.1438 100.579 99.9828 110.949 111.172 110.624Z" fill="white"/>
<path d="M111.172 110.624C111.172 110.624 111.172 110.624 111.172 110.624C113.773 110.685 116.362 110.282 118.822 109.496C128.805 106.203 136.911 97.1927 138.506 85.7469C140.553 73.8841 131.095 62.0151 120.788 57.574C118.446 56.4239 115.883 55.8947 113.434 55.917C99.7056 56.9078 89.8774 67.8993 87.1659 80.8497C84.5625 92.4078 91.9296 106.589 103.354 109.654C105.93 110.475 108.6 110.833 111.172 110.624C111.172 110.624 111.172 110.624 111.172 110.624C108.574 110.561 105.985 109.946 103.557 108.928C92.7635 104.754 87.416 92.0178 90.1581 81.6548C92.8897 70.4755 102.775 60.5641 113.752 59.9871C115.684 59.972 117.599 60.369 119.36 61.2138C128.871 65.4125 136.688 74.7054 135.547 85.195C134.662 95.4144 127.847 104.658 118.523 108.766C116.222 109.758 113.746 110.414 111.172 110.624ZM111.172 110.624" fill="black"/>
<path d="M78.2432 97.7528C78.5918 101.225 73.4056 102.54 72.6695 103.004C71.0797 102.482 68.1757 99.879 67.9986 98.7437C69.0516 95.5303 77.2516 96.9721 78.2432 97.7528Z" fill="black"/>
<path d="M72.6695 103.004C73.4056 102.54 78.5918 101.225 78.2432 97.7528C77.2516 96.9721 69.0516 95.5303 67.9986 98.7437C68.1757 99.879 71.0797 102.482 72.6695 103.004ZM72.6695 103.004L72.6006 109.342M72.6006 109.342C71.9582 111.99 71.8064 111.579 71.1509 112.948C70.4953 114.316 68.1495 113.86 68.9041 116.859M72.6006 109.342C73.032 112.002 78.2125 115.071 78.2125 115.071C78.2125 115.071 81.3965 117.656 81.0105 118.408" stroke="black" stroke-width="3" stroke-linecap="round"/>
<path d="M31.7452 139.145C32.2582 138.719 32.7712 138.293 33.2842 137.867C33.1566 137.73 33.0301 137.569 32.909 137.395C30.7122 134.062 31.0078 129.261 32.7086 125.33C32.8005 125.11 32.8975 124.89 33.0005 124.667C32.7781 124.552 32.5557 124.438 32.3334 124.324C32.208 124.545 32.0885 124.764 31.9737 124.983C29.9024 128.918 28.9106 133.975 31.265 138.42C31.407 138.667 31.5614 138.907 31.7452 139.145Z" fill="black"/>
<path d="M34.4207 102.671C34.4207 102.671 34.4207 102.671 34.4207 102.671C33.907 102.44 33.3534 102.217 32.8234 102.014C27.9531 100.185 22.774 99.1587 17.572 98.8527C12.3674 98.5587 7.07181 99.0266 2.07816 100.509C1.52428 100.674 0.974535 100.851 0.43058 101.042C0.43058 101.042 0.43058 101.042 0.43058 101.042C1.00373 100.981 1.57645 100.929 2.14816 100.882C7.29414 100.474 12.3775 100.566 17.4584 100.849C22.5321 101.15 27.6251 101.61 32.7256 102.381C33.2824 102.467 33.8674 102.568 34.4207 102.671Z" fill="black"/>
<path d="M60.6369 10.0083C60.4136 10.1206 60.1902 10.2329 59.9668 10.3452C60.223 10.9474 60.4876 11.5825 60.7349 12.1922C62.9793 17.7732 65.0372 23.4244 66.6315 29.1582C67.571 32.6712 68.4329 36.2923 68.3055 39.8021L69.3321 39.0943C66.9271 38.5503 64.4994 38.4514 62.114 39.0074C61.4317 39.1762 60.7587 39.4145 60.1336 39.7509C60.239 39.9776 60.3444 40.2043 60.4498 40.431C61.0407 40.2024 61.6662 40.0604 62.2995 39.9773C64.4946 39.7109 66.811 40.0221 68.8897 40.6495L69.8666 40.8917L69.9164 39.9417C70.3207 36.0341 69.5234 32.2544 68.5604 28.6297C66.9186 22.7281 64.5069 17.1166 61.6273 11.7693C61.3094 11.1859 60.9707 10.5793 60.6369 10.0083Z" fill="black"/>
<path d="M140.788 2.55244C140.924 2.76195 141.061 2.97145 141.197 3.18096C140.44 3.72372 139.689 4.35087 138.989 4.99472C132.749 10.9853 128.018 18.4354 123.75 25.9576C120.799 31.5325 117.424 37.4744 117.076 43.4784L115.84 43.0242C117.756 41.3103 120.168 40.5304 122.604 40.555C123.635 40.5809 124.67 40.8 125.603 41.2411C125.506 41.4713 125.409 41.7016 125.311 41.9319C124.45 41.6123 123.527 41.4951 122.614 41.5424C120.477 41.6657 118.285 42.5999 116.868 44.0445L115.721 45.154L115.632 43.5903C115.675 36.5823 119 30.748 122.001 24.9873C126.352 17.3212 131.455 9.91491 138.35 4.24177C139.123 3.63453 139.951 3.04757 140.788 2.55244Z" fill="black"/>
<path d="M99.0724 84.6799C98.1527 76.7157 104.59 69.4756 111.028 69.4756C118.386 69.4756 122.984 76.7157 122.984 83.2319C122.984 89.748 120.225 99.1602 111.028 98.4362C101.831 97.7122 99.9921 92.6441 99.0724 84.6799Z" fill="black" stroke="black"/>
<path d="M40.0724 83.6799C39.1527 75.7157 45.5905 68.4756 52.0283 68.4756C59.3858 68.4756 63.9843 75.7157 63.9843 82.2319C63.9843 88.748 61.2252 98.1602 52.0283 97.4362C42.8314 96.7122 40.9921 91.6441 40.0724 83.6799Z" fill="black" stroke="black"/>
</svg>
