<svg width="161" height="115" viewBox="0 0 161 115" fill="none" xmlns="http://www.w3.org/2000/svg">
<path d="M116.033 102.848C113.972 98.3498 117.798 87.2273 120.062 82.5421C125.192 76.697 126.246 69.3471 125.855 65.1927C144.591 62.5586 148.828 47.945 146.476 44.7509C144.405 41.9398 143.434 33.4283 143.208 29.524C143.957 18.4669 140.865 7.42542 139.225 3.28681C134.915 4.03645 127.903 13.4381 124.935 18.0452C121.749 16.9208 114.394 17.5767 111.114 18.0452C111.114 11.4859 102.837 4.06768 98.6981 1.17847C92.3262 4.73923 90.2647 23.4332 90.0304 32.3351C87.7557 41.2443 89.4222 48.5554 91.9045 53.1843C88.3125 51.6226 77.7083 49.7641 64.0275 54.8241C46.9265 61.1492 44.5839 71.2224 43.4126 74.2677C42.2413 77.3131 35.682 81.2527 31.6995 83.6382C27.7171 86.0236 19.518 87.3864 15.067 85.7466C10.6161 84.1067 4.99382 78.9529 2.67273 81.2527C0.351645 83.5525 -1.5655 87.6206 11.4885 93.9668C21.9318 99.0437 35.5608 92.9446 41.0699 89.2604C42.4755 100.036 46.4579 96.7568 47.8635 101.442C49.269 106.127 45.9894 107.298 48.5663 109.641C51.1431 111.984 61.9191 110.812 69.2313 111.114C75.081 111.356 76.4767 109.452 76.4433 108.47C78.6922 109.219 81.1914 108.515 82.1599 108.069C83.5473 104.937 80.1763 101.409 78.3174 100.036V100.02C84.1439 99.1509 89.6532 96.8343 92.373 95.3512H92.3756C93.2924 99.1845 94.5476 103.313 96.1212 106.361C99.8694 113.624 98.9323 112.452 104.32 113.155C108.631 113.717 110.645 111.984 111.114 111.047C113.613 111.749 119.395 112.546 120.707 109.173C122.019 105.799 120.239 102.145 116.033 102.848Z" fill="#EFEFEF"/>
<path d="M125.855 65.1927C126.246 69.3471 125.192 76.697 120.062 82.5421C117.798 87.2273 113.972 98.3498 116.033 102.848C120.239 102.145 122.019 105.799 120.707 109.173C119.395 112.546 113.613 111.749 111.114 111.047C110.645 111.984 108.631 113.717 104.32 113.155C98.9323 112.452 99.8694 113.624 96.1212 106.361C94.5476 103.313 93.2924 99.1845 92.3756 95.3512H92.373C89.6532 96.8343 84.1439 99.1509 78.3174 100.02V100.036C80.1763 101.409 83.5473 104.937 82.1599 108.069C81.1914 108.515 78.6922 109.219 76.4433 108.47C76.4767 109.452 75.081 111.356 69.2313 111.114C61.9191 110.812 51.1431 111.984 48.5663 109.641C45.9894 107.298 49.269 106.127 47.8635 101.442C46.4579 96.7568 42.4755 100.036 41.0699 89.2604C35.5608 92.9446 21.9318 99.0437 11.4885 93.9668C-1.5655 87.6206 0.351645 83.5525 2.67273 81.2527C4.99382 78.9529 10.6161 84.1067 15.067 85.7466C19.518 87.3864 27.7171 86.0236 31.6995 83.6382C35.682 81.2527 42.2413 77.3131 43.4126 74.2677C44.5839 71.2224 46.9265 61.1491 64.0275 54.8241C77.7083 49.7641 88.3125 51.6226 91.9045 53.1843C89.4222 48.5554 87.7557 41.2443 90.0304 32.3351C90.2647 23.4332 92.3262 4.73923 98.6981 1.17847C102.837 4.06768 111.114 11.4859 111.114 18.0452C114.394 17.5767 121.749 16.9208 124.935 18.0452C127.903 13.4381 134.915 4.03645 139.225 3.28681C140.865 7.42542 143.957 18.4669 143.208 29.524C143.434 33.4283 144.405 41.9398 146.476 44.7509C148.828 47.945 144.591 62.5586 125.855 65.1927ZM125.855 65.1927C125.401 65.2565 124.938 65.3133 124.467 65.3628" stroke="black" stroke-width="2" stroke-linecap="round"/>
<path d="M93.8286 26.4063C93.9438 26.4547 94.0591 26.503 94.1744 26.5514C94.3015 26.3557 94.4413 26.1552 94.5799 25.9692C95.1459 25.2088 95.7597 24.5151 96.4028 23.8457C98.649 21.4848 101.871 20.1565 105.216 20.1075C105.454 20.1017 105.69 20.1012 105.934 20.1065C105.944 19.9819 105.954 19.8573 105.964 19.7326C105.716 19.6992 105.475 19.6725 105.229 19.6521C101.799 19.3185 98.1203 20.5711 95.6828 23.1517C94.9826 23.8795 94.416 24.7354 94.0521 25.6837C93.9642 25.9161 93.8845 26.1649 93.8286 26.4063Z" fill="black"/>
<path d="M128.173 50.6283C128.731 51.2786 129.391 51.4677 130.004 51.4305C129.301 54.7101 127.969 58.8066 125.861 58.1038C124.427 57.626 123.164 54.0017 122.93 51.8153C127.094 51.719 126.798 47.7963 127.032 47.3278C127.026 47.3257 127.029 47.27 127.032 47.2134C127.028 47.1568 127.023 47.0994 127.032 47.0936C126.319 46.8282 124.96 45.8339 125.401 44.963C125.972 43.8357 129.181 44.1822 129.021 45.464C128.895 46.4644 127.738 46.6408 127.032 47.0936C127.039 47.0961 127.035 47.1552 127.032 47.2134C127.032 47.2187 127.033 47.2239 127.033 47.2291C127.037 47.2781 127.04 47.3227 127.032 47.3278C127.266 48.0306 126.981 49.2393 128.173 50.6283Z" fill="black"/>
<path d="M131.537 50.6021C131.177 50.8846 130.7 51.3881 130.004 51.4305M130.004 51.4305C129.391 51.4677 128.731 51.2786 128.173 50.6283C126.981 49.2393 127.266 48.0306 127.032 47.3278M130.004 51.4305C129.301 54.7101 127.969 58.8066 125.861 58.1038C124.427 57.626 123.164 54.0017 122.93 51.8153M127.032 47.0936C127.045 47.0985 127.019 47.3236 127.032 47.3278M127.032 47.0936C127.738 46.6408 128.895 46.4644 129.021 45.464C129.181 44.1822 125.972 43.8357 125.401 44.963C124.96 45.8339 126.319 46.8282 127.032 47.0936ZM127.032 47.0936C127.022 47.0999 127.029 47.1679 127.033 47.2291C127.037 47.2781 127.04 47.3227 127.032 47.3278M127.032 47.3278C126.798 47.7963 127.094 51.719 122.93 51.8153M122.93 51.8153C120.889 51.7326 120.541 51.6225 119.536 50.2783" stroke="black" stroke-linecap="round"/>
<path d="M124.571 66.3573C124.839 66.3653 125.084 66.2652 125.251 66.0585C125.418 65.853 125.493 65.5578 125.461 65.2585C125.43 64.9591 125.295 64.6859 125.089 64.5196C124.883 64.352 124.622 64.305 124.362 64.3682C124.362 64.3682 124.362 64.3682 124.362 64.3682C124.288 64.3866 124.213 64.4047 124.138 64.4226C122.788 64.7448 121.41 64.9992 120.014 65.1933C119.937 65.2041 119.859 65.2147 119.781 65.2251C119.694 65.2369 119.611 65.2867 119.549 65.3568C119.488 65.4274 119.453 65.5124 119.453 65.6001C119.453 65.6878 119.488 65.7729 119.549 65.8434C119.611 65.9136 119.694 65.9634 119.781 65.9751C119.86 65.9856 119.939 65.9958 120.018 66.0058C121.439 66.1865 122.876 66.3062 124.329 66.3506C124.41 66.3531 124.49 66.3553 124.571 66.3573Z" fill="black"/>
<path d="M91.4033 95.5838C91.4464 95.8462 91.5918 96.073 91.8182 96.2117C92.0439 96.3505 92.332 96.3899 92.6084 96.3238C92.8849 96.2577 93.124 96.0922 93.2625 95.8663C93.4015 95.6402 93.4286 95.3722 93.3484 95.1186C93.3484 95.1186 93.3484 95.1186 93.3484 95.1186C93.3043 94.979 93.2609 94.8408 93.2175 94.7009C92.4408 92.192 91.7539 89.6412 91.1953 87.0635C91.1647 86.9207 91.1343 86.7758 91.1052 86.6345C91.0864 86.5435 91.0299 86.4613 90.9517 86.4056C90.8733 86.3498 90.7797 86.3251 90.6877 86.3372C90.5956 86.3494 90.5117 86.3976 90.4504 86.4718C90.3894 86.5459 90.3561 86.64 90.3616 86.7327C90.3616 86.7327 90.3616 86.7327 90.3616 86.7327C90.3704 86.879 90.3804 87.0289 90.3907 87.1767C90.5832 89.8426 90.9068 92.4933 91.3309 95.1423C91.3548 95.29 91.3787 95.4361 91.4033 95.5838Z" fill="black"/>
<path d="M144.602 48.0308C144.602 48.0308 144.602 48.0308 144.602 48.0308C144.867 47.948 145.147 47.8663 145.417 47.7944C147.884 47.1488 150.37 46.7792 152.854 46.6809C155.334 46.5957 157.831 46.81 160.213 47.7058C160.479 47.8061 160.739 47.913 161 48.0308C161 48.0308 161 48.0308 161 48.0308C160.773 47.8558 160.541 47.6921 160.299 47.5361C158.119 46.1269 155.414 45.5833 152.818 45.6816C150.21 45.7831 147.65 46.4549 145.348 47.6172C145.098 47.7461 144.839 47.8872 144.602 48.0308Z" fill="black"/>
<path d="M99.1552 53.1843C99.1552 53.1843 99.1552 53.1843 99.1552 53.1843C98.8473 53.1467 98.5204 53.1205 98.2057 53.1032C95.3327 52.9657 92.415 53.4295 89.7059 54.4961C87.011 55.5601 84.4881 57.3346 82.9224 59.7742C82.7481 60.0446 82.5886 60.3179 82.4392 60.601C82.644 60.355 82.8532 60.1212 83.0718 59.8917C85.037 57.8346 87.4948 56.4546 90.0751 55.4255C92.6656 54.4073 95.3941 53.6951 98.2133 53.293C98.5227 53.2506 98.8464 53.2133 99.1552 53.1843Z" fill="black"/>
<path d="M72.0383 110.762C72.3124 110.952 72.5864 111.141 72.8605 111.331C72.933 111.217 72.9978 111.097 73.0528 110.98C74.135 108.731 72.506 106.374 70.7392 105.437C70.6422 105.379 70.5421 105.321 70.4388 105.264C70.3737 105.371 70.3085 105.478 70.2433 105.584C70.3372 105.648 70.4276 105.712 70.5145 105.776C72.1522 106.868 73.1589 108.975 72.1924 110.534C72.1452 110.615 72.0922 110.693 72.0383 110.762Z" fill="black"/>
<path d="M79.0664 108.185C79.3405 108.375 79.6145 108.565 79.8886 108.754C79.9611 108.64 80.0259 108.52 80.0809 108.403C81.1631 106.154 79.5341 103.797 77.7672 102.86C77.6702 102.802 77.5702 102.744 77.4669 102.687C77.4017 102.794 77.3366 102.901 77.2714 103.007C77.3653 103.071 77.4557 103.135 77.5426 103.199C79.1803 104.291 80.187 106.399 79.2205 107.958C79.1732 108.038 79.1202 108.117 79.0664 108.185Z" fill="black"/>
<path d="M105.303 112.871C105.577 113.06 105.851 113.25 106.125 113.44C106.21 113.308 106.276 113.175 106.331 113.046C107.157 110.738 106.557 108.285 105.164 106.528C105.085 106.431 105.006 106.337 104.922 106.243C104.826 106.322 104.729 106.401 104.632 106.48C104.704 106.576 104.77 106.671 104.836 106.769C106.013 108.503 106.273 110.888 105.453 112.635C105.406 112.723 105.354 112.806 105.303 112.871Z" fill="black"/>
<path d="M109.754 112.168C110.029 112.357 110.303 112.547 110.577 112.737C110.661 112.606 110.727 112.472 110.782 112.343C111.608 110.035 111.008 107.582 109.615 105.825C109.536 105.728 109.457 105.634 109.374 105.54C109.277 105.619 109.18 105.698 109.083 105.777C109.155 105.873 109.222 105.968 109.287 106.066C110.464 107.8 110.724 110.186 109.904 111.932C109.858 112.02 109.805 112.104 109.754 112.168Z" fill="black"/>
<path d="M114.403 111.618C114.642 111.85 114.882 112.082 115.121 112.314C115.226 112.198 115.313 112.077 115.388 111.959C116.58 109.817 116.389 107.299 115.301 105.338C115.24 105.229 115.177 105.124 115.11 105.017C115.002 105.079 114.893 105.142 114.785 105.204C114.84 105.31 114.89 105.414 114.939 105.522C115.816 107.425 115.684 109.821 114.589 111.41C114.529 111.489 114.464 111.563 114.403 111.618Z" fill="black"/>
<path d="M118.227 111.229C118.466 111.461 118.706 111.693 118.945 111.925C119.05 111.809 119.137 111.688 119.212 111.569C120.404 109.428 120.213 106.91 119.125 104.949C119.064 104.84 119.001 104.735 118.934 104.628C118.826 104.69 118.717 104.753 118.609 104.815C118.664 104.921 118.714 105.025 118.763 105.133C119.64 107.036 119.508 109.432 118.413 111.021C118.353 111.1 118.288 111.174 118.227 111.229Z" fill="black"/>
<path d="M75.4354 108.859C76.0999 108.912 76.7644 108.965 77.429 109.018C77.44 108.747 77.4243 108.489 77.3907 108.234C76.5281 103.537 71.7676 102.076 68.1967 101.812C67.9912 101.796 67.7815 101.783 67.5676 101.772C67.5427 102.02 67.5178 102.269 67.493 102.518C67.6976 102.549 67.8972 102.582 68.092 102.618C71.5742 103.164 75.3455 105.27 75.4613 108.411C75.4654 108.57 75.4567 108.722 75.4354 108.859Z" fill="black"/>
<path d="M120.063 82.542C116.996 86.0356 112.481 89.0534 105.96 90.6659" stroke="black" stroke-width="2" stroke-linecap="round"/>
<path d="M77.8899 100.036C75.1266 100.449 72.2921 100.535 69.6499 100.053" stroke="black" stroke-width="2" stroke-linecap="round"/>
<path d="M100.034 60.8547C100.079 60.8717 100.13 60.8697 100.175 60.8499C100.22 60.8301 100.255 60.7941 100.273 60.7491C100.291 60.7042 100.291 60.6538 100.272 60.6083C100.254 60.5629 100.218 60.5262 100.174 60.5069C100.174 60.5069 100.174 60.5069 100.174 60.5069C99.994 60.4288 99.8127 60.3441 99.6351 60.2556C96.4401 58.6217 93.9021 55.8793 92.2166 52.7701C92.1222 52.5954 92.0325 52.4231 91.9431 52.2454C91.8835 52.1269 91.7796 52.0383 91.6526 52C91.5257 51.9616 91.3861 51.9767 91.2661 52.041C91.1462 52.1054 91.0564 52.2133 91.0181 52.3402C90.9797 52.4672 90.9961 52.6028 91.0618 52.718C91.0618 52.718 91.0618 52.718 91.0618 52.718C91.165 52.8994 91.2685 53.075 91.3768 53.2529C93.313 56.4199 96.0852 59.1099 99.4635 60.6238C99.6516 60.7057 99.8434 60.7837 100.034 60.8547Z" fill="black"/>
<path d="M138.552 48.0978C151.905 47.428 146.766 27.6074 140.375 25.872C135.756 24.618 130.368 29.7719 129.884 35.2134C129.096 44.0803 131.07 48.4731 138.552 48.0978Z" fill="white"/>
<path d="M138.552 48.0978C138.552 48.0978 138.552 48.0978 138.552 48.0978C139.641 48.1078 140.681 47.9971 141.734 47.6763C146.353 46.4535 148.095 40.8571 147.542 36.5022C146.928 32.1353 145.69 27.0872 140.635 24.9128C139.691 24.6503 138.693 24.622 137.756 24.7814C132.743 25.8571 129.48 30.3898 129.06 35.1401C128.912 37.7461 128.883 40.4086 129.643 43.0168C130.288 45.6524 132.698 47.895 135.347 48.1016C136.418 48.2491 137.494 48.2166 138.552 48.0978C138.552 48.0978 138.552 48.0978 138.552 48.0978C137.487 48.0839 136.426 47.9863 135.42 47.7287C129.862 46.5467 130.179 39.9806 130.708 35.2866C131.205 31.3428 134.354 27.4787 138.087 26.7537C138.775 26.6376 139.464 26.6581 140.114 26.8312C146.18 30.0035 149.797 43.2532 141.603 47.3197C140.636 47.7372 139.635 47.9751 138.552 48.0978ZM138.552 48.0978" fill="black"/>
<path d="M111.936 48.6477C123.861 47.9229 124.846 30.1192 116.931 26.4333C109.64 23.0383 102.531 27.5894 100.966 35.0487C99.2681 43.1474 105.254 49.0537 111.936 48.6477Z" fill="white"/>
<path d="M111.936 48.6477C111.936 48.6477 111.936 48.6477 111.936 48.6477C113.125 48.6427 114.317 48.4557 115.45 48.0477C123.934 44.7937 126.044 30.867 117.341 25.5528C115.415 24.6286 113.211 24.1423 111.026 24.3304C105.382 24.7299 101.019 29.6789 100.165 34.8807C98.7959 40.7167 102.622 47.3447 108.381 48.4592C109.554 48.7254 110.761 48.7863 111.936 48.6477C111.936 48.6477 111.936 48.6477 111.936 48.6477C110.753 48.6531 109.583 48.4635 108.483 48.0932C103.09 46.3855 100.346 40.3142 101.768 35.2168C102.782 30.6007 106.587 26.6469 111.192 26.3235C112.993 26.1694 114.834 26.5454 116.521 27.3139C123.306 30.9649 123.047 43.8665 115.304 47.6969C114.26 48.198 113.118 48.5097 111.936 48.6477ZM111.936 48.6477" fill="black"/>
<path d="M112.735 31.6323C113.965 31.6331 117.654 34.6747 117.654 38.4263C117.654 42.1776 113.965 45.2185 112.735 45.2192C111.505 45.2192 107.815 42.1781 107.815 38.4263C107.815 34.6743 111.505 31.6323 112.735 31.6323ZM113.769 33.7163C112.598 33.0139 110.959 34.1849 110.49 35.5903C110.115 36.7146 111.271 37.3081 111.895 37.4644C113.301 37.6987 113.302 36.0589 113.302 35.5903C113.302 35.1218 114.94 34.419 113.769 33.7163ZM114.707 36.5278C115.41 37.2296 116.58 34.888 114.941 35.356C113.629 35.7308 114.238 36.2936 114.707 36.5278Z" fill="black"/>
<path d="M139.441 31.1638C140.671 31.1646 144.36 34.2062 144.36 37.9578C144.36 41.7091 140.671 44.75 139.441 44.7507C138.211 44.7507 134.521 41.7096 134.521 37.9578C134.521 34.2058 138.211 31.1638 139.441 31.1638ZM140.475 33.2478C139.304 32.5452 137.664 33.7164 137.196 35.1218C136.821 36.2462 137.976 36.8396 138.601 36.9958C140.007 37.2302 140.006 35.5903 140.006 35.1218C140.007 34.6533 141.646 33.9505 140.475 33.2478ZM141.413 36.0593C142.115 36.761 143.286 34.419 141.646 34.8875C140.335 35.2623 140.944 35.8251 141.413 36.0593Z" fill="black"/>
<path d="M123.35 52.9303C122.975 54.4296 124.287 56.6785 124.99 57.6155C125.927 58.0841 125.458 57.147 126.161 55.9757C126.864 54.8044 126.161 53.6331 125.458 53.6331C124.756 53.6331 123.818 51.0562 123.35 52.9303Z" fill="white" stroke="black"/>
<path d="M61.8227 103.654C61.8796 103.897 61.9364 104.141 61.9932 104.384C62.7249 104.299 63.4553 104.16 64.1759 103.97C67.0532 103.213 69.7751 101.614 71.8152 99.3468C75.5849 95.2604 76.8427 89.3992 76.1654 84.1278L76.1671 84.1469C75.9236 78.7058 71.2368 74.8232 66.8514 72.9612C66.1974 72.6506 65.5406 72.3542 64.8868 72.0584C64.775 72.282 64.6632 72.5056 64.5514 72.7292C65.1816 73.0753 65.8109 73.418 66.4313 73.7697C70.6784 75.9988 74.4105 79.553 74.4608 84.2759L74.4625 84.2949C74.8998 89.2768 73.6502 94.3962 70.3302 98.0072C68.5231 100.01 66.2863 101.642 63.7667 102.842C63.1356 103.141 62.4871 103.413 61.8227 103.654Z" fill="black"/>
<path d="M106.605 103.557C106.925 103.464 107.245 103.37 107.565 103.277C107.466 102.958 107.369 102.615 107.281 102.286C105.788 96.2687 105.014 89.7566 106.853 83.7492C106.962 83.4215 107.082 83.0937 107.213 82.7751C107.098 82.726 106.983 82.6769 106.868 82.6278C106.724 82.9506 106.591 83.2831 106.47 83.6156C104.407 89.7219 105 96.3204 106.341 102.523C106.422 102.864 106.512 103.22 106.605 103.557Z" fill="black"/>
<path d="M110.216 111.475C110.495 111.658 110.773 111.841 111.052 112.024C111.18 111.819 111.303 111.598 111.411 111.384C112.319 109.484 113.016 107.046 111.676 105.042C110.196 103.131 107.703 103.155 105.692 103.291C105.466 103.31 105.233 103.335 104.993 103.364C105.005 103.488 105.018 103.613 105.03 103.737C105.267 103.719 105.496 103.705 105.718 103.696C107.696 103.626 110.041 103.841 111.11 105.434C112.121 107.04 111.475 109.246 110.556 110.929C110.45 111.116 110.333 111.306 110.216 111.475Z" fill="black"/>
<path d="M97.7497 48.2647C97.7497 48.2647 97.7497 48.2647 97.7497 48.2647C97.421 48.143 97.0852 48.0336 96.7395 47.9315C93.666 47.0428 90.4412 46.7118 87.2381 46.7864C84.0364 46.8684 80.8344 47.3971 77.8047 48.3982C77.4668 48.5098 77.1349 48.6262 76.8008 48.7496C77.1521 48.6906 77.4986 48.6358 77.8489 48.583C80.9888 48.112 84.1261 47.8677 87.2636 47.786C90.4033 47.7142 93.5498 47.7652 96.701 48.1175C97.0562 48.1604 97.404 48.2074 97.7497 48.2647Z" fill="black"/>
<path d="M142.962 52.7161C143.249 52.7572 143.551 52.8056 143.837 52.8573C146.459 53.3412 148.992 54.0463 151.438 54.9544C153.876 55.8751 156.238 57.015 158.282 58.7147C158.508 58.9041 158.729 59.1002 158.946 59.3044C158.78 59.0571 158.604 58.8164 158.418 58.5821C156.73 56.4646 154.319 54.9662 151.789 54.0181C149.246 53.0725 146.542 52.6144 143.852 52.6678C143.558 52.6758 143.251 52.6906 142.962 52.7161Z" fill="black"/>
<path d="M104.527 5.65156C104.226 5.79303 103.924 5.93451 103.622 6.07598C103.754 6.337 103.89 6.6152 104.018 6.88134C105.874 10.9886 107.988 15.2347 108.142 19.759L108.322 19.7176C107.831 18.9844 107.298 18.2774 106.672 17.6567C106.453 17.4472 106.222 17.2402 105.949 17.1083C106.213 17.2549 106.431 17.4721 106.636 17.6916C107.222 18.3398 107.713 19.0722 108.156 19.8199L108.311 20.0636L108.336 19.7785C108.43 15.1054 106.533 10.7611 104.885 6.49268C104.77 6.21553 104.647 5.92553 104.527 5.65156Z" fill="black"/>
<path d="M136.906 4.21054C137.195 4.37568 137.485 4.54082 137.774 4.70597C137.583 5.02433 137.378 5.34617 137.177 5.6556C134.608 9.79967 130.957 13.6842 130.452 18.4968L130.199 18.4293C132.099 17.8746 133.617 18.9329 135.312 19.1679C135.67 19.2283 136.05 19.319 136.403 19.2167C136.053 19.3356 135.666 19.2616 135.304 19.2173C133.664 19.0178 131.784 18.2005 130.425 18.5985L130.21 18.8766L130.172 18.531C130.488 13.3763 134.018 9.403 136.369 5.15543C136.553 4.843 136.738 4.52054 136.906 4.21054Z" fill="black"/>
<path d="M140.385 24.6045C140.296 24.4599 140.196 24.3111 140.097 24.1691C139.19 22.8826 138.063 21.7609 136.768 20.8627C135.475 19.9744 133.978 19.2801 132.391 19.1217C132.216 19.1055 132.039 19.0961 131.866 19.0959C132.026 19.1615 132.186 19.232 132.341 19.3051C133.735 19.9742 134.954 20.8344 136.199 21.6856C137.437 22.545 138.686 23.4106 139.962 24.303C140.102 24.4016 140.247 24.5054 140.385 24.6045Z" fill="black"/>
<path d="M124.769 17.2086C124.404 17.7663 124.039 18.324 123.673 18.8817C123.745 18.9163 123.818 18.9502 123.892 18.9827C125.161 19.4445 126.599 20.1573 128.129 19.1755C128.2 19.1123 128.264 19.0432 128.322 18.9686C128.142 18.7953 127.961 18.6219 127.781 18.4486C127.742 18.4746 127.702 18.495 127.66 18.5116C126.886 18.7654 125.711 18.0187 124.901 17.3287C124.855 17.2885 124.81 17.2479 124.769 17.2086Z" fill="black"/>
</svg>
