<svg width="32" height="32" viewBox="0 0 32 32" fill="none" xmlns="http://www.w3.org/2000/svg">
<path fill-rule="evenodd" clip-rule="evenodd" d="M11.7175 8.50684L11.5271 8.25879C11.6488 8.25403 11.7707 8.24077 11.8923 8.2207L11.7175 8.50684ZM19.0408 8.22754C19.1629 8.24571 19.285 8.25734 19.407 8.25977L19.2546 8.50684L19.0408 8.22754ZM9.58765 4.98438C9.99955 5.0096 10.7444 5.1393 11.5564 5.36719C11.5707 5.37121 11.585 5.37579 11.5994 5.37988L11.3162 5.66797C11.2084 5.77698 10.8835 6.05392 10.7908 6.46973C10.689 6.92732 10.8723 7.40569 11.2761 7.93164L11.5271 8.25879C11.4596 8.26143 11.3922 8.26244 11.325 8.25977C10.7884 8.23835 10.2603 8.03964 9.84351 7.56836C9.43922 7.11095 9.17801 6.44069 9.06128 5.54785L8.98315 4.94727L9.58765 4.98438ZM21.821 5.54785C21.7043 6.44092 21.4433 7.11094 21.0388 7.56836C20.622 8.03963 20.0949 8.23831 19.5583 8.25977C19.508 8.26178 19.4575 8.26077 19.407 8.25977L19.6345 7.88965C19.7232 7.74589 19.9265 7.45999 19.9841 7.08691C20.0461 6.68528 19.9404 6.25264 19.6345 5.75684L19.3845 5.35156C20.1741 5.13362 20.8936 5.00898 21.2957 4.98438L21.9001 4.94727L21.821 5.54785ZM18.8533 5.66797C18.7457 5.77683 18.4207 6.05369 18.3279 6.46973C18.226 6.92736 18.4094 7.40564 18.8132 7.93164L19.0408 8.22754C18.1935 8.10139 17.3624 7.62858 16.8035 7.22949L16.1892 6.79102L16.8337 6.39648C17.5129 5.98088 18.3286 5.66494 19.0779 5.43945L18.8533 5.66797ZM11.9246 5.47656C12.6403 5.6992 13.4064 6.00283 14.0496 6.39648L14.6941 6.79102L14.0789 7.22949C13.5309 7.62074 12.722 8.08375 11.8923 8.2207L12.0974 7.88965C12.1861 7.74585 12.3894 7.45999 12.447 7.08691C12.509 6.68524 12.4033 6.25271 12.0974 5.75684L11.9246 5.47656ZM11.9246 5.47656C11.8148 5.44241 11.7062 5.41023 11.5994 5.37988L11.7634 5.21484L11.9246 5.47656ZM19.3845 5.35156C19.3654 5.35684 19.3461 5.3618 19.3269 5.36719C19.2449 5.39019 19.1618 5.4142 19.0779 5.43945L19.3005 5.21484L19.3845 5.35156Z" fill="white"/>
<path d="M15.1104 9.3227C15.1104 9.36735 15.3748 10.0371 15.507 10.0371C15.6393 10.0371 15.9037 9.36735 15.9037 9.3227C15.9037 9.27805 15.7054 9.2334 15.507 9.2334C15.3087 9.2334 15.1104 9.27805 15.1104 9.3227Z" fill="white" stroke="white"/>
<path d="M7.45451 18.8701C7.45451 18.8701 15.5204 27.2779 15.8986 27.2779C16.2767 27.2779 24.3798 18.6022 24.3798 18.6022" stroke="#4BC3F5" stroke-width="4" stroke-linecap="round"/>
<path d="M29.8014 25.7014C29.8014 25.7014 30.2482 4.13651 29.8015 4.00145C29.3548 3.8664 16.0496 17.9325 16.0496 17.9325" stroke="#3FC4FF" stroke-width="4" stroke-linecap="round"/>
<path d="M2.03304 25.8356C2.03304 25.8356 1.90075 4.13555 2.16554 4.00131C2.43034 3.86707 12.3472 14.4493 12.3472 14.4493" stroke="#C17BFF" stroke-width="4" stroke-linecap="round"/>
</svg>
